ply
format ascii 1.0
comment C:\b50_1466 
comment Thu May 15 10:38:21 2003 
comment 
comment Created with the InterChange Wavefront Converter from Syndesis Corporation 
comment VIFS01 
comment 735 vertices 
comment 1466 elements 
comment converted from OBJ by obj2ply
element vertex 735
property float32 x
property float32 y
property float32 z
element face 1466
property list uint8 int32 vertex_indices
end_header
-36.1448 -76.4194 26.4892 
-46.48 32.7115 -6.06267 
73.0948 -59.6165 7.25042 
25.8225 -72.514 35.437 
-75.6312 12.2972 44.5355 
47.9303 -5.9369 -12.4818 
-32.0019 8.19257 32.2927 
-21.0778 -71.8124 -5.90587 
34.0049 -7.44004 47.5578 
-33.8119 -0.626061 -17.4655 
-61.9328 -36.7972 -2.78356 
-36.3733 45.9619 12.7333 
-74.3098 40.3252 16.1939 
38.2466 -55.7009 -25.5844 
-18.2125 -75.692 36.2399 
-44.8185 67.6732 -59.0121 
-37.0649 -54.0518 12.8953 
-16.589 -25.6123 -24.1502 
-48.1074 8.98736 51.8913 
6.88381 62.7342 -26.9956 
27.9574 19.762 2.80462 
21.5739 -58.1513 55.0109 
1.08576 -52.8127 -33.5028 
70.5562 -53.3479 29.9568 
-9.4553 -16.7763 46.7135 
27.6574 -73.8878 -21.1737 
-35.6076 -59.0455 31.6297 
-11.0395 -72.8621 55.9847 
-66.6633 -29.3073 30.382 
-34.1143 33.4284 2.45998 
1.9387 -22.9277 -37.3457 
-61.4696 39.0021 -0.889695 
-56.0394 -74.4562 9.47375 
-20.3633 -76.3669 -29.0823 
-68.675 -0.481757 8.84624 
39.8865 14.2706 25.5987 
-39.3778 -9.18816 44.6394 
50.2497 -21.9276 43.8285 
-7.78863 -2.03425 -20.1315 
24.7235 -73.826 7.33801 
-16.0161 -58.9101 -8.60247 
-10.7224 -56.9816 37.9909 
59.226 -46.8204 -0.765899 
70.449 -37.3045 22.2007 
-42.2381 -72.3376 48.2161 
-41.115 43.6097 31.8811 
-49.2833 -35.1632 -15.0045 
-45.0628 44.5759 5.23293 
5.35862 53.7145 -11.9974 
-11.7066 14.6867 19.6203 
31.7911 -73.9231 45.5555 
50.3146 5.85615 4.36067 
-6.79133 -25.3974 56.8418 
45.9418 -63.5393 -5.61912 
17.8178 7.86474 40.9604 
-40.066 -52.8824 2.37035 
-56.6457 70.02 -48.728 
54.2499 -24.1996 -14.4789 
-7.69512 73.6748 -9.27492 
-2.92241 -59.8431 47.5463 
-70.1286 11.4722 -0.470113 
-56.7236 -4.0293 38.7405 
-49.6666 7.34939 -7.336 
-31.6049 -76.6198 -11.6046 
55.8242 -52.7406 32.6179 
-54.6735 39.3449 -39.9804 
-59.5618 22.3065 54.2975 
20.4354 2.39797 -18.8303 
-27.6592 20.4231 12.1545 
-30.0303 -37.0293 43.3382 
21.177 -24.6341 59.0727 
38.6833 -74.3018 11.4463 
28.4732 -43.7688 55.7189 
-60.3931 42.5296 35.2634 
-43.8998 -76.1575 20.9165 
-13.0854 -76.0465 17.9725 
-54.0187 45.3502 6.32078 
-68.126 -25.3816 -1.18165 
-67.9641 4.06686 48.5973 
-7.90755 -62.5757 -24.9808 
-15.5155 11.7844 -5.71232 
-15.2112 -25.7664 43.2926 
24.6365 -38.9962 -31.9971 
26.9026 -75.4465 -11.4156 
-54.937 -46.9809 19.4611 
45.0441 -69.0706 32.2509 
74.4796 -42.3498 4.48468 
-13.9267 8.82793 30.8899 
-32.9931 -40.6015 -12.8307 
-25.0145 -76.1446 -4.0881 
-73.096 -20.2331 19.8034 
64.5091 -36.7865 16.2766 
-70.3837 0.126106 19.2232 
-59.9351 -15.6349 -11.4622 
-50.584 -22.0106 45.6847 
-14.3316 -33.3744 -31.3735 
63.0969 -62.2705 -2.64084 
12.9505 -46.9323 57.7728 
30.6425 -12.9462 -21.8913 
-42.2678 -62.5479 39.8434 
60.3737 -15.1264 25.1792 
-52.0346 -76.2856 -4.16938 
-31.6249 18.0915 -1.32526 
-72.6897 23.6356 6.05817 
23.5655 -75.481 39.424 
3.17618 73.76 -26.5927 
-45.0499 53.9289 -58.0981 
17.9019 -8.59302 45.8214 
-25.5067 61.1291 -6.72341 
30.4831 -21.4285 -28.8364 
-34.1533 -48.5609 34.0409 
66.3529 -64.705 24.549 
22.6315 -76.2308 17.4419 
-49.3655 -74.4076 39.8113 
-9.29302 -71.1722 39.3333 
-39.3487 4.79844 37.3971 
-37.2865 31.176 29.9579 
36.3815 -66.5672 -20.4663 
-33.4648 -63.224 18.7755 
-77.9578 15.576 23.2322 
-27.7688 -76.6204 -21.8198 
-18.6358 -67.5873 -27.5394 
-4.82124 -63.5066 54.0518 
37.3543 -52.7505 50.1759 
-51.187 71.06 -57.5199 
-23.7532 -14.7269 43.8299 
-69.6876 -30.3187 18.337 
-53.4223 3.35238 51.6113 
8.59591 -10.3809 -23.0326 
33.6785 -62.3752 44.4897 
-21.5433 -57.1712 40.7619 
-18.4367 -36.3735 -17.6303 
-40.7675 -63.4942 -1.86936 
38.0909 -75.2293 0.564855 
-0.585404 -47.7767 53.7233 
25.5923 19.5636 26.6667 
-13.1295 15.0654 5.54408 
-4.47462 -18.1533 -34.0581 
-46.1217 40.8714 -1.44526 
26.3049 11.9302 -11.1506 
-32.1761 34.8822 10.71 
13.4204 -71.6083 9.2888 
-52.5956 31.9211 -7.72879 
57.8046 -4.52394 8.29423 
-0.261346 62.4451 -21.8179 
-22.4013 -74.1207 44.1249 
-75.6734 3.99535 15.1571 
-39.1544 -28.8804 -19.9838 
1.76586 -17.9616 57.6548 
-6.18021 48.5761 -0.934449 
25.6157 12.5179 36.6132 
-6.7627 -75.3191 45.3971 
-36.2137 -11.4636 -20.8577 
-72.7491 32.0067 32.525 
10.2786 15.9481 -6.92743 
51.8271 -46.2351 40.6723 
-59.3902 40.2903 -16.6491 
-44.5909 48.6314 -23.0788 
22.7169 -60.6099 -27.1509 
-22.5161 -30.1972 44.6475 
75.8846 -38.754 15.7471 
-11.6246 -71.8014 -16.2295 
41.3438 -75.4176 18.7123 
58.3746 -62.6312 33.8353 
-61.4725 66.3197 -48.3466 
-69.0933 20.4321 50.6486 
-44.4741 12.548 44.2411 
55.4676 -41.6039 -10.8871 
-27.2165 -74.1734 9.96168 
18.4464 -14.9024 56.0866 
-33.0541 40.4548 13.4571 
-72.6402 2.79886 42.1231 
44.7846 -5.72723 39.7741 
-23.2456 -60.5282 -9.79625 
41.184 -22.0015 49.5616 
-48.0841 -69.8041 28.4236 
-49.4159 -11.4014 -14.8276 
18.3676 -45.8923 -32.8693 
2.77414 -66.3469 -25.2362 
-36.8821 -25.0142 47.0944 
30.6107 -4.63201 -17.7008 
-56.7898 -14.7464 42 
-16.0488 -76.4076 -17.7337 
-74.232 24.489 20.5398 
-50.4951 -65.3578 8.96313 
12.5732 -36.2595 60.9471 
-59.9542 43.7555 -0.011007 
58.6893 -19.3674 -6.76769 
-59.5902 17.5403 -6.43597 
-43.0809 35.4036 38.4272 
-1.22517 77.0739 -15.7532 
-14.4238 -12.2907 46.3104 
-5.5206 -36.478 -37.415 
-49.0345 -47.3192 -1.45973 
-39.7571 39.1495 -0.0495173 
22.5985 -71.7074 -10.5524 
37.9654 -45.1414 48.7574 
-61.7509 17.6253 55.1328 
-31.6874 -58.8188 38.5947 
31.3969 -18.7662 54.0488 
-39.5035 -60.9323 11.1215 
-67.3445 -19.1729 -3.77699 
-56.7915 -36.0702 36.1568 
7.4934 -10.5538 50.915 
29.9505 -32.8468 56.3633 
-11.589 -25.4803 -34.0002 
-23.3328 -64.5506 -20.6859 
38.1615 -42.6926 -26.2958 
76.4949 -49.4536 6.45168 
-71.5079 41.9143 23.3212 
-32.3116 -13.6284 46.4337 
-37.1742 -76.8413 17.3676 
-22.2111 -68.2268 43.0844 
-73.6827 5.99962 29.086 
0.533564 53.5396 -15.3953 
12.136 -2.90608 45.8556 
74.5908 -57.2172 22.7076 
-50.3005 50.0713 -55.7816 
35.8015 -74.027 20.722 
61.4703 -42.7845 27.4006 
-49.73 -69.7649 -4.35306 
-16.7773 3.35974 -15.7133 
-42.5986 -36.0261 43.2371 
-16.6496 -68.5379 51.8444 
-57.8557 -25.4785 -13.702 
62.3978 -17.5976 8.15594 
-32.4921 20.1087 32.0521 
14.8146 -26.0009 -35.7739 
-20.4654 50.8614 1.95101 
-69.2904 32.5256 9.64361 
14.9683 -15.3048 -31.4097 
38.1801 11.3344 33.1433 
44.1408 -32.4006 47.451 
-9.70689 -72.3654 17.2291 
-48.3383 0.1656 38.9875 
-39.8755 -64.0258 44.8927 
-23.7557 -26.5229 -19.546 
-61.6722 51.6026 -23.512 
46.9797 1.50987 -7.96379 
-64.0057 -38.3141 17.6135 
-20.9355 13.2201 28.2859 
-45.5571 57.2194 -45.4359 
8.6703 19.0365 26.578 
-64.8882 1.06554 1.57694 
-55.6967 60.2707 -26.4861 
-49.5299 43.998 -49.0247 
-29.1792 7.81678 -13.612 
44.4705 -61.7503 -16.029 
-63.448 6.87304 50.6415 
15.779 -56.7647 56.5985 
-11.8952 -16.5783 -23.0533 
-18.9295 -74.0051 16.1973 
-24.9602 -24.7785 43.9383 
31.4504 -1.52031 42.2847 
63.6553 -38.9243 6.21216 
-1.71921 -27.3996 59.6027 
24.8994 -55.7204 -29.1334 
-52.4205 13.8482 54.5626 
56.9039 -9.47985 -3.23242 
54.5204 -69.0241 -1.11611 
67.3172 -49.6814 -2.89753 
3.75744 -62.4725 49.2716 
-21.4385 -74.724 25.917 
37.1771 16.0597 3.77298 
52.8563 -56.3253 -4.87704 
37.683 -71.0649 42.9592 
-40.0234 -53.9517 7.72063 
-1.32448 48.5713 -7.11723 
41.859 -27.2744 -23.0869 
46.2377 -48.7882 -18.4655 
17.6247 -51.9625 56.2383 
-11.7668 -60.8513 -21.6531 
-0.993494 71.1778 -16.9985 
71.7404 -37.2736 9.80009 
-37.63 41.5363 28.7144 
48.3825 -71.3383 27.2569 
15.1833 2.02544 -18.1926 
-45.5422 27.8359 37.0655 
17.6199 15.5211 33.7382 
-54.9044 -75.639 1.05849 
-41.6304 -69.902 21.3093 
-33.3479 28.1448 4.40229 
17.0824 -75.3893 18.0616 
29.5286 -75.3306 32.8646 
8.98519 19.8077 5.65587 
-71.8949 -13.6071 24.3384 
-52.0745 65.4111 -55.2089 
7.75013 -45.9237 -34.324 
2.90707 -9.75265 45.4008 
67.5738 -65.9006 13.4335 
-6.73158 69.7135 -18.4519 
-36.5823 -57.4404 -4.46453 
-44.4683 -17.5511 47.029 
23.1399 -66.4742 47.0357 
-75.7022 12.0429 30.9868 
29.0052 -34.8893 -29.3844 
49.1047 -31.8378 -18.0409 
-16.3538 48.9448 4.458 
63.3079 -51.132 33.5451 
-42.6962 -75.5919 45.9586 
-43.0606 11.2357 -7.24778 
-57.9511 53.0615 -33.741 
-10.9474 -46.3607 39.1289 
47.7331 7.9793 26.058 
-20.7379 58.5745 3.56611 
24.1305 -11.7565 50.4844 
-64.196 25.0221 -1.70504 
36.1886 -75.7037 4.42604 
-32.8327 -18.6431 45.8903 
-40.73 46.5395 10.9109 
-40.2262 29.4246 -3.26308 
6.45818 69.2861 -28.6234 
-28.3011 -13.2338 -20.3391 
59.88 -28.6224 -3.29176 
-74.8019 38.1664 24.4678 
-66.0053 -2.27155 28.6935 
31.383 -62.9543 -23.477 
-51.1544 59.0292 -26.9307 
3.82642 9.8105 38.0622 
-44.0737 62.7608 -60.7068 
-4.39118 -16.6983 53.5296 
-45.0145 41.7178 1.67851 
55.2764 -3.85889 27.5538 
-56.612 8.52573 55.4641 
-56.8541 46.2787 18.6006 
-57.0432 -43.3755 3.44649 
36.2654 -8.88352 -20.6826 
58.2142 -59.9075 -5.22001 
-37.6077 -74.2756 48.3231 
-3.86937 -27.1735 -37.6393 
-45.4492 42.8173 35.6572 
-18.2576 54.6648 -13.3512 
-46.1289 -7.66558 -16.8502 
20.1044 -31.9269 57.7008 
55.1574 -18.8079 36.6094 
-17.1365 -76.5197 14.8949 
-3.51201 -73.9116 55.1249 
21.7374 -76.3097 6.93812 
4.76307 64.5145 -19.9092 
-30.3995 -45.8992 -12.0455 
-26.7442 18.1752 18.1177 
-51.2783 -49.8308 14.9093 
-30.462 -69.3853 -10.4221 
-75.7361 6.78214 42.268 
-58.8883 40.9981 -7.79336 
-69.6383 -25.9747 20.8872 
-39.3189 13.5227 41.4809 
-25.1157 -76.134 -26.7038 
-61.3044 0.00118054 45.859 
-32.5353 31.4642 11.7499 
-75.2627 8.01034 10.0524 
76.5192 -44.4111 22.5002 
-35.2058 -54.0322 20.1525 
-15.5659 -52.0439 -10.4952 
44.1346 -13.9608 -18.1645 
1.30054 15.1496 -2.50695 
-10.0385 -61.8699 50.8112 
-48.5285 -26.3042 -17.5229 
32.3945 -53.0221 50.7521 
-40.0293 44.6059 0.90898 
51.064 -74.5665 12.6781 
-25.5279 -67.552 44.4504 
-53.4142 32.6048 46.9235 
-56.6954 32.4926 -5.56995 
3.76307 -42.357 55.3835 
-72.7316 36.3713 11.9536 
-19.6377 0.676664 37.6067 
-32.8026 -56.9557 16.9778 
-44.8169 -44.8859 33.9365 
-61.1887 -22.6158 39.2714 
10.6604 0.657549 -20.7059 
-71.0825 30.6937 40.8332 
-5.89526 5.97638 -13.2347 
-29.2119 11.8211 27.6379 
33.9623 -75.1779 -13.9574 
24.5363 -70.8903 31.2892 
26.8667 -41.8793 -29.3622 
-60.7066 68.4489 -48.2784 
-69.4923 14.4513 49.8756 
-17.0495 42.1368 0.55304 
-34.2318 -0.694227 39.5065 
-31.1853 -23.5292 47.3474 
-47.6839 -66.4405 35.2339 
-56.7024 -35.5907 -8.39866 
29.0301 -28.0965 55.2143 
-28.224 -70.6848 -20.1662 
-62.8841 37.6462 41.561 
35.3539 -19.4596 49.6002 
-22.6509 12.5824 -9.45136 
39.6949 -65.3179 -14.8075 
-50.3428 -73.2766 32.8755 
1.55698 -5.49836 -21.1895 
19.1252 -40.4502 57.4435 
28.1709 -54.7316 54.0695 
-70.854 -24.6625 6.07069 
23.5658 -76.0599 -19.1443 
16.4853 -36.599 -33.9912 
-13.1658 -8.10033 44.2979 
-26.429 -38.7111 -16.4969 
55.1607 -48.8604 -8.11843 
-41.8955 -49.9052 0.343361 
24.1886 -52.2899 54.6876 
-1.59305 3.11535 -17.0468 
-47.2679 36.2443 -16.0454 
32.2319 9.5036 36.483 
-75.2556 31.523 18.2858 
-0.701223 -0.105124 42.6985 
28.0247 20.4874 20.1225 
-46.0205 50.5049 -45.5683 
-65.0796 -34.9334 18.8718 
5.32641 72.8929 -25.7103 
23.9049 16.728 -4.95646 
-37.8139 -61.3017 31.5004 
20.3188 21.5134 8.16059 
-42.6272 33.7291 -0.974966 
10.2987 -64.2797 -28.0294 
-2.73593 76.5149 -18.5185 
-48.405 63.2462 -46.7547 
7.15331 57.0285 -21.3001 
44.1795 -48.2327 45.6475 
-51.1453 40.0697 -38.7495 
27.4974 -75.6429 -6.61882 
-18.2154 -29.4963 -21.1651 
-20.5188 17.3758 1.8308 
1.27214 -45.2409 -36.2137 
-13.8444 -31.5181 42.602 
22.6456 -49.969 -29.2202 
20.5012 0.768476 43.7974 
20.3192 -48.0332 58.4822 
-53.0638 20.6043 51.3922 
-57.0154 0.758856 -6.98482 
-46.9279 -7.5487 43.3314 
23.1996 -20.7936 -31.3063 
46.2635 -25.1692 44.7149 
66.4096 -65.0896 4.55972 
71.5316 -42.3747 27.5614 
37.9079 -74.9849 28.0351 
-48.5879 38.3741 40.153 
-21.0426 -18.7697 45.1148 
-33.9616 -75.1759 12.0673 
22.9204 -9.79839 -20.1484 
-49.9082 45.9812 27.3273 
4.01763 19.5909 16.994 
3.61266 -59.0309 51.7092 
51.9478 -60.1447 32.9618 
34.6154 -67.2254 45.7615 
52.4535 -34.403 40.5143 
2.73252 -13.4485 -29.3354 
-73.476 21.3334 40.6949 
-53.8696 -76.2427 7.6025 
38.5262 -48.6386 -24.6635 
-53.3799 47.1189 -0.677509 
-69.4762 -2.89118 19.3815 
73.4228 -47.3556 27.8254 
-23.8988 -76.2536 28.5481 
-15.4065 -58.5735 38.9265 
-17.3954 -76.1149 26.5469 
38.2474 5.41371 -11.1035 
51.3186 -50.7524 39.9058 
-26.2479 -43.9114 42.6686 
-46.6913 58.773 -59.8866 
-42.3668 -10.9728 -17.575 
-62.5132 28.7584 50.3884 
-27.2145 -5.30185 43.1038 
46.2333 3.3581 34.0713 
-55.4234 -71.4134 9.12731 
66.0698 -54.9847 -3.65335 
44.4382 8.71697 -1.65264 
-1.76039 57.2487 -18.0029 
40.0888 -13.3299 47.9822 
-58.5244 -1.58255 40.1141 
-7.78411 -30.5556 55.6201 
-62.5928 59.2472 -36.4333 
-13.3293 -76.6361 -27.8961 
-34.326 -60.8887 38.7865 
43.0601 -38.782 45.5156 
23.1856 -71.3647 -5.82775 
5.05738 -32.2816 -36.5459 
-45.3525 -74.2566 20.9818 
-36.4362 34.8187 0.606066 
-67.3665 -10.1214 -2.07891 
32.6241 -13.9025 49.689 
-12.9401 -41.7541 -27.5127 
-71.8651 27.0245 28.2357 
-58.8974 -39.3902 29.4435 
-44.6342 -65.944 43.6702 
9.8652 -32.1269 59.4528 
20.4056 -73.4632 -22.9362 
-45.6431 50.5907 -20.3922 
-10.1835 -75.2089 53.8175 
-24.7137 -62.9215 -11.3051 
-37.6312 -45.6059 -7.41609 
-6.55737 -14.2977 46.5015 
-21.5634 -38.0171 -15.6259 
10.3559 -54.7849 55.0642 
44.0722 -1.75067 39.2419 
-29.8526 -76.6772 6.78808 
56.278 -44.4751 35.1707 
-37.4675 -49.9158 27.1612 
-73.1098 -12.2424 15.8707 
-5.69968 -67.8834 55.5852 
-57.1608 62.681 -34.7889 
23.9283 -35.3578 58.3893 
-35.4162 16.5097 -3.79374 
-45.5461 36.5706 -5.10865 
-29.0314 -1.59039 -17.3175 
32.661 -73.9704 5.36596 
-8.2371 -56.4409 -26.4181 
-54.9545 46.4084 -37.4695 
-32.4792 33.1176 6.36093 
-35.7377 27.5976 28.1373 
-68.5006 40.6722 31.5407 
-64.261 44.2174 26.7022 
-28.5774 60.1017 -1.60683 
-40.6765 -23.1558 45.8478 
16.0603 -28.9765 59.1812 
-37.0973 -14.0845 44.9833 
-69.239 9.09198 50.3917 
-19.51 -46.6289 42.9742 
-26.4697 47.4173 6.59573 
-25.6276 19.0593 10.7031 
3.20756 51.5493 -10.8069 
-64.9468 -36.7108 7.32628 
48.5206 -55.1085 -12.3166 
63.4529 -38.7831 21.8177 
-37.5125 -20.3176 -20.8739 
-67.0294 17.4133 -2.781 
-22.6564 -75.5568 41.1459 
30.3757 -39.7018 -29.9631 
-26.8756 56.4632 -7.85067 
-23.5302 -76.235 -11.9739 
-72.5183 26.7422 13.3093 
-5.08519 -44.52 -34.494 
-29.055 -74.8603 -19.549 
-55.2595 36.6791 -21.9727 
27.3902 1.9196 -17.4088 
-70.6636 20.5561 2.899 
-53.772 62.7657 -36.8573 
43.7512 -65.3664 38.7129 
-37.7368 44.2135 15.9085 
16.5129 -71.5198 23.9328 
-34.7281 8.40409 -12.5448 
6.90131 -51.107 -32.6942 
-35.4924 -54.9444 27.212 
13.0016 7.37072 -13.818 
34.8734 15.2117 28.1359 
24.2408 -64.3406 -24.0206 
52.5517 -34.6825 -12.1038 
-77.2528 9.74836 25.9676 
-42.0432 40.6811 36.3224 
2.40913 -10.4021 -22.1096 
-29.6565 43.2912 10.7757 
18.6181 -75.422 4.92688 
-65.1066 -32.8829 1.10983 
-64.419 11.5597 51.0015 
-72.9204 2.565 36.3994 
-69.3322 -27.1392 8.40422 
1.15138 -33.8962 57.754 
-53.78 56.8842 -47.5835 
-58.2646 44.7562 3.55174 
-48.0667 -26.8588 45.8535 
-36.6362 -70.5329 48.8793 
-58.7081 -42.9679 17.431 
51.78 -15.0385 39.8229 
-74.0856 31.9147 28.5757 
52.2644 -9.43016 -10.4936 
43.5264 -20.0554 -20.9018 
39.3538 -59.3487 -22.1982 
-59.5737 9.57339 -5.73869 
-40.0136 -59.5381 0.26517 
19.3679 -61.8253 -28.4358 
34.1032 13.327 -4.53891 
-12.4699 15.5264 13.762 
30.9772 -46.631 -28.3864 
-66.2087 32.6371 3.62156 
1.69171 -70.6783 41.3624 
-43.085 46.315 5.35802 
31.6488 -31.4893 -28.8565 
39.1056 -61.6977 41.7952 
74.9362 -58.229 13.7877 
-51.7998 29.1802 -6.52149 
16.2542 -10.739 52.2048 
71.0327 -40.1643 4.37446 
-7.14391 -16.4834 -30.6749 
-29.9871 57.0825 3.93178 
-33.5334 -39.6882 40.2785 
41.5922 -75.9445 11.9646 
-38.8474 -30.2519 46.2714 
-12.4628 -21.1591 -29.7528 
71.1835 -62.2596 20.2558 
-42.6295 -51.4207 7.37333 
56.5631 -69.237 25.9162 
-50.3288 -72.2413 15.8923 
55.7437 -28.4322 -11.9802 
-37.8952 2.45381 37.243 
-36.8491 -76.1007 -10.9285 
-62.7526 -27.7166 36.0406 
-13.2085 -54.0583 38.0189 
26.2628 -75.3234 19.5069 
-67.2122 43.9072 14.8936 
16.2456 -40.9017 -32.5478 
-17.3126 -3.60252 -18.435 
-40.3803 -58.0083 5.0231 
-7.61225 8.96594 33.1642 
-52.8949 44.5946 -49.2935 
-20.0021 -21.1671 -22.4169 
13.5399 -51.251 55.2832 
-49.7391 -71.5668 37.8619 
-10.0577 -5.62748 -21.8131 
-14.0219 -76.0565 12.5215 
-27.1435 15.9114 -6.16117 
50.1914 1.37383 -4.28675 
13.8556 -18.5977 -33.7056 
38.9668 -70.4148 -4.90247 
-31.9169 -18.118 -20.0944 
-43.7279 -40.5939 -12.9433 
-13.8083 -67.865 -28.3791 
3.07109 14.0258 32.6938 
56.4829 -71.0529 4.63162 
-57.6742 44.6875 -19.2822 
60.2465 -10.2545 13.5966 
51.4611 -41.8631 -14.7144 
-53.4053 -69.8344 1.34002 
-36.6275 -62.7949 26.1658 
-37.6475 -76.6757 11.4531 
-64.8362 20.5704 53.8561 
-59.1521 37.8285 -8.66068 
-57.7805 3.31051 51.8266 
-0.151366 51.6949 -5.55314 
-74.4393 22.325 9.90876 
37.1098 -62.8682 -19.7098 
-27.2341 -62.6153 41.6976 
-69.3815 -0.879691 14.3485 
-14.3074 -50.6203 -16.7347 
-44.5897 8.10151 42.3621 
-14.8121 -72.1459 33.604 
-13.182 -23.7711 45.3523 
-26.9311 -63.6946 -9.41433 
48.525 -42.5077 42.4285 
-52.9649 -41.5283 -3.75812 
-77.6197 10.1666 17.9598 
-64.5168 40.6658 3.29115 
-40.4816 23.0574 37.8891 
1.66034 76.4457 -22.9169 
-42.1702 -61.9033 6.73016 
77.9862 -43.9455 16.3817 
61.811 -21.3245 0.451591 
-5.6906 72.8791 -9.53158 
-18.4298 -32.3418 -18.0383 
-64.7333 -14.1517 34.8304 
45.2498 11.4846 13.7633 
8.57945 64.3995 -26.0831 
63.6258 -55.0027 33.7272 
-60.5604 -2.036 36.4918 
-73.2917 5.03797 7.85014 
-38.579 -64.8362 -5.08141 
20.8648 21.5852 18.492 
-8.0883 -9.88845 46.1278 
-71.6749 -12.3574 7.85176 
-33.6316 34.7735 13.401 
17.7321 20.2432 2.45206 
3.98723 2.45958 -16.7922 
-45.8397 41.4105 -27.3876 
8.6262 -41.7749 57.3324 
-29.8037 -24.9699 -20.3461 
70.858 -50.3229 -1.15628 
-46.8995 32.9439 40.169 
19.2684 -75.2323 -14.3029 
64.7783 -44.9415 30.3069 
7.76411 57.9251 -18.4198 
-19.3678 -63.6481 42.0495 
13.1129 -71.8536 15.7128 
-7.68176 12.3087 -4.99837 
-26.5585 -72.7659 -24.7197 
-22.8663 9.02897 32.1417 
42.0409 -31.067 50.0674 
70.8012 -36.202 16.6502 
-39.0537 -34.3286 -17.5067 
35.2778 -20.7172 -24.8924 
61.2101 -24.874 26.6765 
30.6163 -75.3115 -18.2373 
-61.0965 61.8287 -37.1152 
58.6522 -7.5199 3.28741 
-53.2035 -48.3353 9.62282 
36.7874 -3.66417 -15.1457 
-51.3066 -65.591 4.84919 
-52.3752 71.2552 -52.987 
-20.8547 -76.4996 10.3613 
-46.5453 -33.8703 42.8238 
-10.2612 -68.7909 55.432 
-49.0509 3.54536 -9.94557 
-38.0738 30.9608 -0.591542 
9.22856 -49.2788 57.8926 
-53.4825 -13.6021 43.5882 
22.589 -63.171 51.4574 
55.4672 -52.2704 -3.83549 
16.9446 15.9301 -5.18477 
53.0734 -53.4702 35.2078 
-2.29431 65.1915 -14.9274 
6.64251 -57.0985 -32.0623 
-75.9201 7.42919 34.8262 
-48.0577 18.1794 -7.26755 
-45.2494 -11.8017 44.3011 
-48.711 15.6266 50.6796 
-45.2859 2.83837 37.9711 
-46.3951 -66.2631 30.5304 
-11.4118 7.00067 -12.255 
12.6503 17.1623 31.3751 
35.855 -14.2351 -21.5432 
19.2871 -2.27393 -18.6692 
68.2942 -48.9544 31.6124 
-49.1318 -67.1006 -0.865303 
-23.1447 -8.33211 42.1893 
-9.10503 -14.359 45.1959 
-54.2169 -30.2896 41.3451 
21.2474 -75.6742 23.2901 
1.64752 -47.0604 55.0192 
-59.5971 3.42579 -3.4916 
-31.8848 24.3157 5.45661 
-65.2282 15.34 53.5461 
-5.34914 -37.2406 53.047 
13.1001 -66.9731 -23.922 
-26.0804 -58.4639 40.6444 
2.34989 -29.3048 -37.8494 
2.72862 -3.75306 44.6341 
-45.1703 -28.7925 -17.7983 
29.335 3.81352 39.7163 
-60.5562 45.214 -15.3774 
-44.7849 30.5018 -4.5026 
-49.4369 44.2366 -1.10869 
-38.8957 27.7027 33.1327 
-7.68391 14.866 20.7718 
41.8558 -7.61272 -16.5766 
-49.3738 -75.4269 33.1072 
63.6325 -68.0696 19.0309 
3 135 242 707 
3 396 287 227 
3 195 141 161 
3 486 557 364 
3 660 154 284 
3 480 243 93 
3 396 227 432 
3 100 225 620 
3 47 324 309 
3 69 381 587 
3 141 233 161 
3 291 339 173 
3 638 446 475 
3 515 148 486 
3 610 423 388 
3 701 188 580 
3 193 491 400 
3 560 714 688 
3 510 226 340 
3 226 730 642 
3 386 362 330 
3 717 568 62 
3 313 225 254 
3 360 133 618 
3 518 159 459 
3 251 439 168 
3 451 729 488 
3 508 217 604 
3 368 484 84 
3 89 624 449 
3 447 128 230 
3 224 77 93 
3 285 649 315 
3 386 371 462 
3 379 551 140 
3 416 105 290 
3 225 646 682 
3 139 457 535 
3 419 578 458 
3 694 261 293 
3 342 291 637 
3 178 616 79 
3 86 645 208 
3 591 360 734 
3 318 397 406 
3 712 366 463 
3 389 53 613 
3 699 570 415 
3 235 561 361 
3 280 623 118 
3 261 500 293 
3 527 151 489 
3 658 499 632 
3 325 562 239 
3 194 331 479 
3 503 701 310 
3 329 192 205 
3 250 550 583 
3 350 629 536 
3 441 324 512 
3 101 220 342 
3 118 184 280 
3 449 63 89 
3 213 653 555 
3 629 350 640 
3 571 467 457 
3 656 413 442 
3 127 348 470 
3 127 470 234 
3 464 495 322 
3 387 384 174 
3 610 388 541 
3 608 250 312 
3 85 436 162 
3 114 671 575 
3 206 490 271 
3 633 131 507 
3 145 361 561 
3 212 145 223 
3 399 523 269 
3 538 85 697 
3 208 645 216 
3 607 382 705 
3 527 299 454 
3 659 170 274 
3 309 324 441 
3 339 493 353 
3 147 614 664 
3 414 691 310 
3 504 157 138 
3 410 272 338 
3 214 267 479 
3 340 240 49 
3 617 318 707 
3 50 336 489 
3 283 218 436 
3 407 263 20 
3 322 620 303 
3 302 720 425 
3 203 492 320 
3 618 289 360 
3 466 665 208 
3 288 406 492 
3 231 404 495 
3 193 400 683 
3 685 644 132 
3 217 508 558 
3 451 488 317 
3 432 612 230 
3 354 258 187 
3 338 698 228 
3 513 584 58 
3 302 134 720 
3 41 356 59 
3 31 363 306 
3 574 31 306 
3 94 369 714 
3 693 431 234 
3 461 152 725 
3 541 300 503 
3 533 637 385 
3 120 473 667 
3 219 524 679 
3 668 710 435 
3 156 65 534 
3 662 245 408 
3 323 197 554 
3 437 362 429 
3 696 544 154 
3 709 180 128 
3 102 310 281 
3 349 510 340 
3 543 498 352 
3 198 722 459 
3 169 203 148 
3 199 70 384 
3 598 218 283 
3 337 421 307 
3 333 392 502 
3 393 129 358 
3 153 371 511 
3 599 209 324 
3 74 449 624 
3 74 0 299 
3 7 233 75 
3 251 262 0 
3 186 681 472 
3 186 31 641 
3 556 553 126 
3 224 10 77 
3 343 700 555 
3 378 4 517 
3 532 507 482 
3 415 79 22 
3 402 154 544 
3 246 80 221 
3 252 125 308 
3 52 24 636 
3 542 177 158 
3 295 268 207 
3 117 374 680 
3 667 473 395 
3 400 590 683 
3 352 498 84 
3 111 163 591 
3 444 163 298 
3 582 254 273 
3 327 695 260 
3 380 463 366 
3 373 240 340 
3 664 88 147 
3 88 193 615 
3 182 7 530 
3 7 609 89 
3 345 556 126 
3 28 649 285 
3 91 273 254 
3 43 524 219 
3 213 548 146 
3 452 632 499 
3 690 9 332 
3 717 62 430 
3 308 179 381 
3 94 702 693 
3 482 507 131 
3 250 583 588 
3 613 53 259 
3 327 260 466 
3 692 716 494 
3 270 21 401 
3 684 535 457 
3 354 566 708 
3 361 474 235 
3 412 705 99 
3 495 563 322 
3 497 679 334 
3 711 622 685 
3 32 449 74 
3 102 718 520 
3 520 423 102 
3 448 483 183 
3 103 574 306 
3 575 151 114 
3 436 104 283 
3 290 311 144 
3 651 410 669 
3 408 157 662 
3 124 319 460 
3 726 107 253 
3 107 305 253 
3 290 331 529 
3 576 584 513 
3 268 296 207 
3 354 57 566 
3 222 202 368 
3 459 110 198 
3 434 289 618 
3 579 216 589 
3 552 337 282 
3 39 218 598 
3 527 328 299 
3 485 113 44 
3 14 75 233 
3 114 151 14 
3 6 380 366 
3 115 6 346 
3 429 277 666 
3 659 274 510 
3 567 316 256 
3 247 269 523 
3 644 602 132 
3 352 367 543 
3 294 700 343 
3 119 448 183 
3 342 637 533 
3 89 63 120 
3 616 178 473 
3 33 347 121 
3 455 223 356 
3 500 336 293 
3 675 204 196 
3 358 401 393 
3 301 164 286 
3 15 124 686 
3 657 492 406 
3 636 24 191 
3 484 239 562 
3 409 28 345 
3 323 257 197 
3 234 18 127 
3 370 391 661 
3 608 550 250 
3 578 538 458 
3 50 293 336 
3 670 223 455 
3 597 425 518 
3 605 236 614 
3 95 648 422 
3 491 291 400 
3 132 602 569 
3 83 680 374 
3 133 307 83 
3 716 443 494 
3 59 134 302 
3 263 407 35 
3 545 135 150 
3 242 656 442 
3 423 520 49 
3 205 137 329 
3 447 230 30 
3 194 479 414 
3 76 47 321 
3 154 660 696 
3 571 20 263 
3 349 68 718 
3 509 29 379 
3 671 282 540 
3 141 552 282 
3 701 142 310 
3 420 403 142 
3 682 611 51 
3 51 303 143 
3 214 418 521 
3 19 144 311 
3 14 151 527 
3 14 527 454 
3 654 60 243 
3 92 146 632 
3 357 224 176 
3 615 677 88 
3 486 148 557 
3 320 24 52 
3 379 29 267 
3 228 628 48 
3 318 54 707 
3 427 107 726 
3 575 104 151 
3 221 152 505 
3 152 461 9 
3 564 12 405 
3 314 209 12 
3 355 672 136 
3 706 672 355 
3 155 497 334 
3 697 458 538 
3 164 301 472 
3 156 534 626 
3 241 408 319 
3 241 417 537 
3 567 630 316 
3 117 25 316 
3 518 425 159 
3 81 438 159 
3 91 43 676 
3 351 435 453 
3 7 161 233 
3 7 182 161 
3 218 162 436 
3 133 586 307 
3 23 298 652 
3 163 111 23 
3 244 681 186 
3 124 377 686 
3 448 371 153 
3 378 165 4 
3 429 166 277 
3 634 18 234 
3 167 313 254 
3 399 695 264 
3 687 496 89 
3 624 89 496 
3 148 70 169 
3 169 70 481 
3 539 274 170 
3 304 11 551 
3 653 348 171 
3 78 343 171 
3 253 495 404 
3 8 469 172 
3 40 271 490 
3 40 173 339 
3 446 232 475 
3 563 172 469 
3 280 705 623 
3 478 390 175 
3 93 690 332 
3 93 176 224 
3 450 426 573 
3 396 432 82 
3 487 473 178 
3 721 546 25 
3 587 514 688 
3 179 516 292 
3 354 708 326 
3 180 440 128 
3 649 61 315 
3 181 234 61 
3 182 120 667 
3 120 182 530 
3 229 103 531 
3 183 629 119 
3 465 685 622 
3 184 592 280 
3 392 185 663 
3 185 392 333 
3 599 324 559 
3 76 244 186 
3 547 313 167 
3 187 57 354 
3 363 188 306 
3 60 568 717 
3 116 274 189 
3 362 437 330 
3 304 519 272 
3 416 108 58 
3 438 636 191 
3 712 191 366 
3 192 477 424 
3 507 532 22 
3 325 522 553 
3 193 383 46 
3 529 576 108 
3 321 47 359 
3 552 141 476 
3 358 129 123 
3 475 419 638 
3 165 625 462 
3 66 197 257 
3 671 540 575 
3 575 3 104 
3 412 99 474 
3 110 26 198 
3 387 199 384 
3 8 305 481 
3 200 184 118 
3 266 200 118 
3 658 394 90 
3 93 77 201 
3 484 28 409 
3 714 369 596 
3 288 492 203 
3 305 107 581 
3 72 502 392 
3 72 196 204 
3 192 95 205 
3 205 95 17 
3 121 673 385 
3 271 121 206 
3 207 296 621 
3 426 450 13 
3 216 579 208 
3 466 208 2 
3 511 371 386 
3 324 209 512 
3 292 516 702 
3 380 36 516 
3 251 0 439 
3 211 0 74 
3 722 198 631 
3 130 670 455 
3 653 213 92 
3 213 146 92 
3 479 331 214 
3 468 418 214 
3 54 318 406 
3 107 427 215 
3 351 453 216 
3 23 111 216 
3 106 460 319 
3 245 217 106 
3 162 218 71 
3 39 71 218 
3 219 668 43 
3 458 697 497 
3 220 655 342 
3 132 711 685 
3 372 154 402 
3 608 312 601 
3 110 585 222 
3 69 587 222 
3 27 223 145 
3 27 689 223 
3 383 224 46 
3 224 357 46 
3 100 524 225 
3 91 254 225 
3 340 226 373 
3 346 6 226 
3 477 227 424 
3 30 230 612 
3 551 519 304 
3 551 297 519 
3 31 574 641 
3 405 12 229 
3 230 128 98 
3 109 230 98 
3 303 464 322 
3 231 545 404 
3 433 37 469 
3 174 204 675 
3 114 233 671 
3 635 233 114 
3 36 594 234 
3 704 115 634 
3 607 485 382 
3 99 235 474 
3 339 398 493 
3 422 648 236 
3 727 301 619 
3 186 237 344 
3 611 258 565 
3 238 732 684 
3 409 239 484 
3 522 126 553 
3 366 397 603 
3 240 87 49 
3 241 317 488 
3 157 408 241 
3 87 617 731 
3 242 442 731 
3 243 480 34 
3 34 654 243 
3 537 56 501 
3 56 537 417 
3 420 534 65 
3 245 604 217 
3 246 221 505 
3 541 9 300 
3 247 630 567 
3 247 53 389 
3 627 248 348 
3 378 517 554 
3 694 249 261 
3 270 249 21 
3 250 605 312 
3 250 588 17 
3 89 609 687 
3 456 335 75 
3 125 252 159 
3 69 159 252 
3 172 253 8 
3 305 8 253 
3 167 254 42 
3 42 254 582 
3 720 134 255 
3 148 52 255 
3 426 177 573 
3 426 158 177 
3 166 703 18 
3 257 323 18 
3 225 682 143 
3 143 682 51 
3 618 96 434 
3 96 259 327 
3 42 582 260 
3 665 86 208 
3 443 134 59 
3 261 59 122 
3 14 456 75 
3 454 456 14 
3 611 467 51 
3 650 263 35 
3 327 259 53 
3 53 247 523 
3 85 265 436 
3 265 445 50 
3 266 590 400 
3 16 266 367 
3 48 628 521 
3 418 48 521 
3 708 566 678 
3 577 109 268 
3 247 567 269 
3 269 13 450 
3 428 72 392 
3 692 494 606 
3 633 507 271 
3 271 79 121 
3 304 272 647 
3 190 272 410 
3 160 676 43 
3 160 86 273 
3 549 189 274 
3 45 274 539 
3 163 444 275 
3 85 162 275 
3 67 544 411 
3 180 709 67 
3 642 730 277 
3 116 189 277 
3 150 135 278 
3 150 278 427 
3 101 63 449 
3 101 279 220 
3 175 280 478 
3 592 478 280 
3 691 281 310 
3 509 281 29 
3 283 715 598 
3 112 282 337 
3 715 283 540 
3 283 104 3 
3 731 442 572 
3 136 284 355 
3 452 499 285 
3 285 90 28 
3 286 124 460 
3 377 124 286 
3 424 227 287 
3 542 570 699 
3 107 215 724 
3 203 107 288 
3 589 216 111 
3 360 289 734 
3 108 290 529 
3 108 416 290 
3 291 342 655 
3 569 291 655 
3 560 688 514 
3 94 292 702 
3 445 293 50 
3 129 393 293 
3 146 548 640 
3 119 294 448 
3 207 528 295 
3 295 82 432 
3 313 547 593 
3 57 296 566 
3 297 551 379 
3 228 297 628 
3 219 64 668 
3 444 298 64 
3 733 74 299 
3 113 299 44 
3 300 9 690 
3 188 701 62 
3 558 508 301 
3 508 619 301 
3 130 455 597 
3 59 302 41 
3 650 35 303 
3 303 35 464 
3 58 584 304 
3 304 647 58 
3 169 481 305 
3 581 169 305 
3 103 526 536 
3 60 526 188 
3 586 71 307 
3 71 506 307 
3 210 380 516 
3 125 210 308 
3 45 539 309 
3 11 304 584 
3 728 310 142 
3 414 310 728 
3 410 643 190 
3 290 105 311 
3 152 614 525 
3 221 312 152 
3 313 646 225 
3 593 646 313 
3 564 405 483 
3 511 314 153 
3 315 452 285 
3 92 315 653 
3 546 721 570 
3 256 316 158 
3 501 244 537 
3 317 244 451 
3 397 318 603 
3 603 318 617 
3 15 241 319 
3 15 319 124 
3 148 203 320 
3 320 52 148 
3 414 504 138 
3 451 321 729 
3 322 334 100 
3 100 620 322 
3 627 323 248 
3 323 127 18 
3 76 324 47 
3 559 324 76 
3 683 325 193 
3 193 325 639 
3 684 732 326 
3 440 180 326 
3 695 327 264 
3 327 53 264 
3 235 44 561 
3 328 44 299 
3 477 30 227 
3 137 30 329 
3 73 330 441 
3 274 45 549 
3 34 201 658 
3 77 658 201 
3 214 331 468 
3 144 331 290 
3 461 332 9 
3 176 93 332 
3 185 333 515 
3 384 70 333 
3 334 446 155 
3 563 469 37 
3 168 687 251 
3 335 262 251 
3 489 27 527 
3 336 500 27 
3 489 104 50 
3 307 39 337 
3 39 112 337 
3 410 338 669 
3 228 48 338 
3 339 291 491 
3 88 398 339 
3 520 340 49 
3 68 349 340 
3 562 325 683 
3 16 84 341 
3 595 101 342 
3 533 63 342 
3 294 343 4 
3 78 4 343 
3 626 344 156 
3 31 186 344 
3 394 345 90 
3 90 345 28 
3 634 115 346 
3 642 277 166 
3 673 120 385 
3 33 120 347 
3 78 348 248 
3 348 78 171 
3 349 281 509 
3 659 510 349 
3 146 654 34 
3 350 146 640 
3 160 645 86 
3 160 435 351 
3 367 352 16 
3 84 16 352 
3 339 353 40 
3 353 271 40 
3 354 565 258 
3 354 326 732 
3 154 372 355 
3 355 284 154 
3 223 689 356 
3 59 356 122 
3 725 152 525 
3 725 677 46 
3 72 358 196 
3 358 123 196 
3 194 529 331 
3 321 359 194 
3 133 360 586 
3 162 360 591 
3 670 722 631 
3 212 361 145 
3 386 462 362 
3 66 429 362 
3 142 534 420 
3 188 363 580 
3 663 716 692 
3 716 364 557 
3 12 559 641 
3 365 229 12 
3 366 674 6 
3 366 603 674 
3 367 266 118 
3 118 543 367 
3 498 368 84 
3 222 368 110 
3 649 181 61 
3 94 181 369 
3 370 709 128 
3 661 276 370 
3 165 371 448 
3 462 371 165 
3 38 601 372 
3 221 80 706 
3 674 373 6 
3 226 6 373 
3 389 133 374 
3 374 133 83 
3 283 3 375 
3 575 375 3 
3 207 573 528 
3 82 376 600 
3 377 286 164 
3 164 472 377 
3 719 625 165 
3 554 197 719 
3 149 379 267 
3 149 297 379 
3 594 380 6 
3 380 594 36 
3 69 252 381 
3 252 308 381 
3 99 705 382 
3 99 382 485 
3 639 325 10 
3 224 383 10 
3 502 384 333 
3 204 174 384 
3 206 121 385 
3 385 637 206 
3 386 330 73 
3 386 73 511 
3 174 8 387 
3 481 387 8 
3 388 423 80 
3 80 246 388 
3 117 316 630 
3 374 117 389 
3 390 607 705 
3 733 299 113 
3 608 391 550 
3 128 391 370 
3 392 663 97 
3 97 428 392 
3 694 293 393 
3 21 393 401 
3 556 77 553 
3 77 394 658 
3 473 487 395 
3 395 680 83 
3 287 600 177 
3 376 177 600 
3 366 191 397 
3 191 713 397 
3 398 88 664 
3 236 493 398 
3 399 269 621 
3 399 167 42 
3 55 400 291 
3 266 400 55 
3 358 72 401 
3 428 401 72 
3 402 391 38 
3 402 38 372 
3 662 157 504 
3 403 1 142 
3 427 726 150 
3 545 150 404 
3 229 531 405 
3 405 183 483 
3 54 406 215 
3 724 215 406 
3 656 242 135 
3 407 135 545 
3 106 319 408 
3 408 245 106 
3 345 126 409 
3 522 409 126 
3 410 651 311 
3 410 311 105 
3 411 20 571 
3 139 67 411 
3 118 623 543 
3 474 26 412 
3 660 20 411 
3 413 407 20 
3 321 194 414 
3 414 138 321 
3 570 721 415 
3 178 79 415 
3 643 416 190 
3 190 416 58 
3 417 15 686 
3 241 15 417 
3 418 651 669 
3 19 418 468 
3 123 578 419 
3 196 123 419 
3 662 420 245 
3 65 245 420 
3 307 421 83 
3 476 83 421 
3 422 236 605 
3 17 95 422 
3 572 423 49 
3 423 136 80 
3 542 22 424 
3 424 22 532 
3 471 636 425 
3 81 159 425 
3 13 256 426 
3 256 158 426 
3 54 215 427 
3 278 54 427 
3 428 270 401 
3 428 97 270 
3 703 166 429 
3 66 257 429 
3 93 243 430 
3 93 430 690 
3 234 431 36 
3 36 431 516 
3 230 109 432 
3 432 109 577 
3 174 675 433 
3 232 37 433 
3 96 2 434 
3 434 2 289 
3 43 668 435 
3 43 435 160 
3 436 50 104 
3 436 265 50 
3 666 277 189 
3 549 437 189 
3 438 191 712 
3 159 438 125 
3 74 624 211 
3 439 0 211 
3 98 128 440 
3 326 98 440 
3 441 45 309 
3 441 330 45 
3 489 151 104 
3 442 413 284 
3 572 442 284 
3 59 261 443 
3 261 249 443 
3 444 697 85 
3 275 444 85 
3 538 578 445 
3 293 445 129 
3 334 37 446 
3 446 37 232 
3 550 447 583 
3 30 137 447 
3 165 448 4 
3 294 4 448 
3 449 279 101 
3 32 279 449 
3 621 450 207 
3 573 207 450 
3 244 76 451 
3 451 76 321 
3 92 632 452 
3 92 452 315 
3 710 298 23 
3 453 23 216 
3 299 0 454 
3 0 262 454 
3 597 455 41 
3 41 455 356 
3 456 262 335 
3 456 454 262 
3 467 238 457 
3 684 457 238 
3 638 419 458 
3 458 497 155 
3 110 459 585 
3 159 69 459 
3 558 460 217 
3 217 460 106 
3 461 357 176 
3 176 332 461 
3 66 462 625 
3 462 66 362 
3 125 463 210 
3 463 380 210 
3 231 495 464 
3 464 35 231 
3 184 465 32 
3 465 279 32 
3 96 466 2 
3 327 466 96 
3 467 571 263 
3 467 263 650 
3 468 331 144 
3 19 468 144 
3 433 469 174 
3 8 174 469 
3 315 61 653 
3 234 470 61 
3 636 471 52 
3 471 255 52 
3 472 301 727 
3 186 472 237 
3 33 616 473 
3 473 120 33 
3 474 198 26 
3 474 631 198 
3 419 475 196 
3 475 232 196 
3 476 141 195 
3 476 195 83 
3 477 723 30 
3 192 329 477 
3 478 74 733 
3 478 32 74 
3 691 414 479 
3 479 267 29 
3 201 34 480 
3 480 93 201 
3 70 199 481 
3 199 387 481 
3 482 131 95 
3 482 95 532 
3 483 448 153 
3 564 483 153 
3 484 202 596 
3 368 202 484 
3 235 485 44 
3 99 485 235 
3 486 364 185 
3 185 515 486 
3 487 721 25 
3 395 487 25 
3 157 488 138 
3 157 241 488 
3 489 336 27 
3 637 291 173 
3 173 40 490 
3 491 193 88 
3 339 491 88 
3 713 492 657 
3 492 24 320 
3 648 493 236 
3 353 493 131 
3 249 270 494 
3 494 443 249 
3 563 495 172 
3 495 253 172 
3 496 168 439 
3 168 496 687 
3 219 679 497 
3 64 219 497 
3 498 110 368 
3 498 26 110 
3 90 499 658 
3 499 90 285 
3 689 27 500 
3 500 261 122 
3 377 681 56 
3 472 681 377 
3 384 502 204 
3 502 72 204 
3 610 102 423 
3 102 503 310 
3 504 414 728 
3 403 504 1 
3 9 505 152 
3 9 541 505 
3 506 39 307 
3 39 506 71 
3 79 507 22 
3 507 79 271 
3 508 156 619 
3 156 508 604 
3 509 379 140 
3 140 349 509 
3 730 226 510 
3 116 510 274 
3 511 209 314 
3 512 209 511 
3 512 73 441 
3 73 512 511 
3 513 58 108 
3 513 108 576 
3 560 514 292 
3 514 179 292 
3 70 148 515 
3 515 333 70 
3 516 179 308 
3 308 210 516 
3 517 4 78 
3 78 248 517 
3 722 518 459 
3 597 518 130 
3 228 698 519 
3 297 228 519 
3 68 520 718 
3 68 340 520 
3 214 521 267 
3 267 521 628 
3 325 239 522 
3 522 239 409 
3 264 523 399 
3 264 53 523 
3 524 91 225 
3 91 524 43 
3 525 614 147 
3 525 147 725 
3 188 526 306 
3 103 306 526 
3 27 145 527 
3 527 145 328 
3 528 376 82 
3 528 82 295 
3 194 359 529 
3 576 529 359 
3 530 89 120 
3 530 7 89 
3 183 405 531 
3 531 629 183 
3 532 95 192 
3 532 192 424 
3 63 533 120 
3 533 385 120 
3 363 534 142 
3 363 626 534 
3 535 67 139 
3 180 67 535 
3 536 526 60 
3 60 350 536 
3 241 537 317 
3 537 244 317 
3 538 265 85 
3 445 265 538 
3 11 309 539 
3 170 11 539 
3 575 540 375 
3 283 375 540 
3 388 246 541 
3 505 541 246 
3 177 542 287 
3 424 287 542 
3 26 498 543 
3 26 543 623 
3 276 661 544 
3 544 67 276 
3 231 35 545 
3 35 407 545 
3 546 316 25 
3 158 316 546 
3 296 593 547 
3 621 296 547 
3 119 548 294 
3 548 213 294 
3 330 437 549 
3 549 45 330 
3 450 621 269 
3 447 550 128 
3 391 128 550 
3 170 551 11 
3 551 170 659 
3 337 552 421 
3 552 476 421 
3 553 10 325 
3 553 77 10 
3 323 554 248 
3 248 554 517 
3 171 555 653 
3 555 171 343 
3 394 77 556 
3 394 556 345 
3 557 148 255 
3 255 716 557 
3 558 301 286 
3 460 558 286 
3 186 559 76 
3 641 559 186 
3 94 714 560 
3 560 292 94 
3 328 561 44 
3 561 328 145 
3 484 562 84 
3 562 341 84 
3 37 334 563 
3 563 334 322 
3 564 314 12 
3 153 314 564 
3 565 354 732 
3 611 565 5 
3 296 268 566 
3 566 268 678 
3 567 256 13 
3 567 13 269 
3 188 62 568 
3 60 188 568 
3 569 602 55 
3 569 55 291 
3 570 542 158 
3 546 570 158 
3 571 457 139 
3 139 411 571 
3 572 284 136 
3 572 136 423 
3 573 177 376 
3 573 376 528 
3 229 641 574 
3 103 229 574 
3 576 47 309 
3 47 576 359 
3 295 577 268 
3 295 432 577 
3 129 578 123 
3 445 578 129 
3 579 289 2 
3 208 579 2 
3 142 701 580 
3 363 142 580 
3 203 169 581 
3 107 203 581 
3 86 582 273 
3 582 86 665 
3 583 137 205 
3 447 137 583 
3 309 11 584 
3 309 584 576 
3 459 69 585 
3 585 69 222 
3 162 586 360 
3 71 586 162 
3 381 179 587 
3 179 514 587 
3 588 205 17 
3 583 205 588 
3 589 289 579 
3 734 289 589 
3 16 590 266 
3 341 590 16 
3 591 163 275 
3 275 162 591 
3 478 592 32 
3 32 592 184 
3 57 187 593 
3 57 593 296 
3 594 115 704 
3 115 594 6 
3 595 63 101 
3 63 595 342 
3 28 484 596 
3 596 369 28 
3 302 425 597 
3 302 597 41 
3 667 195 182 
3 161 182 195 
3 39 598 112 
3 112 598 715 
3 559 12 599 
3 209 599 12 
3 396 82 600 
3 287 396 600 
3 601 312 221 
3 372 601 221 
3 266 602 200 
3 266 55 602 
3 87 674 603 
3 603 617 87 
3 65 156 604 
3 604 245 65 
3 250 17 605 
3 17 422 605 
3 606 270 97 
3 606 494 270 
3 113 485 607 
3 607 390 113 
3 608 38 391 
3 601 38 608 
3 7 75 609 
3 335 609 75 
3 503 102 610 
3 610 541 503 
3 238 611 5 
3 238 467 611 
3 432 227 612 
3 30 612 227 
3 613 259 133 
3 133 389 613 
3 614 312 605 
3 152 312 614 
3 46 615 193 
3 677 615 46 
3 79 616 121 
3 33 121 616 
3 617 242 731 
3 707 242 617 
3 618 259 96 
3 133 259 618 
3 344 619 156 
3 344 727 619 
3 620 143 303 
3 225 143 620 
3 167 399 621 
3 167 621 547 
3 465 622 279 
3 711 279 622 
3 412 623 705 
3 412 26 623 
3 496 439 624 
3 211 624 439 
3 625 719 197 
3 197 66 625 
3 31 626 363 
3 31 344 626 
3 348 127 627 
3 127 323 627 
3 149 628 297 
3 628 149 267 
3 629 531 103 
3 103 536 629 
3 389 630 247 
3 630 389 117 
3 631 474 361 
3 631 361 670 
3 34 658 632 
3 146 34 632 
3 353 131 633 
3 633 271 353 
3 18 634 166 
3 634 346 166 
3 14 233 635 
3 114 14 635 
3 636 438 81 
3 425 636 81 
3 490 206 637 
3 637 173 490 
3 155 446 638 
3 458 155 638 
3 10 383 639 
3 383 193 639 
3 629 640 119 
3 119 640 548 
3 365 12 641 
3 641 229 365 
3 642 166 346 
3 226 642 346 
3 105 416 643 
3 643 410 105 
3 200 644 184 
3 644 200 602 
3 351 645 160 
3 216 645 351 
3 646 187 258 
3 187 646 593 
3 647 272 190 
3 647 190 58 
3 131 648 95 
3 648 131 493 
3 649 369 181 
3 28 369 649 
3 650 51 467 
3 51 650 303 
3 651 19 311 
3 19 651 418 
3 23 652 163 
3 652 298 163 
3 470 348 653 
3 653 61 470 
3 350 60 654 
3 350 654 146 
3 132 569 655 
3 655 220 132 
3 656 135 407 
3 413 656 407 
3 657 406 397 
3 713 657 397 
3 140 551 659 
3 349 140 659 
3 660 413 20 
3 413 660 284 
3 544 661 402 
3 661 391 402 
3 662 403 420 
3 662 504 403 
3 663 185 364 
3 364 716 663 
3 236 664 614 
3 664 236 398 
3 665 260 582 
3 260 665 466 
3 429 666 437 
3 437 666 189 
3 83 667 395 
3 83 195 667 
3 298 668 64 
3 710 668 298 
3 48 669 338 
3 48 418 669 
3 212 670 361 
3 223 670 212 
3 141 671 233 
3 282 671 141 
3 136 672 80 
3 80 672 706 
3 673 121 347 
3 673 347 120 
3 674 87 240 
3 373 674 240 
3 232 433 675 
3 675 196 232 
3 91 676 273 
3 676 160 273 
3 88 677 147 
3 147 677 725 
3 109 98 678 
3 109 678 268 
3 100 679 524 
3 334 679 100 
3 25 117 680 
3 680 395 25 
3 681 501 56 
3 681 244 501 
3 682 646 258 
3 611 682 258 
3 683 341 562 
3 341 683 590 
3 180 535 684 
3 684 326 180 
3 184 644 685 
3 465 184 685 
3 417 686 56 
3 686 377 56 
3 335 251 687 
3 609 335 687 
3 587 688 222 
3 688 202 222 
3 500 122 689 
3 689 122 356 
3 300 690 62 
3 430 62 690 
3 281 691 29 
3 29 691 479 
3 692 97 663 
3 692 606 97 
3 693 234 181 
3 693 181 94 
3 694 393 21 
3 21 249 694 
3 260 695 42 
3 695 399 42 
3 696 411 544 
3 660 411 696 
3 64 697 444 
3 497 697 64 
3 519 698 272 
3 272 698 338 
3 699 415 22 
3 22 542 699 
3 700 213 555 
3 294 213 700 
3 701 503 300 
3 701 300 62 
3 431 693 702 
3 702 516 431 
3 18 703 257 
3 429 257 703 
3 634 234 704 
3 594 704 234 
3 280 175 705 
3 390 705 175 
3 706 372 221 
3 355 372 706 
3 278 707 54 
3 135 707 278 
3 98 708 678 
3 98 326 708 
3 276 67 709 
3 370 276 709 
3 453 710 23 
3 453 435 710 
3 132 220 711 
3 711 220 279 
3 712 463 125 
3 438 712 125 
3 24 492 713 
3 24 713 191 
3 714 202 688 
3 714 596 202 
3 715 282 112 
3 282 715 540 
3 716 255 134 
3 134 443 716 
3 717 243 60 
3 243 717 430 
3 349 718 281 
3 102 281 718 
3 378 554 719 
3 719 165 378 
3 720 255 471 
3 471 425 720 
3 487 178 721 
3 721 178 415 
3 670 130 722 
3 518 722 130 
3 477 329 723 
3 30 723 329 
3 724 288 107 
3 724 406 288 
3 461 725 357 
3 357 725 46 
3 404 726 253 
3 726 404 150 
3 472 727 237 
3 344 237 727 
3 142 1 728 
3 1 504 728 
3 729 138 488 
3 138 729 321 
3 116 730 510 
3 116 277 730 
3 572 49 731 
3 87 731 49 
3 5 565 732 
3 732 238 5 
3 733 113 390 
3 390 478 733 
3 111 734 589 
3 591 734 111 
