ply
format ascii 1.0
comment Created by Blender 2.82 (sub 7) - www.blender.org, source file: 'person.blend'
element vertex 96
property float x
property float y
property float z
property float nx
property float ny
property float nz
element face 188
property list uchar uint vertex_indices
end_header
0.135649 -0.432673 -0.733846 0.141209 -0.226936 -0.963591
-0.059044 -0.747154 -0.579323 -0.697501 -0.404340 -0.591571
-0.124586 -0.174736 -0.854934 -0.621265 -0.081545 -0.779321
0.335164 0.126205 -0.718863 0.602924 0.311411 -0.734489
-0.073029 0.488469 -0.852341 -0.386425 0.636738 -0.667226
0.279371 0.060791 0.801112 0.578997 0.298715 0.758599
-0.225511 -0.214069 1.015416 -0.636433 -0.026948 0.770837
0.075768 -0.466608 0.882107 0.230110 -0.137028 0.963439
-0.111822 -0.771738 0.798018 -0.627796 -0.457472 0.629719
0.115737 0.820065 0.116922 -0.157384 0.987182 0.026002
0.627234 0.269872 0.131331 0.808039 0.580370 0.101047
-0.211261 0.570665 0.934854 -0.487381 0.671773 0.557787
5.465887 -4.511752 0.767975 0.166295 0.580126 0.797327
5.414084 -4.787755 0.748729 -0.047212 -0.130192 0.990356
5.488674 -4.752254 0.772401 0.295297 -0.403424 0.866024
4.976041 -4.421285 0.567446 0.257332 0.702109 0.663900
5.025042 -4.439102 0.342425 0.482437 0.650746 -0.586291
5.602815 -4.515868 0.635010 0.780694 0.624561 0.020569
5.629274 -4.754274 0.626981 0.869869 -0.481491 0.107181
5.507030 -4.779178 0.402818 0.636006 0.183020 -0.749657
4.573045 -4.747961 0.624085 -0.264626 -0.231727 0.936064
4.338070 -4.701464 0.522757 -0.500534 -0.592883 0.630787
4.484351 -4.884642 0.500157 -0.704794 -0.542283 0.457320
4.341508 -4.776633 0.311041 -0.586901 -0.780541 -0.215094
4.523375 -4.913845 0.272403 -0.612262 -0.573870 -0.543809
4.439363 -4.679503 0.137651 -0.172033 -0.478439 -0.861080
4.644878 -4.814878 0.177685 -0.027284 -0.275369 -0.960936
4.577059 -4.466595 0.097146 0.324351 0.001923 -0.945921
4.815079 -4.627009 0.193843 0.352336 0.058168 -0.934049
4.743250 -4.561801 0.642152 0.077761 0.096530 0.992279
4.432606 -4.498733 0.640915 -0.105502 -0.118473 0.987304
4.570342 -4.285925 0.600644 0.262673 0.394574 0.880490
4.677251 -4.186187 0.427200 0.604114 0.764855 0.223670
4.681137 -4.260068 0.215384 0.598437 0.492996 -0.631489
5.252892 -5.073395 0.309573 0.348949 -0.051241 -0.935728
4.971698 -5.311615 0.237493 0.173101 -0.137577 -0.975219
5.672612 -5.361696 0.571714 0.748131 -0.619739 -0.236976
5.491075 -5.543022 0.525144 0.711386 -0.657643 -0.247749
5.134509 -5.861636 0.428724 0.105045 -0.925047 -0.364940
4.812947 -5.391121 0.245804 -0.472793 -0.412732 -0.778497
5.733965 -5.114811 0.776027 0.581805 0.097232 0.807459
5.032779 -5.806496 0.595316 -0.356792 -0.745811 0.562517
4.726857 -5.397875 0.588194 -0.665395 -0.352123 0.658193
5.168626 -5.074909 0.637071 -0.210364 -0.046846 0.976470
4.888433 -5.315097 0.573642 -0.108310 -0.003937 0.994079
5.566269 -5.301015 0.735158 0.181066 -0.403088 0.897031
5.384733 -5.482342 0.688588 0.155889 -0.392041 0.906613
5.192859 -5.671081 0.637083 0.146428 -0.428236 0.891690
2.575127 -2.100322 0.163855 0.500137 0.857509 0.120396
2.563671 -2.401062 0.531197 0.380657 0.493088 0.782250
2.763074 -2.223048 0.170903 0.601978 0.782830 0.157323
1.880189 -2.975664 0.613112 -0.495712 -0.469436 0.730674
1.604699 -2.962808 0.197724 -0.784051 -0.619068 0.044343
1.742508 -3.113835 0.187349 -0.675710 -0.736320 0.035035
1.956581 -1.977801 0.526627 0.432844 0.444533 0.784204
2.375922 -2.008037 0.159625 0.534654 0.840449 0.087954
1.536980 -2.594176 0.542816 -0.531907 -0.466445 0.706717
1.456442 -2.744930 0.207882 -0.761315 -0.644429 0.071108
2.044794 -2.610305 -0.486314 -0.064730 -0.116001 -0.991119
1.518042 -2.594354 -0.277206 -0.531938 -0.598834 -0.598651
1.815173 -2.371266 -0.523613 0.015870 -0.173864 -0.984619
1.929334 -3.095606 -0.214122 -0.511124 -0.609851 -0.605640
2.228539 -2.797032 -0.487281 -0.085025 -0.142613 -0.986114
2.238291 -2.044593 -0.301802 0.532548 0.528489 -0.661092
2.550138 -2.258694 -0.291804 0.398694 0.607562 -0.686911
2.762968 -2.426728 -0.320670 0.439589 0.523270 -0.730003
1.741892 -2.893254 -0.209988 -0.595233 -0.540819 -0.594256
2.145035 -2.751154 0.748649 -0.036805 0.017029 0.999176
0.957366 -2.086906 -0.339993 -0.577044 -0.601550 -0.552355
0.503247 -1.025534 -0.616597 -0.080996 -0.197668 -0.976897
1.301143 -1.861338 -0.633070 -0.055177 -0.151677 -0.986877
0.961984 -0.659586 -0.436211 0.635182 0.397870 -0.661977
1.685273 -1.442602 -0.432552 0.604541 0.484542 -0.632221
0.051729 -1.263914 0.171416 -0.801447 -0.588824 0.104526
0.153692 -1.171163 -0.346121 -0.644887 -0.576373 -0.501877
0.898427 -2.203691 0.186185 -0.710471 -0.696402 0.101047
0.204230 -1.140289 0.588207 -0.542192 -0.597552 0.590655
1.274665 -1.867729 0.754061 0.024842 -0.061037 0.997803
0.859608 -0.788355 0.604166 0.531571 0.328806 0.780541
0.511481 -1.045228 0.753794 0.001770 -0.141362 0.989929
1.669934 -2.281261 0.685500 -0.006165 -0.039399 0.999176
1.570679 -1.574052 0.600526 0.501602 0.399030 0.767541
1.057893 -2.052066 0.635852 -0.473220 -0.486648 0.734275
1.038683 -0.583783 0.185164 0.815546 0.538530 0.211676
1.749369 -1.420024 0.186612 0.727287 0.651418 0.215979
-0.108769 -1.005471 0.125520 -0.936460 -0.350658 -0.005737
3.144220 -3.421051 -0.381635 0.081912 -0.191107 -0.978118
2.760581 -3.702266 -0.154662 -0.366771 -0.671346 -0.644002
3.447435 -3.036758 -0.248392 0.543779 0.416364 -0.728629
2.763698 -3.877637 0.234587 -0.543748 -0.839045 -0.017060
2.842823 -3.788372 0.576405 -0.411389 -0.604236 0.682363
3.119383 -3.548717 0.713583 0.005005 -0.044527 0.998993
3.458396 -3.201262 0.549282 0.403607 0.459792 0.790979
3.633809 -3.017227 0.160351 0.704794 0.703574 0.090365
5.835697 -5.169953 0.609434 0.984863 -0.101932 -0.139958
5.299199 -5.731762 0.473640 0.678091 -0.689962 -0.253182
3 0 1 2
3 3 2 4
3 5 6 7
3 8 7 6
3 3 9 10
3 5 9 11
3 12 13 14
3 15 13 12
3 16 12 17
3 15 12 16
3 18 13 19
3 14 13 18
3 17 19 16
3 18 19 17
3 20 21 22
3 22 23 24
3 24 25 26
3 26 27 28
3 29 30 20
3 15 31 29
3 16 32 15
3 28 33 16
3 16 34 28
3 34 26 28
3 35 24 26
3 19 36 34
3 34 36 37
3 37 35 34
3 35 38 39
3 40 19 13
3 41 39 38
3 42 24 39
3 43 15 29
3 43 20 44
3 44 22 42
3 45 13 43
3 46 45 43
3 46 44 47
3 41 44 42
3 48 49 50
3 51 52 53
3 54 48 55
3 52 56 57
3 58 59 60
3 61 58 62
3 58 63 64
3 62 64 65
3 66 57 59
3 53 66 61
3 54 67 49
3 67 56 51
3 64 55 48
3 50 64 48
3 68 69 70
3 59 70 60
3 70 71 72
3 60 72 63
3 68 73 74
3 59 75 68
3 75 76 73
3 56 75 57
3 77 78 79
3 80 81 77
3 82 79 76
3 80 82 56
3 72 83 84
3 63 84 55
3 84 78 81
3 54 84 81
3 69 1 0
3 71 0 3
3 74 85 1
3 76 85 73
3 78 7 79
3 79 8 76
3 71 10 83
3 83 5 78
3 86 25 87
3 33 86 88
3 25 89 87
3 89 21 90
3 91 31 92
3 21 91 90
3 93 33 88
3 92 32 93
3 62 87 61
3 65 86 62
3 53 87 89
3 89 51 53
3 91 49 67
3 90 67 51
3 50 88 65
3 92 50 49
3 6 11 9
3 3 0 2
3 5 11 6
3 3 4 9
3 5 10 9
3 20 30 21
3 22 21 23
3 24 23 25
3 26 25 27
3 29 31 30
3 15 32 31
3 16 33 32
3 28 27 33
3 16 19 34
3 34 35 26
3 35 39 24
3 19 94 36
3 37 95 35
3 35 95 38
3 40 94 19
3 41 42 39
3 42 22 24
3 43 13 15
3 43 29 20
3 44 20 22
3 45 40 13
3 46 43 44
3 41 47 44
3 48 54 49
3 51 56 52
3 58 66 59
3 61 66 58
3 58 60 63
3 62 58 64
3 66 52 57
3 53 52 66
3 54 80 67
3 67 80 56
3 64 63 55
3 50 65 64
3 68 74 69
3 59 68 70
3 70 69 71
3 60 70 72
3 68 75 73
3 59 57 75
3 75 82 76
3 56 82 75
3 77 81 78
3 80 54 81
3 82 77 79
3 80 77 82
3 72 71 83
3 63 72 84
3 84 83 78
3 54 55 84
3 69 74 1
3 71 69 0
3 74 73 85
3 76 8 85
3 78 5 7
3 79 7 8
3 71 3 10
3 83 10 5
3 86 27 25
3 33 27 86
3 25 23 89
3 89 23 21
3 91 30 31
3 21 30 91
3 93 32 33
3 92 31 32
3 62 86 87
3 65 88 86
3 53 61 87
3 89 90 51
3 91 92 49
3 90 91 67
3 50 93 88
3 92 93 50
3 4 2 9
3 2 1 85
3 9 2 85
3 85 8 6
3 9 85 6
3 14 17 12
3 14 18 17
3 47 41 38
3 36 94 45
3 94 40 45
3 45 46 37
3 46 47 95
3 37 46 95
3 38 95 47
3 37 36 45
