ply
format ascii 1.0
comment Created by Blender 2.82 (sub 7) - www.blender.org, source file: 'person.blend'
element vertex 96
property float x
property float y
property float z
property float nx
property float ny
property float nz
element face 188
property list uchar uint vertex_indices
end_header
-1.951264 1.854382 -0.899430 0.141209 -0.226936 -0.963591
-2.145957 1.539901 -0.744908 -0.697501 -0.404340 -0.591571
-2.211499 2.112319 -1.020519 -0.621265 -0.081545 -0.779321
-1.751750 2.413260 -0.884447 0.602924 0.311411 -0.734489
-2.159942 2.775524 -1.017926 -0.386425 0.636738 -0.667226
-1.807542 2.347846 0.635528 0.578997 0.298715 0.758599
-2.312424 2.072986 0.849831 -0.636433 -0.026948 0.770837
-2.011145 1.820447 0.716522 0.230110 -0.137028 0.963439
-2.198735 1.515317 0.632433 -0.627796 -0.457472 0.629719
-1.971176 3.107120 -0.048662 -0.157384 0.987182 0.026002
-1.459679 2.556927 -0.034254 0.808039 0.580370 0.101047
-2.298174 2.857720 0.769269 -0.487381 0.671773 0.557787
3.378974 -2.224697 0.602391 0.166295 0.580126 0.797327
3.327171 -2.500700 0.583144 -0.047212 -0.130222 0.990356
3.401761 -2.465199 0.606817 0.295297 -0.403424 0.866024
2.889128 -2.134230 0.401862 0.257332 0.702109 0.663900
2.938128 -2.152047 0.176841 0.482437 0.650746 -0.586291
3.515902 -2.228813 0.469425 0.780694 0.624561 0.020569
3.542361 -2.467220 0.461397 0.869839 -0.481491 0.107181
3.420116 -2.492122 0.237233 0.636006 0.183020 -0.749657
2.486132 -2.460906 0.458501 -0.264626 -0.231727 0.936064
2.251157 -2.414409 0.357172 -0.500534 -0.592883 0.630787
2.397438 -2.597587 0.334573 -0.704825 -0.542283 0.457289
2.254595 -2.489578 0.145457 -0.586901 -0.780541 -0.215094
2.436461 -2.626790 0.106818 -0.612262 -0.573870 -0.543809
2.352450 -2.392448 -0.027933 -0.172033 -0.478439 -0.861080
2.557965 -2.527823 0.012101 -0.027284 -0.275369 -0.960936
2.490146 -2.179540 -0.068438 0.324351 0.001923 -0.945921
2.728166 -2.339955 0.028258 0.352336 0.058168 -0.934049
2.656337 -2.274746 0.476568 0.077761 0.096530 0.992279
2.345693 -2.211678 0.475330 -0.105502 -0.118473 0.987304
2.483429 -1.998870 0.435060 0.262673 0.394574 0.880490
2.590338 -1.899132 0.261615 0.604114 0.764855 0.223670
2.594224 -1.973013 0.049800 0.598437 0.492996 -0.631489
3.165979 -2.786340 0.143988 0.348949 -0.051241 -0.935728
2.884785 -3.024560 0.071908 0.173101 -0.137577 -0.975219
3.585699 -3.074641 0.406129 0.748131 -0.619739 -0.236976
3.404161 -3.255967 0.359560 0.711386 -0.657643 -0.247749
3.047596 -3.574581 0.263139 0.105045 -0.925047 -0.364940
2.726034 -3.104066 0.080219 -0.472793 -0.412732 -0.778497
3.647052 -2.827756 0.610443 0.581805 0.097232 0.807459
2.945866 -3.519441 0.429731 -0.356792 -0.745811 0.562517
2.639944 -3.110820 0.422609 -0.665395 -0.352123 0.658193
3.081713 -2.787854 0.471486 -0.210364 -0.046846 0.976470
2.801520 -3.028042 0.408058 -0.108310 -0.003937 0.994079
3.479356 -3.013960 0.569574 0.181066 -0.403088 0.897031
3.297820 -3.195287 0.523004 0.155889 -0.392041 0.906613
3.105946 -3.384026 0.471499 0.146428 -0.428236 0.891690
0.488214 0.186733 -0.001730 0.500137 0.857509 0.120396
0.476758 -0.114007 0.365612 0.380657 0.493088 0.782250
0.676161 0.064007 0.005318 0.601978 0.782830 0.157323
-0.206724 -0.688609 0.447527 -0.495712 -0.469436 0.730674
-0.482214 -0.675753 0.032140 -0.784051 -0.619068 0.044343
-0.344405 -0.826780 0.021765 -0.675710 -0.736320 0.035066
-0.130332 0.309254 0.361042 0.432844 0.444533 0.784204
0.289009 0.279018 -0.005959 0.534654 0.840449 0.087954
-0.549933 -0.307121 0.377231 -0.531907 -0.466445 0.706717
-0.630471 -0.457875 0.042297 -0.761315 -0.644429 0.071108
-0.042119 -0.323250 -0.651899 -0.064730 -0.116001 -0.991119
-0.568871 -0.307299 -0.442790 -0.531938 -0.598834 -0.598651
-0.271740 -0.084211 -0.689198 0.015870 -0.173864 -0.984619
-0.157579 -0.808551 -0.379706 -0.511124 -0.609851 -0.605640
0.141626 -0.509977 -0.652866 -0.085025 -0.142613 -0.986114
0.151378 0.242462 -0.467387 0.532548 0.528489 -0.661092
0.463225 0.028361 -0.457388 0.398694 0.607562 -0.686911
0.676054 -0.139673 -0.486255 0.439589 0.523270 -0.730003
-0.345021 -0.606199 -0.375573 -0.595233 -0.540819 -0.594256
0.058122 -0.464099 0.583064 -0.036805 0.017029 0.999176
-1.129547 0.200149 -0.505577 -0.577044 -0.601550 -0.552355
-1.583666 1.261521 -0.782181 -0.080996 -0.197668 -0.976897
-0.785770 0.425717 -0.798654 -0.055177 -0.151677 -0.986877
-1.124929 1.627469 -0.601796 0.635182 0.397870 -0.661977
-0.401640 0.844453 -0.598136 0.604541 0.484542 -0.632221
-2.035184 1.023141 0.005832 -0.801447 -0.588824 0.104526
-1.933221 1.115892 -0.511706 -0.644887 -0.576373 -0.501877
-1.188486 0.083364 0.020601 -0.710471 -0.696402 0.101047
-1.882683 1.146766 0.422623 -0.542192 -0.597552 0.590655
-0.812248 0.419326 0.588477 0.024842 -0.061037 0.997803
-1.227305 1.498700 0.438581 0.531571 0.328806 0.780541
-1.575432 1.241827 0.588210 0.001770 -0.141362 0.989929
-0.416979 0.005794 0.519916 -0.006165 -0.039399 0.999176
-0.516234 0.713003 0.434941 0.501602 0.399030 0.767541
-1.029020 0.234989 0.470267 -0.473220 -0.486648 0.734275
-1.048230 1.703272 0.019580 0.815546 0.538530 0.211676
-0.337544 0.867031 0.021028 0.727287 0.651418 0.215979
-2.195683 1.281584 -0.040065 -0.936460 -0.350658 -0.005737
1.057307 -1.133996 -0.547220 0.081912 -0.191107 -0.978118
0.673667 -1.415211 -0.320246 -0.366771 -0.671346 -0.644002
1.360522 -0.749703 -0.413976 0.543779 0.416364 -0.728629
0.676785 -1.590582 0.069003 -0.543748 -0.839045 -0.017060
0.755910 -1.501317 0.410821 -0.411389 -0.604236 0.682363
1.032470 -1.261662 0.547999 0.005005 -0.044527 0.998993
1.371483 -0.914207 0.383698 0.403607 0.459792 0.790979
1.546896 -0.730172 -0.005233 0.704794 0.703574 0.090365
3.748784 -2.882898 0.443850 0.984863 -0.101932 -0.139958
3.212286 -3.444707 0.308056 0.678091 -0.689962 -0.253182
3 0 1 2
3 3 2 4
3 5 6 7
3 8 7 6
3 3 9 10
3 5 9 11
3 12 13 14
3 15 13 12
3 16 12 17
3 15 12 16
3 18 13 19
3 14 13 18
3 17 19 16
3 18 19 17
3 20 21 22
3 22 23 24
3 24 25 26
3 26 27 28
3 29 30 20
3 15 31 29
3 16 32 15
3 28 33 16
3 16 34 28
3 34 26 28
3 35 24 26
3 19 36 34
3 34 36 37
3 37 35 34
3 35 38 39
3 40 19 13
3 41 39 38
3 42 24 39
3 43 15 29
3 43 20 44
3 44 22 42
3 45 13 43
3 46 45 43
3 46 44 47
3 41 44 42
3 48 49 50
3 51 52 53
3 54 48 55
3 52 56 57
3 58 59 60
3 61 58 62
3 58 63 64
3 62 64 65
3 66 57 59
3 53 66 61
3 54 67 49
3 67 56 51
3 64 55 48
3 50 64 48
3 68 69 70
3 59 70 60
3 70 71 72
3 60 72 63
3 68 73 74
3 59 75 68
3 75 76 73
3 56 75 57
3 77 78 79
3 80 81 77
3 82 79 76
3 80 82 56
3 72 83 84
3 63 84 55
3 84 78 81
3 54 84 81
3 69 1 0
3 71 0 3
3 74 85 1
3 76 85 73
3 78 7 79
3 79 8 76
3 71 10 83
3 83 5 78
3 86 25 87
3 33 86 88
3 25 89 87
3 89 21 90
3 91 31 92
3 21 91 90
3 93 33 88
3 92 32 93
3 62 87 61
3 65 86 62
3 53 87 89
3 89 51 53
3 91 49 67
3 90 67 51
3 50 88 65
3 92 50 49
3 6 11 9
3 3 0 2
3 5 11 6
3 3 4 9
3 5 10 9
3 20 30 21
3 22 21 23
3 24 23 25
3 26 25 27
3 29 31 30
3 15 32 31
3 16 33 32
3 28 27 33
3 16 19 34
3 34 35 26
3 35 39 24
3 19 94 36
3 37 95 35
3 35 95 38
3 40 94 19
3 41 42 39
3 42 22 24
3 43 13 15
3 43 29 20
3 44 20 22
3 45 40 13
3 46 43 44
3 41 47 44
3 48 54 49
3 51 56 52
3 58 66 59
3 61 66 58
3 58 60 63
3 62 58 64
3 66 52 57
3 53 52 66
3 54 80 67
3 67 80 56
3 64 63 55
3 50 65 64
3 68 74 69
3 59 68 70
3 70 69 71
3 60 70 72
3 68 75 73
3 59 57 75
3 75 82 76
3 56 82 75
3 77 81 78
3 80 54 81
3 82 77 79
3 80 77 82
3 72 71 83
3 63 72 84
3 84 83 78
3 54 55 84
3 69 74 1
3 71 69 0
3 74 73 85
3 76 8 85
3 78 5 7
3 79 7 8
3 71 3 10
3 83 10 5
3 86 27 25
3 33 27 86
3 25 23 89
3 89 23 21
3 91 30 31
3 21 30 91
3 93 32 33
3 92 31 32
3 62 86 87
3 65 88 86
3 53 61 87
3 89 90 51
3 91 92 49
3 90 91 67
3 50 93 88
3 92 93 50
3 4 2 9
3 2 1 85
3 9 2 85
3 85 8 6
3 9 85 6
3 14 17 12
3 14 18 17
3 47 41 38
3 36 94 45
3 94 40 45
3 45 46 37
3 46 47 95
3 37 46 95
3 38 95 47
3 37 36 45
