ply
format ascii 1.0
comment Created by Blender 2.82 (sub 7) - www.blender.org, source file: 'person.blend'
element vertex 96
property float x
property float y
property float z
property float nx
property float ny
property float nz
element face 188
property list uchar uint vertex_indices
end_header
-1.343531 -0.914322 0.379468 -0.413495 0.450301 0.791345
-0.675137 0.064161 0.005577 -0.614795 0.774468 0.148900
-1.515900 -0.730317 -0.009971 -0.718894 0.690603 0.078951
-1.320738 -0.749936 -0.420179 -0.545488 0.402966 -0.734855
-0.711532 -1.501596 0.403852 0.413862 -0.596393 0.687765
-0.054595 -0.463970 0.582906 0.034700 0.014130 0.999268
-0.997917 -1.261843 0.542668 -0.006714 -0.049074 0.998749
-0.478451 -0.113825 0.366325 -0.389782 0.484664 0.783013
0.219585 -0.688572 0.445813 0.497299 -0.457686 0.736991
-0.622340 -1.590960 0.060356 0.553819 -0.832575 -0.007141
0.370544 -0.826877 0.017837 0.687887 -0.724265 0.047182
-0.616591 -1.415616 -0.329332 0.375866 -0.667165 -0.643086
0.192572 -0.808735 -0.385110 0.524735 -0.598621 -0.605182
-1.003100 -1.134372 -0.555827 -0.079775 -0.190222 -0.978484
-0.657611 -0.139692 -0.488900 -0.441389 0.513962 -0.735527
-0.109412 -0.510134 -0.657807 0.092624 -0.138524 -0.985992
-2.522297 -1.899647 0.250702 -0.617115 0.756859 0.215094
-2.416273 -1.999376 0.424294 -0.268258 0.386853 0.882229
-2.519121 -1.973597 0.037709 -0.601520 0.476394 -0.641224
-2.169464 -2.415060 0.343983 0.503159 -0.580889 0.639790
-2.272908 -2.212240 0.463626 0.104129 -0.119449 0.987335
-2.165802 -2.490300 0.131084 0.599017 -0.773675 -0.206275
-2.262722 -2.393179 -0.042462 0.176550 -0.474899 -0.862117
-2.406046 -2.180214 -0.082029 -0.323649 -0.003998 -0.946135
1.709425 2.348989 0.652314 -0.592914 0.281259 0.754509
0.987838 1.704039 0.030077 -0.831935 0.518265 0.198035
1.163883 1.499497 0.449584 -0.544237 0.312510 0.778527
1.370556 2.557981 -0.018967 -0.822840 0.561327 0.088290
1.080239 1.628079 -0.593916 -0.638417 0.375225 -0.672018
2.126714 1.516200 0.644869 0.631550 -0.441420 0.637379
1.515892 1.242586 0.598565 -0.004700 -0.145543 0.989319
1.828675 1.147469 0.432056 0.546556 -0.584246 0.599902
1.927933 1.821442 0.730824 -0.233985 -0.149907 0.960601
2.146019 1.282244 -0.031356 0.946196 -0.323283 0.013398
1.993718 1.023719 0.013174 0.813227 -0.569353 0.120182
1.900324 1.116385 -0.505792 0.661672 -0.562578 -0.495621
1.902256 1.855035 -0.890831 -0.140721 -0.226569 -0.963744
1.553201 1.261990 -0.776672 0.081240 -0.194555 -0.977508
2.103240 1.540492 -0.737357 0.713034 -0.385632 -0.585528
0.112321 0.309598 0.364474 -0.443190 0.433760 0.784448
0.307627 0.867494 0.026446 -0.743065 0.637287 0.204169
-0.296392 0.279256 -0.004299 -0.545061 0.834681 0.078555
0.481724 0.713512 0.441125 -0.513840 0.385662 0.766289
-0.148074 0.242594 -0.467508 -0.535508 0.516129 -0.668416
0.385661 0.844777 -0.595043 -0.603198 0.471389 -0.643330
1.007547 0.235368 0.474277 0.474624 -0.474929 0.741020
0.404438 0.006083 0.522436 0.004669 -0.043153 0.999054
0.550330 -0.306961 0.377595 0.533708 -0.452773 0.714194
0.782960 0.419783 0.593790 -0.027680 -0.065950 0.997436
1.181170 0.083601 0.022250 0.722282 -0.681967 0.114841
0.642815 -0.457834 0.040669 0.774071 -0.627186 0.086215
0.587007 -0.307315 -0.445385 0.545213 -0.589465 -0.595996
1.130023 0.200309 -0.505227 0.591632 -0.591083 -0.548235
0.289010 -0.084219 -0.691647 -0.011872 -0.172674 -0.984893
0.786497 0.425875 -0.798346 0.061037 -0.143468 -0.987762
-0.451815 0.028412 -0.458861 -0.401502 0.600513 -0.691488
-0.491845 0.186934 -0.000695 -0.510239 0.852565 0.112949
0.372480 -0.606308 -0.379721 0.608234 -0.528825 -0.591906
0.502581 -0.675792 0.029174 0.797143 -0.600909 0.058596
0.067403 -0.323337 -0.655684 0.068606 -0.115574 -0.990905
-2.826406 -3.520468 0.410246 0.361339 -0.741722 0.565020
-2.698434 -3.028905 0.391302 0.109439 -0.005860 0.993957
-2.991244 -3.385005 0.452807 -0.146275 -0.436811 0.887570
-3.189730 -3.196200 0.505414 -0.156255 -0.401654 0.902341
-2.986853 -2.788635 0.456102 0.208686 -0.044771 0.976928
-3.377565 -3.014810 0.553034 -0.180914 -0.413617 0.892270
-3.243277 -2.501372 0.569588 0.039491 -0.130589 0.990631
-3.551654 -2.828544 0.594969 -0.593158 0.082461 0.800836
-2.308609 -2.598308 0.320194 0.711112 -0.522477 0.470382
-2.535070 -3.111702 0.405556 0.669057 -0.336528 0.662618
-2.404171 -2.461558 0.445267 0.264229 -0.226936 0.937346
-2.815166 -2.134804 0.389961 -0.260170 0.701468 0.663472
-2.341567 -2.627571 0.091428 0.627094 -0.561632 -0.539689
-2.613608 -3.105024 0.061907 0.486831 -0.402173 -0.775384
-3.328627 -2.492871 0.222410 -0.632740 0.169256 -0.755608
-2.774186 -3.025499 0.053900 -0.171392 -0.137547 -0.975524
-2.922288 -3.575667 0.242679 -0.083987 -0.925077 -0.370312
-3.091606 -3.445747 0.288367 -0.667196 -0.697317 -0.261879
-3.290093 -3.256940 0.340973 -0.699911 -0.666433 -0.256844
-3.063725 -2.787195 0.127371 -0.348064 -0.056917 -0.935728
-3.477930 -3.075551 0.388593 -0.736076 -0.630238 -0.246864
-3.647541 -2.883744 0.427402 -0.981597 -0.118534 -0.149510
-2.463811 -2.528597 -0.003166 0.029237 -0.271249 -0.962035
-2.639912 -2.340670 0.013975 -0.352000 0.051790 -0.934538
-2.858497 -2.152676 0.163996 -0.486526 0.640980 -0.593585
-2.580262 -2.275341 0.464315 -0.079806 0.089877 0.992737
-3.456080 -2.467915 0.447443 -0.863460 -0.495651 0.093234
-3.437799 -2.229427 0.456834 -0.791803 0.610614 0.013215
-3.319262 -2.465857 0.593493 -0.294198 -0.413160 0.861782
-3.304434 -2.225277 0.590393 -0.181188 0.575671 0.797327
1.862124 3.108372 -0.030053 0.130802 0.990997 0.028504
1.684695 2.414094 -0.872838 -0.603534 0.296762 -0.740013
2.216762 2.074105 0.866208 0.625507 -0.012909 0.780084
2.155549 2.113042 -1.010761 0.629994 -0.060518 -0.774224
2.178328 2.859081 0.789678 0.459517 0.680624 0.570574
2.082173 2.776464 -1.004532 0.380718 0.645558 -0.662008
3 0 1 2
3 1 3 2
3 4 5 6
3 7 6 5
3 8 9 10
3 10 11 12
3 13 14 15
3 15 11 13
3 0 16 17
3 2 18 16
3 6 19 4
3 6 17 20
3 9 19 21
3 9 22 11
3 13 18 3
3 13 22 23
3 24 25 26
3 27 28 25
3 29 30 31
3 32 26 30
3 33 31 34
3 35 33 34
3 28 36 37
3 37 38 35
3 39 40 41
3 26 40 42
3 40 43 41
3 25 44 40
3 45 46 47
3 45 30 48
3 46 42 39
3 48 26 42
3 49 47 50
3 49 31 45
3 51 49 50
3 52 34 49
3 44 53 43
3 44 37 54
3 54 51 53
3 37 52 54
3 1 55 14
3 41 55 56
3 47 5 8
3 39 5 46
3 57 10 12
3 57 50 58
3 55 15 14
3 43 59 55
3 15 57 12
3 59 51 57
3 58 50 47
3 39 41 56
3 58 8 10
3 7 56 1
3 60 61 62
3 61 63 62
3 63 64 65
3 65 66 67
3 68 61 69
3 70 64 61
3 64 71 66
3 69 72 68
3 60 73 69
3 74 67 66
3 75 76 77
3 75 78 79
3 79 78 80
3 74 80 81
3 72 75 82
3 82 79 83
3 84 79 74
3 83 18 23
3 16 84 71
3 71 17 16
3 20 85 70
3 23 82 83
3 22 72 82
3 68 21 19
3 19 70 68
3 86 87 74
3 87 84 74
3 88 86 66
3 86 74 66
3 71 84 89
3 84 87 89
3 71 89 66
3 89 88 66
3 24 90 27
3 90 91 27
3 29 92 32
3 92 24 32
3 91 93 36
3 36 93 38
3 90 92 33
3 0 7 1
3 1 14 3
3 4 8 5
3 7 0 6
3 8 4 9
3 10 9 11
3 13 3 14
3 15 12 11
3 0 2 16
3 2 3 18
3 6 20 19
3 6 0 17
3 9 4 19
3 9 21 22
3 13 23 18
3 13 11 22
3 24 27 25
3 27 91 28
3 29 32 30
3 32 24 26
3 33 29 31
3 35 38 33
3 28 91 36
3 37 36 38
3 39 42 40
3 26 25 40
3 40 44 43
3 25 28 44
3 45 48 46
3 45 31 30
3 46 48 42
3 48 30 26
3 49 45 47
3 49 34 31
3 51 52 49
3 52 35 34
3 44 54 53
3 44 28 37
3 54 52 51
3 37 35 52
3 1 56 55
3 41 43 55
3 47 46 5
3 39 7 5
3 57 58 10
3 57 51 50
3 55 59 15
3 43 53 59
3 15 59 57
3 59 53 51
3 58 47 8
3 7 39 56
3 60 69 61
3 61 64 63
3 65 64 66
3 68 70 61
3 70 85 64
3 64 85 71
3 69 73 72
3 60 76 73
3 74 81 67
3 75 73 76
3 75 77 78
3 74 79 80
3 72 73 75
3 82 75 79
3 84 83 79
3 83 84 18
3 16 18 84
3 71 85 17
3 20 17 85
3 23 22 82
3 22 21 72
3 68 72 21
3 19 20 70
3 24 94 90
3 90 95 91
3 92 94 24
3 91 95 93
3 29 33 92
3 33 38 93
3 90 33 93
3 93 95 90
3 90 94 92
3 87 88 89
3 87 86 88
3 76 60 62
3 62 63 78
3 63 65 78
3 65 67 81
3 81 80 65
3 80 78 65
3 78 77 62
3 77 76 62
