ply
format ascii 1.0
comment Created by Blender 2.82 (sub 7) - www.blender.org, source file: 'person.blend'
element vertex 96
property float x
property float y
property float z
property float nx
property float ny
property float nz
element face 188
property list uchar uint vertex_indices
end_header
-3.379837 -3.045241 0.565777 -0.413495 0.450301 0.791345
-2.711444 -2.066758 0.191886 -0.614795 0.774468 0.148900
-3.552207 -2.861236 0.176338 -0.718894 0.690603 0.078951
-3.357045 -2.880855 -0.233870 -0.545488 0.402966 -0.734855
-2.747839 -3.632515 0.590161 0.413862 -0.596362 0.687765
-2.090902 -2.594889 0.769215 0.034700 0.014130 0.999268
-3.034223 -3.392762 0.728977 -0.006714 -0.049074 0.998749
-2.514757 -2.244744 0.552634 -0.389782 0.484664 0.783013
-1.816722 -2.819491 0.632122 0.497299 -0.457686 0.736991
-2.658646 -3.721879 0.246665 0.553819 -0.832575 -0.007141
-1.665763 -2.957796 0.204146 0.687887 -0.724265 0.047182
-2.652898 -3.546535 -0.143023 0.375866 -0.667165 -0.643086
-1.843735 -2.939654 -0.198801 0.524735 -0.598621 -0.605182
-3.039407 -3.265291 -0.369518 -0.079775 -0.190222 -0.978484
-2.693918 -2.270611 -0.302591 -0.441389 0.513962 -0.735527
-2.145718 -2.641053 -0.471498 0.092624 -0.138524 -0.985992
-4.558604 -4.030566 0.437011 -0.617115 0.756859 0.215094
-4.452579 -4.130295 0.610603 -0.268258 0.386853 0.882229
-4.555427 -4.104516 0.224018 -0.601520 0.476394 -0.641224
-4.205770 -4.545979 0.530292 0.503159 -0.580889 0.639790
-4.309214 -4.343159 0.649935 0.104129 -0.119449 0.987335
-4.202108 -4.621219 0.317393 0.599017 -0.773675 -0.206275
-4.299029 -4.524098 0.143847 0.176550 -0.474899 -0.862117
-4.442353 -4.311133 0.104280 -0.323649 -0.003998 -0.946135
-0.326882 0.218070 0.838623 -0.592914 0.281259 0.754509
-1.048469 -0.426880 0.216386 -0.831935 0.518265 0.198035
-0.872424 -0.631422 0.635893 -0.544237 0.312510 0.778527
-0.665751 0.427062 0.167342 -0.822840 0.561327 0.088290
-0.956068 -0.502840 -0.407607 -0.638417 0.375225 -0.672018
0.090407 -0.614719 0.831178 0.631550 -0.441420 0.637379
-0.520415 -0.888333 0.784874 -0.004700 -0.145543 0.989319
-0.207632 -0.983450 0.618365 0.546556 -0.584246 0.599902
-0.108374 -0.309477 0.917133 -0.233985 -0.149907 0.960601
0.109712 -0.848675 0.154953 0.946196 -0.323283 0.013398
-0.042589 -1.107200 0.199483 0.813227 -0.569353 0.120182
-0.135983 -1.014534 -0.319483 0.661672 -0.562578 -0.495621
-0.134051 -0.275884 -0.704522 -0.140721 -0.226569 -0.963744
-0.483106 -0.868929 -0.590364 0.081240 -0.194555 -0.977508
0.066933 -0.590427 -0.551048 0.713034 -0.385632 -0.585528
-1.923985 -1.821321 0.550783 -0.443190 0.433760 0.784448
-1.728680 -1.263425 0.212755 -0.743065 0.637287 0.204169
-2.332699 -1.851663 0.182010 -0.545061 0.834681 0.078555
-1.554583 -1.417407 0.627434 -0.513840 0.385662 0.766289
-2.184380 -1.888325 -0.281199 -0.535508 0.516129 -0.668416
-1.650646 -1.286142 -0.408734 -0.603198 0.471389 -0.643330
-1.028759 -1.895551 0.660586 0.474624 -0.474929 0.741020
-1.631869 -2.124836 0.708745 0.004669 -0.043153 0.999054
-1.485977 -2.437880 0.563904 0.533708 -0.452773 0.714194
-1.253347 -1.711136 0.780099 -0.027680 -0.065950 0.997436
-0.855137 -2.047318 0.208559 0.722282 -0.681967 0.114841
-1.393491 -2.588753 0.226978 0.774071 -0.627186 0.086215
-1.449300 -2.438234 -0.259076 0.545213 -0.589465 -0.595996
-0.906284 -1.930610 -0.318918 0.591632 -0.591083 -0.548235
-1.747297 -2.215138 -0.505338 -0.011872 -0.172674 -0.984893
-1.249810 -1.705044 -0.612037 0.061037 -0.143468 -0.987762
-2.488121 -2.102507 -0.272552 -0.401502 0.600513 -0.691488
-2.528152 -1.943985 0.185614 -0.510239 0.852565 0.112949
-1.663827 -2.737227 -0.193412 0.608234 -0.528825 -0.591906
-1.533726 -2.806711 0.215483 0.797143 -0.600909 0.058596
-1.968903 -2.454256 -0.469375 0.068606 -0.115574 -0.990905
-4.862712 -5.651387 0.596555 0.361339 -0.741722 0.565020
-4.734741 -5.159824 0.577611 0.109439 -0.005860 0.993957
-5.027551 -5.515924 0.639116 -0.146275 -0.436811 0.887570
-5.226036 -5.327119 0.691723 -0.156255 -0.401654 0.902341
-5.023159 -4.919554 0.642411 0.208686 -0.044771 0.976928
-5.413872 -5.145729 0.739343 -0.180914 -0.413617 0.892270
-5.279583 -4.632291 0.755897 0.039491 -0.130589 0.990631
-5.587961 -4.959463 0.781278 -0.593158 0.082461 0.800836
-4.344916 -4.729227 0.506503 0.711112 -0.522477 0.470382
-4.571377 -5.242621 0.591865 0.669057 -0.336528 0.662618
-4.440478 -4.592477 0.631576 0.264229 -0.226936 0.937346
-4.851472 -4.265723 0.576270 -0.260170 0.701468 0.663472
-4.377873 -4.758490 0.277737 0.627094 -0.561632 -0.539689
-4.649915 -5.235943 0.248216 0.486831 -0.402173 -0.775384
-5.364933 -4.623790 0.408719 -0.632740 0.169256 -0.755608
-4.810492 -5.156418 0.240209 -0.171392 -0.137547 -0.975524
-4.958595 -5.706586 0.428988 -0.083987 -0.925077 -0.370312
-5.127912 -5.576666 0.474676 -0.667196 -0.697317 -0.261879
-5.326400 -5.387859 0.527282 -0.699911 -0.666433 -0.256844
-5.100031 -4.918114 0.313680 -0.348064 -0.056917 -0.935728
-5.514236 -5.206470 0.574902 -0.736076 -0.630238 -0.246864
-5.683847 -5.014663 0.613711 -0.981597 -0.118534 -0.149510
-4.500118 -4.659516 0.183143 0.029237 -0.271249 -0.962035
-4.676218 -4.471589 0.200284 -0.352000 0.051790 -0.934538
-4.894803 -4.283595 0.350305 -0.486526 0.640980 -0.593585
-4.616568 -4.406260 0.650624 -0.079806 0.089877 0.992737
-5.492387 -4.598834 0.633752 -0.863460 -0.495651 0.093234
-5.474105 -4.360346 0.643143 -0.791803 0.610614 0.013215
-5.355568 -4.596776 0.779802 -0.294198 -0.413160 0.861782
-5.340741 -4.356196 0.776702 -0.181188 0.575671 0.797327
-0.174183 0.977453 0.156256 0.130802 0.990997 0.028504
-0.351612 0.283175 -0.686529 -0.603534 0.296762 -0.740013
0.180455 -0.056814 1.052517 0.625507 -0.012909 0.780084
0.119242 -0.017877 -0.824452 0.629994 -0.060518 -0.774224
0.142021 0.728162 0.975987 0.459517 0.680624 0.570574
0.045867 0.645545 -0.818223 0.380718 0.645558 -0.662008
3 0 1 2
3 1 3 2
3 4 5 6
3 7 6 5
3 8 9 10
3 10 11 12
3 13 14 15
3 15 11 13
3 0 16 17
3 2 18 16
3 6 19 4
3 6 17 20
3 9 19 21
3 9 22 11
3 13 18 3
3 13 22 23
3 24 25 26
3 27 28 25
3 29 30 31
3 32 26 30
3 33 31 34
3 35 33 34
3 28 36 37
3 37 38 35
3 39 40 41
3 26 40 42
3 40 43 41
3 25 44 40
3 45 46 47
3 45 30 48
3 46 42 39
3 48 26 42
3 49 47 50
3 49 31 45
3 51 49 50
3 52 34 49
3 44 53 43
3 44 37 54
3 54 51 53
3 37 52 54
3 1 55 14
3 41 55 56
3 47 5 8
3 39 5 46
3 57 10 12
3 57 50 58
3 55 15 14
3 43 59 55
3 15 57 12
3 59 51 57
3 58 50 47
3 39 41 56
3 58 8 10
3 7 56 1
3 60 61 62
3 61 63 62
3 63 64 65
3 65 66 67
3 68 61 69
3 70 64 61
3 64 71 66
3 69 72 68
3 60 73 69
3 74 67 66
3 75 76 77
3 75 78 79
3 79 78 80
3 74 80 81
3 72 75 82
3 82 79 83
3 84 79 74
3 83 18 23
3 16 84 71
3 71 17 16
3 20 85 70
3 23 82 83
3 22 72 82
3 68 21 19
3 19 70 68
3 86 87 74
3 87 84 74
3 88 86 66
3 86 74 66
3 71 84 89
3 84 87 89
3 71 89 66
3 89 88 66
3 24 90 27
3 90 91 27
3 29 92 32
3 92 24 32
3 91 93 36
3 36 93 38
3 90 92 33
3 0 7 1
3 1 14 3
3 4 8 5
3 7 0 6
3 8 4 9
3 10 9 11
3 13 3 14
3 15 12 11
3 0 2 16
3 2 3 18
3 6 20 19
3 6 0 17
3 9 4 19
3 9 21 22
3 13 23 18
3 13 11 22
3 24 27 25
3 27 91 28
3 29 32 30
3 32 24 26
3 33 29 31
3 35 38 33
3 28 91 36
3 37 36 38
3 39 42 40
3 26 25 40
3 40 44 43
3 25 28 44
3 45 48 46
3 45 31 30
3 46 48 42
3 48 30 26
3 49 45 47
3 49 34 31
3 51 52 49
3 52 35 34
3 44 54 53
3 44 28 37
3 54 52 51
3 37 35 52
3 1 56 55
3 41 43 55
3 47 46 5
3 39 7 5
3 57 58 10
3 57 51 50
3 55 59 15
3 43 53 59
3 15 59 57
3 59 53 51
3 58 47 8
3 7 39 56
3 60 69 61
3 61 64 63
3 65 64 66
3 68 70 61
3 70 85 64
3 64 85 71
3 69 73 72
3 60 76 73
3 74 81 67
3 75 73 76
3 75 77 78
3 74 79 80
3 72 73 75
3 82 75 79
3 84 83 79
3 83 84 18
3 16 18 84
3 71 85 17
3 20 17 85
3 23 22 82
3 22 21 72
3 68 72 21
3 19 20 70
3 24 94 90
3 90 95 91
3 92 94 24
3 91 95 93
3 29 33 92
3 33 38 93
3 90 33 93
3 93 95 90
3 90 94 92
3 87 88 89
3 87 86 88
3 76 60 62
3 62 63 78
3 63 65 78
3 65 67 81
3 81 80 65
3 80 78 65
3 78 77 62
3 77 76 62
