ply
format ascii 1.0
comment Created by Blender 2.82 (sub 7) - www.blender.org, source file: 'person.blend'
element vertex 238
property float x
property float y
property float z
property float nx
property float ny
property float nz
element face 472
property list uchar uint vertex_indices
end_header
-0.472303 -0.068752 0.483761 -0.605152 -0.778985 0.164098
-0.579711 0.458267 0.298365 -0.991028 -0.120426 -0.057680
-0.598427 -0.000329 0.120728 -0.787805 -0.615894 -0.002777
-0.476063 0.430640 -0.159046 -0.904050 0.080721 -0.419691
-0.597727 -0.006761 -0.355392 -0.789697 -0.475936 -0.387066
-0.314581 0.429670 -0.336830 -0.547533 0.171209 -0.819056
-0.306425 -0.085189 -0.654216 -0.233924 -0.674978 -0.699759
-0.175475 0.127527 0.988566 -0.557329 -0.757012 0.340983
-0.538594 0.381784 0.717392 -0.886166 -0.423750 0.187445
0.029335 0.002121 -0.658323 0.000000 -0.469955 -0.882687
0.029335 0.448291 -0.469976 0.000000 0.131901 -0.991241
-0.130432 -0.103944 0.849926 -0.320170 -0.847926 0.422468
0.029335 0.023143 0.962815 0.000000 -0.735282 0.677755
-0.396120 1.624046 1.364832 -0.246254 -0.472518 0.846187
-0.507728 1.554347 1.336197 -0.421674 -0.205939 0.883023
-0.391615 1.579568 1.373783 -0.063478 -0.002197 0.997955
-0.299174 1.541353 1.360626 -0.238350 -0.013672 0.971068
-0.246403 1.572352 1.384492 -0.546770 -0.358470 0.756615
-0.420396 1.407694 1.357608 -0.438429 0.245430 0.864589
-0.288281 1.486988 1.376041 -0.356120 0.260109 0.897488
-0.403578 1.450787 1.351050 -0.277444 0.135411 0.951140
-0.484559 1.460900 1.324020 -0.475417 -0.010956 0.879665
-0.528356 1.424397 1.288214 -0.563707 0.038728 0.825037
-0.028218 1.435262 1.688340 -0.679006 0.356365 0.641804
0.029335 1.317568 1.785084 0.000000 0.538865 0.842372
0.029335 1.452047 1.720336 0.000000 0.448714 0.893643
-0.155460 1.325152 1.559431 -0.704154 0.352672 0.616230
-0.244012 1.472799 1.403319 -0.560076 0.312449 0.767235
-0.078649 1.454288 1.593863 -0.771447 0.247932 0.585986
-0.385556 1.719592 1.516144 -0.491592 -0.401166 0.772881
-0.081671 1.574344 1.564260 -0.684286 -0.153630 0.712821
-0.059703 1.750569 1.626948 -0.023041 -0.041780 0.998840
-0.196264 1.787908 1.622046 -0.257668 -0.103458 0.960662
0.029335 1.748001 1.607411 0.000000 0.085971 0.996277
-0.014103 1.523236 1.654983 -0.607501 0.254555 0.752403
0.029335 1.531969 1.672923 0.000000 0.401959 0.915647
-0.562772 1.617620 1.305525 -0.419019 -0.422987 0.803400
-0.653991 1.712709 1.331477 -0.729423 -0.126865 0.672170
0.029335 1.158571 1.885962 0.000000 0.159886 0.987121
-0.054245 1.054814 1.835845 -0.594226 -0.459304 0.660237
0.029335 1.035509 1.865501 0.000000 -0.601672 0.798730
-0.267270 1.232124 1.488390 -0.632191 0.094211 0.769036
-0.578026 1.296928 1.283580 -0.701956 0.024873 0.711783
-0.444934 1.260521 1.389849 -0.545793 0.086398 0.833430
-0.222656 1.072366 1.515382 -0.728507 -0.257485 0.634754
-0.527461 1.093600 1.306645 -0.683889 -0.200964 0.701315
-0.522052 1.512373 1.301566 -0.487320 -0.257973 0.834223
-0.564775 1.515966 1.275228 -0.603778 -0.196570 0.772515
-0.397546 1.515836 1.353932 -0.210303 -0.132054 0.968657
-0.648388 1.473536 1.195645 -0.779839 -0.116428 0.615009
-0.786279 1.792445 1.025016 -0.951842 0.040376 0.303842
-0.712051 1.135805 1.062120 -0.906034 -0.181738 0.382092
-0.624304 1.838387 1.316950 -0.751274 0.190710 0.631794
-0.382870 1.875425 1.522780 -0.559343 0.052492 0.827265
-0.048923 1.233861 1.799074 -0.624134 0.462203 0.629902
-0.037194 1.295265 1.759282 -0.618885 0.459639 0.636921
-0.051769 1.169741 1.837002 -0.640767 0.222663 0.734703
0.029335 1.239862 1.845572 0.000000 0.539323 0.842067
-0.176975 1.083612 1.679766 -0.855617 -0.279153 0.435804
-0.158061 1.194650 1.671237 -0.827113 0.272073 0.491745
-0.840746 1.736723 0.448241 -0.983062 0.057527 0.173864
-0.812805 1.467268 0.916992 -0.965850 -0.089053 0.243263
-0.760139 1.062531 0.499701 -0.949278 -0.289438 0.122654
-1.012559 1.510540 0.011921 -0.788476 -0.117771 -0.603626
-0.811859 1.406817 0.512449 -0.978393 -0.109989 0.175024
-0.867845 1.719799 0.044304 -0.677175 0.268746 -0.684927
-0.804883 1.405420 0.017919 -0.608631 -0.302225 -0.733604
-0.865388 1.061268 0.208726 -0.842311 -0.500809 -0.199164
-0.709096 1.093176 0.081222 -0.725822 -0.392132 -0.565142
-0.860092 1.798026 0.177299 -0.877590 0.478164 0.033753
-1.014426 1.733901 0.047550 -0.740745 0.514084 -0.432386
-0.676629 0.916901 0.182870 -0.842647 -0.478378 -0.247078
-0.654916 0.884483 0.290639 -0.894986 -0.445662 -0.019074
-0.498555 1.117121 -0.298058 -0.686483 -0.293649 -0.665181
-0.264337 1.066322 -0.444051 -0.445387 -0.270516 -0.853450
0.029335 0.998912 -0.538857 0.000000 -0.260170 -0.965545
-0.506325 1.611932 -0.580180 -0.666768 -0.225990 -0.710135
-0.334198 1.638192 -0.716599 -0.416395 -0.193213 -0.888394
0.029335 1.607259 -0.815649 0.000000 -0.190313 -0.981689
-0.484597 2.164331 -0.623886 -0.635334 0.235237 -0.735527
-0.351000 2.196100 -0.695309 -0.340434 0.308512 -0.888180
0.029335 2.228299 -0.760575 0.000000 0.344951 -0.938597
-0.535100 2.559077 -0.296943 -0.656117 0.595172 -0.463912
-0.360615 2.663681 -0.344351 -0.357494 0.769372 -0.529344
0.029335 2.719120 -0.392913 0.000000 0.817927 -0.575304
-0.562663 2.754442 0.386054 -0.663015 0.748344 -0.019074
-0.348478 2.884171 0.390975 -0.348582 0.936766 -0.030122
0.029335 2.955694 0.399745 0.000000 0.999390 -0.034639
-0.568618 2.629866 0.889477 -0.701468 0.645253 0.302561
-0.358947 2.755642 0.957331 -0.398206 0.839106 0.370556
0.029335 2.835173 0.997900 0.000000 0.922056 0.387005
0.029335 2.108730 1.611559 0.000000 0.243507 0.969878
0.029335 2.554885 1.404314 0.000000 0.655782 0.754936
-0.151885 2.103179 1.593075 -0.185247 0.240761 0.952727
-0.257609 2.513790 1.364259 -0.370495 0.604907 0.704825
-0.579503 0.696153 0.000656 -0.941679 -0.197363 -0.272469
-0.592995 0.656603 0.276636 -0.977142 -0.178899 -0.114566
-0.651472 0.634396 0.602193 -0.955077 -0.295663 -0.019593
-0.606294 1.087248 -0.139559 -0.824549 -0.302622 -0.478011
-0.678329 1.516131 -0.322246 -0.823969 -0.242012 -0.512314
-0.729873 1.990675 -0.357255 -0.852962 0.062288 -0.518204
-0.814686 2.308355 -0.071036 -0.904111 0.328349 -0.273354
-0.822604 2.377765 0.415411 -0.940794 0.334635 0.053591
-0.544673 2.454720 1.149666 -0.683554 0.485702 0.544786
-0.734370 2.309631 0.914955 -0.895718 0.319742 0.308847
-0.771478 2.046531 0.972772 -0.947295 0.134892 0.290475
-0.608711 2.169687 1.242185 -0.773247 0.260933 0.577899
-0.345836 2.136385 1.536270 -0.479659 0.245857 0.842280
0.029335 0.947689 1.673613 0.000000 -0.786096 0.618061
-0.033354 0.981407 1.655147 -0.511429 -0.706381 0.489303
0.029335 0.847785 1.601996 0.000000 0.163335 0.986541
-0.095465 0.940010 1.564759 -0.605090 -0.365642 0.707205
-0.277096 0.833779 1.385917 -0.631062 -0.169103 0.757042
-0.506063 0.744868 1.178023 -0.754082 -0.191046 0.628315
-0.636081 0.678248 0.949193 -0.921049 -0.276406 0.274270
-0.459386 0.365748 1.138929 -0.796930 -0.498581 0.340953
-0.307971 0.411657 1.371872 -0.707236 -0.200964 0.677786
0.029335 0.079045 1.237496 0.000000 -0.966216 0.257698
-0.187279 0.124293 1.237098 -0.483505 -0.842433 0.237617
-0.126775 0.243143 1.508518 -0.453322 -0.458113 0.764580
0.029335 0.593519 1.617562 0.000000 -0.336314 0.941740
-0.047189 0.700443 1.612336 -0.462050 -0.195563 0.864986
-0.040924 0.597462 1.602104 -0.428755 -0.274361 0.860714
0.029335 0.718410 1.631834 0.000000 -0.207038 0.978332
-0.057783 0.767898 1.628353 -0.472884 0.070803 0.878262
-0.263570 0.658263 1.387250 -0.663198 -0.010620 0.748344
-0.070614 0.851793 1.584679 -0.478835 0.185827 0.857967
0.029335 0.839017 1.608338 0.000000 0.513779 0.857906
0.335766 0.833779 1.385917 0.631062 -0.169103 0.757042
0.154135 0.940010 1.564759 0.605090 -0.365642 0.707205
0.129284 0.851793 1.584679 0.478835 0.185827 0.857967
0.281326 1.072366 1.515382 0.728507 -0.257485 0.634754
0.322240 0.658263 1.387249 0.663198 -0.010620 0.748344
0.116453 0.767898 1.628353 0.472884 0.070803 0.878262
0.564732 0.744868 1.178022 0.754082 -0.191076 0.628315
0.366640 0.411657 1.371872 0.707236 -0.200964 0.677786
0.105859 0.700443 1.612336 0.462050 -0.195563 0.864986
0.099593 0.597462 1.602104 0.428755 -0.274361 0.860714
0.245950 0.124293 1.237098 0.483505 -0.842433 0.237617
0.518055 0.365748 1.138929 0.796930 -0.498581 0.340953
0.234144 0.127527 0.988567 0.557329 -0.757012 0.340983
0.597264 0.381784 0.717391 0.886166 -0.423719 0.187445
0.185445 0.243143 1.508518 0.453322 -0.458113 0.764580
0.694750 0.678248 0.949193 0.921049 -0.276406 0.274270
0.818808 1.062531 0.499701 0.949278 -0.289438 0.122654
0.770721 1.135805 1.062120 0.906034 -0.181738 0.382092
0.586131 1.093600 1.306645 0.683889 -0.200964 0.701315
0.235645 1.083612 1.679766 0.855617 -0.279153 0.435804
0.092024 0.981407 1.655147 0.511429 -0.706381 0.489303
0.112914 1.054814 1.835845 0.594226 -0.459273 0.660237
0.881273 2.377765 0.415411 0.940794 0.334605 0.053591
0.830148 2.046531 0.972772 0.947295 0.134892 0.290475
0.899415 1.736723 0.448241 0.983062 0.057527 0.173864
0.441540 1.875425 1.522779 0.559343 0.052492 0.827265
0.210554 2.103179 1.593075 0.185247 0.240761 0.952727
0.254934 1.787908 1.622046 0.257668 -0.103458 0.960662
0.316278 2.513790 1.364259 0.370495 0.604907 0.704825
0.404506 2.136385 1.536270 0.479659 0.245857 0.842280
0.667381 2.169687 1.242185 0.773247 0.260933 0.577899
0.793040 2.309631 0.914955 0.895718 0.319742 0.308847
0.682973 1.838387 1.316950 0.751274 0.190710 0.631794
0.844949 1.792445 1.025016 0.951842 0.040376 0.303842
0.627288 2.629866 0.889477 0.701468 0.645253 0.302561
0.603343 2.454720 1.149666 0.683554 0.485702 0.544786
0.417617 2.755642 0.957331 0.398206 0.839106 0.370556
0.621333 2.754442 0.386054 0.663015 0.748344 -0.019074
0.873356 2.308355 -0.071036 0.904111 0.328349 -0.273354
0.918762 1.798026 0.177299 0.877590 0.478164 0.033753
0.788543 1.990675 -0.357255 0.852962 0.062288 -0.518204
0.593770 2.559077 -0.296943 0.656117 0.595172 -0.463912
0.926514 1.719799 0.044304 0.677175 0.268746 -0.684927
0.564994 1.611932 -0.580179 0.666768 -0.225990 -0.710135
0.736998 1.516131 -0.322245 0.823969 -0.242012 -0.512314
0.863553 1.405421 0.017919 0.608631 -0.302225 -0.733604
0.557225 1.117121 -0.298058 0.686483 -0.293649 -0.665181
0.664964 1.087248 -0.139558 0.824549 -0.302622 -0.478011
0.767766 1.093176 0.081222 0.725822 -0.392132 -0.565142
0.735299 0.916901 0.182870 0.842647 -0.478378 -0.247078
0.638172 0.696153 0.000656 0.941679 -0.197363 -0.272469
0.534726 0.430635 -0.159057 0.904050 0.080721 -0.419691
0.713586 0.884483 0.290639 0.894986 -0.445662 -0.019074
0.710142 0.634396 0.602193 0.955077 -0.295663 -0.019593
0.651664 0.656603 0.276636 0.977142 -0.178899 -0.114566
0.638380 0.458267 0.298365 0.991028 -0.120426 -0.057680
0.118373 1.750569 1.626948 0.023041 -0.041780 0.998840
0.407148 2.884171 0.390975 0.348582 0.936766 -0.030122
0.419284 2.663681 -0.344351 0.357494 0.769372 -0.529344
0.409669 2.196100 -0.695309 0.340434 0.308512 -0.888180
0.543266 2.164331 -0.623886 0.635334 0.235237 -0.735527
0.392868 1.638192 -0.716599 0.416425 -0.193213 -0.888394
0.323006 1.066322 -0.444051 0.445387 -0.270516 -0.853450
0.373255 0.429668 -0.336831 0.547533 0.171209 -0.819056
0.924058 1.061268 0.208726 0.842311 -0.500809 -0.199164
1.073096 1.733901 0.047550 0.740745 0.514084 -0.432386
1.071228 1.510540 0.011922 0.788476 -0.117771 -0.603626
0.870529 1.406817 0.512449 0.978362 -0.109989 0.175024
0.871475 1.467268 0.916991 0.965850 -0.089053 0.243263
0.214130 1.325152 1.559431 0.704154 0.352672 0.616230
0.216730 1.194650 1.671237 0.827113 0.272073 0.491745
0.325939 1.232124 1.488390 0.632191 0.094211 0.769036
0.095864 1.295265 1.759282 0.618885 0.459609 0.636952
0.107592 1.233861 1.799074 0.624134 0.462203 0.629902
0.110438 1.169741 1.837002 0.640767 0.222663 0.734703
0.712661 1.712709 1.331477 0.729423 -0.126865 0.672170
0.444226 1.719592 1.516144 0.491592 -0.401166 0.772881
0.707057 1.473536 1.195645 0.779839 -0.116428 0.615009
0.587026 1.424397 1.288214 0.563707 0.038728 0.825037
0.623445 1.515966 1.275228 0.603778 -0.196570 0.772515
0.621442 1.617620 1.305525 0.419019 -0.422987 0.803400
0.137319 1.454288 1.593863 0.771447 0.247932 0.585986
0.072772 1.523236 1.654984 0.607501 0.254555 0.752403
0.086888 1.435262 1.688340 0.679006 0.356365 0.641804
0.302682 1.472799 1.403319 0.560076 0.312449 0.767235
0.140341 1.574344 1.564260 0.684286 -0.153630 0.712821
0.456216 1.515836 1.353932 0.210303 -0.132054 0.968657
0.346951 1.486988 1.376041 0.356151 0.260109 0.897488
0.462247 1.450787 1.351050 0.277444 0.135411 0.951140
0.357844 1.541353 1.360626 0.238350 -0.013672 0.971068
0.450285 1.579568 1.373783 0.063478 -0.002197 0.997955
0.543228 1.460900 1.324020 0.475417 -0.010956 0.879665
0.580722 1.512373 1.301566 0.487320 -0.257973 0.834223
0.566398 1.554347 1.336197 0.421674 -0.205939 0.883023
0.305073 1.572352 1.384492 0.546770 -0.358470 0.756615
0.636696 1.296928 1.283579 0.701956 0.024873 0.711753
0.503604 1.260521 1.389849 0.545824 0.086398 0.833430
0.479066 1.407694 1.357608 0.438429 0.245430 0.864589
0.454790 1.624046 1.364832 0.246254 -0.472518 0.846187
0.189102 -0.103944 0.849926 0.320170 -0.847926 0.422468
0.029335 -0.130920 0.899422 0.000000 -0.908689 0.417402
0.365095 -0.085189 -0.654216 0.233924 -0.674978 -0.699759
0.530973 -0.068752 0.483761 0.605152 -0.778985 0.164098
0.656397 -0.006760 -0.355392 0.789697 -0.475936 -0.387066
0.657096 -0.000330 0.120728 0.787805 -0.615894 -0.002777
-0.122903 0.467993 1.495533 -0.489975 -0.081423 0.867885
0.029335 0.463902 1.532846 0.000000 -0.266335 0.963866
0.029335 0.230279 1.544267 0.000000 -0.495346 0.868679
0.181573 0.467993 1.495533 0.489975 -0.081423 0.867885
0.029335 0.767867 1.646345 0.000000 0.097690 0.995209
3 0 1 2
3 2 3 4
3 4 5 6
3 0 7 8
3 9 5 10
3 11 12 7
3 13 14 15
3 13 16 17
3 18 19 20
3 18 21 22
3 23 24 25
3 26 27 18
3 26 23 28
3 17 29 13
3 30 31 32
3 33 34 35
3 30 32 29
3 36 29 37
3 38 39 40
3 18 41 26
3 18 42 43
3 43 44 41
3 42 45 43
3 17 19 27
3 22 46 47
3 47 14 36
3 14 48 15
3 21 48 46
3 48 16 15
3 48 20 19
3 25 34 23
3 30 27 28
3 34 28 23
3 36 49 47
3 49 22 47
3 50 49 37
3 49 51 42
3 29 52 37
3 29 32 53
3 37 52 50
3 54 24 55
3 56 57 54
3 56 58 39
3 59 44 58
3 56 54 59
3 55 59 54
3 26 59 55
3 60 61 50
3 61 62 51
3 60 63 64
3 63 65 66
3 64 67 62
3 67 66 68
3 60 69 70
3 70 69 65
3 71 67 68
3 62 67 72
3 5 73 74
3 10 74 75
3 74 76 77
3 74 78 75
3 77 79 80
3 77 81 78
3 80 82 83
3 80 84 81
3 83 85 86
3 84 86 87
3 86 88 89
3 87 89 90
3 91 31 33
3 92 93 91
3 90 94 92
3 31 93 32
3 1 95 3
3 96 71 95
3 1 97 96
3 97 72 96
3 73 95 98
3 98 71 68
3 66 98 68
3 99 73 98
3 65 99 66
3 100 76 99
3 65 101 100
3 100 82 79
3 69 102 101
3 101 85 82
3 102 88 85
3 89 103 94
3 88 104 103
3 105 60 50
3 52 105 50
3 106 104 105
3 53 106 52
3 94 106 107
3 94 107 93
3 93 53 32
3 105 102 60
3 39 108 40
3 39 58 109
3 109 110 108
3 111 58 44
3 45 112 44
3 51 113 45
3 62 114 51
3 113 115 116
3 8 114 97
3 7 117 118
3 117 119 118
3 7 115 8
3 116 118 119
3 120 121 122
3 123 124 121
3 124 125 121
3 121 125 122
3 112 113 125
3 113 116 125
3 126 110 111
3 124 127 126
3 125 126 112
3 44 112 111
3 112 126 111
3 128 129 130
3 131 129 128
3 130 132 128
3 127 133 130
3 110 130 129
3 134 132 135
3 128 132 134
3 136 137 132
3 133 136 132
3 133 123 136
3 136 120 137
3 135 138 139
3 139 140 141
3 142 117 138
3 140 117 12
3 141 143 139
3 134 139 143
3 143 144 145
3 134 145 146
3 128 146 131
3 147 129 131
3 110 148 108
3 149 148 147
3 108 149 40
3 150 151 152
3 153 154 155
3 156 154 157
3 158 156 157
3 153 158 157
3 159 158 151
3 151 160 161
3 151 161 152
3 162 163 159
3 164 163 162
3 162 150 165
3 166 165 150
3 167 150 152
3 168 169 166
3 170 166 167
3 171 168 172
3 172 170 173
3 174 172 175
3 175 173 176
3 175 177 178
3 174 178 179
3 180 181 182
3 183 181 141
3 177 182 178
3 178 183 179
3 184 155 154
3 156 90 92
3 154 92 91
3 184 91 33
3 87 164 185
3 185 162 165
3 84 185 186
3 186 165 169
3 84 187 81
3 187 169 188
3 81 189 78
3 189 188 171
3 78 190 75
3 190 171 174
3 10 190 191
3 191 174 179
3 144 180 192
3 192 177 176
3 193 170 167
3 152 193 167
3 192 173 194
3 192 195 144
3 194 170 193
3 194 152 195
3 196 144 195
3 196 152 161
3 197 198 199
3 200 201 198
3 202 198 201
3 198 131 199
3 202 147 198
3 57 202 201
3 24 201 200
3 203 161 160
3 204 153 155
3 160 204 203
3 205 145 196
3 205 161 203
3 206 205 207
3 208 205 203
3 209 210 211
3 212 213 209
3 25 210 35
3 214 215 216
3 217 214 218
3 214 219 220
3 221 214 220
3 207 221 220
3 206 220 219
3 215 222 212
3 223 146 145
3 131 224 199
3 225 223 206
3 199 225 197
3 38 149 202
3 208 204 226
3 213 204 155
3 210 33 35
3 213 184 210
3 204 222 226
3 197 211 200
3 212 197 225
3 24 211 25
3 219 225 206
3 225 215 212
3 217 226 222
3 226 221 208
3 227 12 228
3 9 191 229
3 230 140 227
3 191 231 229
3 179 232 231
3 183 230 232
3 233 125 116
3 119 233 116
3 233 122 125
3 234 119 235
3 234 122 233
3 142 234 235
3 137 234 236
3 236 135 132
3 137 236 132
3 236 142 135
3 232 2 9
3 0 8 1
3 2 1 3
3 4 3 5
3 0 11 7
3 9 6 5
3 11 228 12
3 13 36 14
3 13 15 16
3 18 27 19
3 18 20 21
3 23 55 24
3 26 28 27
3 26 55 23
3 17 30 29
3 30 34 31
3 33 31 34
3 36 13 29
3 38 56 39
3 18 43 41
3 18 22 42
3 43 45 44
3 42 51 45
3 17 16 19
3 22 21 46
3 47 46 14
3 14 46 48
3 21 20 48
3 48 19 16
3 25 35 34
3 30 17 27
3 34 30 28
3 36 37 49
3 49 42 22
3 50 61 49
3 49 61 51
3 29 53 52
3 54 57 24
3 56 38 57
3 56 59 58
3 59 41 44
3 26 41 59
3 60 64 61
3 61 64 62
3 60 70 63
3 63 70 65
3 64 63 67
3 67 63 66
3 71 72 67
3 5 3 73
3 10 5 74
3 74 73 76
3 74 77 78
3 77 76 79
3 77 80 81
3 80 79 82
3 80 83 84
3 83 82 85
3 84 83 86
3 86 85 88
3 87 86 89
3 91 93 31
3 92 94 93
3 90 89 94
3 1 96 95
3 96 72 71
3 1 8 97
3 97 62 72
3 73 3 95
3 98 95 71
3 66 99 98
3 99 76 73
3 65 100 99
3 100 79 76
3 65 69 101
3 100 101 82
3 69 60 102
3 101 102 85
3 102 104 88
3 89 88 103
3 52 106 105
3 106 103 104
3 53 107 106
3 94 103 106
3 93 107 53
3 105 104 102
3 39 109 108
3 109 111 110
3 111 109 58
3 45 113 112
3 51 114 113
3 62 97 114
3 113 114 115
3 8 115 114
3 7 12 117
3 117 235 119
3 7 118 115
3 116 115 118
3 120 123 121
3 123 237 124
3 126 127 110
3 124 237 127
3 125 124 126
3 130 133 132
3 127 237 133
3 110 127 130
3 133 237 123
3 136 123 120
3 135 142 138
3 139 138 140
3 142 235 117
3 140 138 117
3 141 181 143
3 134 135 139
3 143 181 144
3 134 143 145
3 128 134 146
3 147 148 129
3 110 129 148
3 108 148 149
3 150 159 151
3 153 157 154
3 158 163 156
3 153 160 158
3 159 163 158
3 151 158 160
3 164 156 163
3 162 159 150
3 166 169 165
3 167 166 150
3 168 188 169
3 170 168 166
3 171 188 168
3 172 168 170
3 174 171 172
3 175 172 173
3 175 176 177
3 174 175 178
3 180 144 181
3 183 182 181
3 177 180 182
3 178 182 183
3 156 164 90
3 154 156 92
3 184 154 91
3 87 90 164
3 185 164 162
3 84 87 185
3 186 185 165
3 84 186 187
3 187 186 169
3 81 187 189
3 189 187 188
3 78 189 190
3 190 189 171
3 10 75 190
3 191 190 174
3 192 180 177
3 192 176 173
3 192 194 195
3 194 173 170
3 194 193 152
3 196 145 144
3 196 195 152
3 197 200 198
3 198 147 131
3 202 149 147
3 57 38 202
3 24 57 201
3 160 153 204
3 205 223 145
3 205 196 161
3 206 223 205
3 208 207 205
3 209 213 210
3 212 222 213
3 25 211 210
3 217 215 214
3 214 216 219
3 221 218 214
3 207 208 221
3 206 207 220
3 215 217 222
3 223 224 146
3 131 146 224
3 225 224 223
3 199 224 225
3 38 40 149
3 208 203 204
3 210 184 33
3 213 155 184
3 204 213 222
3 197 209 211
3 212 209 197
3 24 200 211
3 219 216 225
3 225 216 215
3 217 218 226
3 226 218 221
3 227 140 12
3 9 10 191
3 230 141 140
3 191 179 231
3 179 183 232
3 183 141 230
3 234 233 119
3 234 120 122
3 142 236 234
3 137 120 234
3 11 0 230
3 0 2 232
3 2 4 9
3 4 6 9
3 9 229 231
3 232 9 231
3 232 230 0
3 230 227 11
3 227 228 11
