ply
format ascii 1.0
comment Created by Blender 2.82 (sub 7) - www.blender.org, source file: 'person.blend'
element vertex 58
property float x
property float y
property float z
property float nx
property float ny
property float nz
element face 112
property list uchar uint vertex_indices
end_header
0.439290 0.070625 -0.257343 0.680563 0.703269 0.205359
0.453932 -0.227145 -0.150892 0.878933 -0.269967 0.393109
0.604129 -0.064838 -0.299904 0.985473 0.156407 0.065828
0.328878 -0.106735 -0.118989 -0.143742 0.755608 0.638997
0.370444 -0.333728 0.018885 0.920255 -0.171026 0.351939
0.258842 -0.226304 0.047373 -0.065859 0.818964 0.570025
0.292403 -0.429181 0.173111 0.558580 -0.414838 0.718253
0.269302 -0.094544 -0.066217 0.882260 -0.247169 0.400586
0.240805 0.259430 -0.204736 0.709189 0.684713 0.167852
0.128092 0.041425 -0.030193 -0.129460 0.750420 0.648122
0.168835 -0.229978 0.145480 0.925748 -0.163884 0.340709
0.043285 -0.109123 0.177529 -0.065889 0.817499 0.572100
0.074932 -0.351554 0.338189 0.564440 -0.415235 0.713401
0.074104 0.068303 0.004459 0.899747 -0.228797 0.371593
0.052969 0.440820 -0.157116 0.723289 0.669027 0.170904
-0.081434 0.218066 0.044139 -0.127354 0.768364 0.627186
-0.032818 -0.086041 0.238695 0.931120 -0.157079 0.329112
-0.172319 0.048239 0.274305 -0.069308 0.811945 0.579547
-0.133470 -0.224118 0.452258 0.569750 -0.416578 0.708396
-0.112882 0.273425 0.031297 0.891873 -0.233955 0.387005
-0.121120 0.627085 -0.115181 0.153752 0.956267 0.248695
-0.253784 0.409097 0.067244 -0.147801 0.751030 0.643483
-0.328897 0.249131 0.272535 -0.076510 0.796442 0.599811
-0.395231 0.101022 0.458209 -0.219337 0.338023 0.915189
-0.203345 0.128280 0.240486 0.938994 -0.145054 0.311777
0.508246 -0.120037 -0.467471 0.424512 -0.175359 -0.888241
0.338929 0.009883 -0.421783 -0.090701 0.229347 -0.969085
0.210703 -0.198610 -0.235505 -0.916929 0.141179 -0.373211
0.140441 0.198690 -0.369177 -0.057772 0.207831 -0.976440
-0.047395 0.380079 -0.321557 -0.042299 0.174963 -0.983642
-0.217006 0.571886 -0.282748 -0.414136 0.598102 -0.686087
-0.509480 0.011022 0.350023 -0.945189 -0.233741 0.227851
-0.371961 0.317220 -0.049272 -0.930448 0.133335 -0.341258
-0.288046 -0.002156 0.430847 0.579089 -0.421003 0.698111
-0.323307 0.033781 0.126891 0.047884 -0.839045 -0.541917
-0.231057 0.181549 -0.085218 0.030854 -0.800653 -0.598285
-0.366814 -0.199476 0.374475 -0.949522 -0.220252 0.223304
-0.252566 -0.109477 0.482661 -0.225227 0.350230 0.909146
-0.152778 -0.180538 0.125099 0.041047 -0.851192 -0.523179
-0.199609 0.126192 -0.072376 -0.928465 0.133580 -0.346507
-0.044070 -0.023571 -0.112058 0.040773 -0.806909 -0.589221
-0.146500 -0.338374 0.257365 -0.951323 -0.213507 0.222114
-0.032255 -0.248377 0.365551 -0.228950 0.355510 0.906156
-0.039314 -0.441551 0.230003 -0.160863 -0.986602 0.026551
0.009918 -0.050450 -0.146709 -0.928404 0.121403 -0.351115
0.151129 -0.186419 -0.182733 0.028443 -0.814234 -0.579791
0.250483 -0.428229 -0.094711 0.030244 -0.862667 -0.504807
0.335757 -0.319022 -0.267408 0.044862 -0.799890 -0.598437
0.082879 -0.427466 0.089245 -0.951537 -0.211280 0.223395
0.197127 -0.337468 0.197432 -0.231330 0.355998 0.905362
0.178155 -0.519180 0.064925 -0.165960 -0.985595 0.032136
0.138882 -0.320802 -0.066222 -0.950163 0.121036 -0.287271
0.048876 -0.324476 0.031885 0.035432 -0.857509 -0.513199
-0.076676 -0.203619 0.063934 -0.951750 0.118686 -0.282876
-0.247720 -0.314117 0.344072 -0.155187 -0.987640 0.021912
-0.292282 -0.046257 0.160710 -0.955046 0.113498 -0.273812
-0.448857 0.154634 0.158941 -0.961852 0.098666 -0.255074
-0.402294 -0.092154 0.322661 -0.142735 -0.989624 0.014557
3 0 1 2
3 3 4 1
3 5 6 4
3 7 8 9
3 9 10 7
3 11 12 10
3 13 14 15
3 15 16 13
3 17 18 16
3 19 20 21
3 22 19 21
3 23 24 22
3 1 25 2
3 3 26 27
3 7 26 0
3 28 9 8
3 29 15 14
3 30 21 20
3 22 31 23
3 32 22 21
3 31 33 23
3 33 34 24
3 24 35 19
3 19 29 14
3 36 18 37
3 17 36 37
3 18 38 16
3 39 17 15
3 16 40 13
3 13 28 8
3 41 12 42
3 11 41 42
3 43 10 12
3 44 11 9
3 10 45 7
3 6 46 4
3 4 47 1
3 48 6 49
3 5 48 49
3 27 5 3
3 26 47 27
3 46 27 47
3 50 51 46
3 28 45 44
3 52 44 45
3 43 53 52
3 29 40 39
3 38 39 40
3 54 55 38
3 29 32 30
3 56 35 34
3 31 34 57
3 0 3 1
3 3 5 4
3 5 49 6
3 7 0 8
3 9 11 10
3 11 42 12
3 13 8 14
3 15 17 16
3 17 37 18
3 19 14 20
3 22 24 19
3 23 33 24
3 1 47 25
3 3 0 26
3 7 45 26
3 28 44 9
3 29 39 15
3 30 32 21
3 22 56 31
3 32 56 22
3 31 57 33
3 33 57 34
3 24 34 35
3 19 35 29
3 36 54 18
3 17 55 36
3 18 54 38
3 39 55 17
3 16 38 40
3 13 40 28
3 41 43 12
3 11 53 41
3 43 52 10
3 44 53 11
3 10 52 45
3 6 50 46
3 4 46 47
3 48 50 6
3 5 51 48
3 27 51 5
3 26 25 47
3 46 51 27
3 50 48 51
3 28 26 45
3 52 53 44
3 43 41 53
3 29 28 40
3 38 55 39
3 54 36 55
3 29 35 32
3 56 32 35
3 31 56 34
3 8 0 28
3 0 2 25
3 25 26 0
3 26 28 0
3 28 29 14
3 29 30 14
3 30 20 14
3 14 8 28
