ply
format ascii 1.0
comment Created by Blender 2.82 (sub 7) - www.blender.org, source file: 'person.blend'
element vertex 8
property float x
property float y
property float z
property float nx
property float ny
property float nz
element face 12
property list uchar uint vertex_indices
end_header
-0.315595 -0.199400 0.196182 -0.775140 -0.631397 0.021424
-0.314714 -0.033971 0.191248 -0.885128 0.461226 0.061342
-0.071847 -0.138541 -0.070605 0.001587 -0.510544 -0.859828
-0.053565 0.099947 -0.061214 -0.028596 0.685293 -0.727683
-0.181621 -0.196473 0.318242 0.043672 -0.617786 0.785089
0.064972 -0.136483 0.075445 0.842189 -0.539140 0.001770
-0.180738 -0.031044 0.313307 -0.032533 0.472549 0.880673
0.079799 0.104097 0.072345 0.742485 0.666555 0.066225
3 0 1 2
3 1 3 2
3 4 0 5
3 0 2 5
3 6 1 0
3 6 0 4
3 7 3 6
3 3 1 6
3 7 6 5
3 6 4 5
3 3 5 2
3 3 7 5
