ply
format ascii 1.0
comment Created by Blender 2.82 (sub 7) - www.blender.org, source file: 'person.blend'
element vertex 58
property float x
property float y
property float z
property float nx
property float ny
property float nz
element face 112
property list uchar uint vertex_indices
end_header
0.291042 -0.179850 0.042307 0.680563 0.703269 0.205359
0.305684 -0.477620 0.148758 0.878933 -0.269967 0.393109
0.455881 -0.315313 -0.000254 0.985473 0.156407 0.065828
0.180630 -0.357209 0.180661 -0.143742 0.755608 0.638997
0.222196 -0.584203 0.318535 0.920255 -0.171026 0.351939
0.110594 -0.476779 0.347023 -0.065859 0.818964 0.570025
0.144155 -0.679656 0.472761 0.558580 -0.414838 0.718253
0.121054 -0.345019 0.233433 0.882260 -0.247169 0.400586
0.092556 0.008955 0.094914 0.709189 0.684713 0.167852
-0.020156 -0.209050 0.269457 -0.129460 0.750420 0.648122
0.020586 -0.480453 0.445130 0.925748 -0.163884 0.340709
-0.104963 -0.359597 0.477179 -0.065889 0.817499 0.572100
-0.073317 -0.602029 0.637839 0.564440 -0.415235 0.713401
-0.074144 -0.182172 0.304109 0.899747 -0.228797 0.371593
-0.095279 0.190345 0.142534 0.723289 0.669027 0.170904
-0.229682 -0.032408 0.343789 -0.127354 0.768364 0.627186
-0.181067 -0.336516 0.538345 0.931120 -0.157079 0.329112
-0.320568 -0.202235 0.573955 -0.069308 0.811945 0.579547
-0.281718 -0.474593 0.751908 0.569750 -0.416578 0.708396
-0.261130 0.022950 0.330947 0.891873 -0.233955 0.387005
-0.269368 0.376611 0.184469 0.153752 0.956267 0.248695
-0.402032 0.158623 0.366894 -0.147801 0.751030 0.643483
-0.477145 -0.001343 0.572185 -0.076510 0.796442 0.599811
-0.543479 -0.149452 0.757859 -0.219337 0.338023 0.915189
-0.351593 -0.122195 0.540136 0.938994 -0.145054 0.311777
0.359998 -0.370512 -0.167821 0.424512 -0.175359 -0.888241
0.190681 -0.240592 -0.122133 -0.090701 0.229347 -0.969085
0.062455 -0.449085 0.064145 -0.916929 0.141179 -0.373211
-0.007807 -0.051785 -0.069527 -0.057772 0.207831 -0.976440
-0.195643 0.129604 -0.021907 -0.042299 0.174963 -0.983642
-0.365254 0.321411 0.016902 -0.414136 0.598102 -0.686087
-0.657728 -0.239453 0.649673 -0.945189 -0.233741 0.227851
-0.520209 0.066746 0.250378 -0.930448 0.133335 -0.341258
-0.436295 -0.252631 0.730497 0.579089 -0.421003 0.698111
-0.471555 -0.216694 0.426541 0.047884 -0.839045 -0.541917
-0.379305 -0.068926 0.214432 0.030854 -0.800653 -0.598285
-0.515062 -0.449950 0.674125 -0.949522 -0.220252 0.223304
-0.400815 -0.359952 0.782311 -0.225227 0.350230 0.909146
-0.301026 -0.431013 0.424749 0.041047 -0.851192 -0.523179
-0.347857 -0.124283 0.227274 -0.928465 0.133580 -0.346507
-0.192318 -0.274046 0.187592 0.040773 -0.806909 -0.589221
-0.294748 -0.588849 0.557015 -0.951323 -0.213507 0.222114
-0.180503 -0.498852 0.665201 -0.228950 0.355510 0.906156
-0.187562 -0.692026 0.529653 -0.160863 -0.986602 0.026551
-0.138330 -0.300925 0.152941 -0.928404 0.121403 -0.351115
0.002881 -0.436894 0.116917 0.028443 -0.814234 -0.579791
0.102235 -0.678704 0.204939 0.030244 -0.862667 -0.504807
0.187509 -0.569497 0.032242 0.044862 -0.799890 -0.598437
-0.065370 -0.677941 0.388895 -0.951537 -0.211280 0.223395
0.048879 -0.587943 0.497082 -0.231330 0.355998 0.905362
0.029907 -0.769655 0.364575 -0.165960 -0.985595 0.032136
-0.009367 -0.571277 0.233428 -0.950163 0.121036 -0.287271
-0.099372 -0.574950 0.331535 0.035432 -0.857509 -0.513199
-0.224925 -0.454094 0.363584 -0.951750 0.118686 -0.282876
-0.395968 -0.564592 0.643722 -0.155187 -0.987640 0.021912
-0.440530 -0.296732 0.460360 -0.955046 0.113498 -0.273812
-0.597106 -0.095841 0.458591 -0.961852 0.098666 -0.255074
-0.550542 -0.342629 0.622311 -0.142735 -0.989624 0.014557
3 0 1 2
3 3 4 1
3 5 6 4
3 7 8 9
3 9 10 7
3 11 12 10
3 13 14 15
3 15 16 13
3 17 18 16
3 19 20 21
3 22 19 21
3 23 24 22
3 1 25 2
3 3 26 27
3 7 26 0
3 28 9 8
3 29 15 14
3 30 21 20
3 22 31 23
3 32 22 21
3 31 33 23
3 33 34 24
3 24 35 19
3 19 29 14
3 36 18 37
3 17 36 37
3 18 38 16
3 39 17 15
3 16 40 13
3 13 28 8
3 41 12 42
3 11 41 42
3 43 10 12
3 44 11 9
3 10 45 7
3 6 46 4
3 4 47 1
3 48 6 49
3 5 48 49
3 27 5 3
3 26 47 27
3 46 27 47
3 50 51 46
3 28 45 44
3 52 44 45
3 43 53 52
3 29 40 39
3 38 39 40
3 54 55 38
3 29 32 30
3 56 35 34
3 31 34 57
3 0 3 1
3 3 5 4
3 5 49 6
3 7 0 8
3 9 11 10
3 11 42 12
3 13 8 14
3 15 17 16
3 17 37 18
3 19 14 20
3 22 24 19
3 23 33 24
3 1 47 25
3 3 0 26
3 7 45 26
3 28 44 9
3 29 39 15
3 30 32 21
3 22 56 31
3 32 56 22
3 31 57 33
3 33 57 34
3 24 34 35
3 19 35 29
3 36 54 18
3 17 55 36
3 18 54 38
3 39 55 17
3 16 38 40
3 13 40 28
3 41 43 12
3 11 53 41
3 43 52 10
3 44 53 11
3 10 52 45
3 6 50 46
3 4 46 47
3 48 50 6
3 5 51 48
3 27 51 5
3 26 25 47
3 46 51 27
3 50 48 51
3 28 26 45
3 52 53 44
3 43 41 53
3 29 28 40
3 38 55 39
3 54 36 55
3 29 35 32
3 56 32 35
3 31 56 34
3 8 0 28
3 0 2 25
3 25 26 0
3 26 28 0
3 28 29 14
3 29 30 14
3 30 20 14
3 14 8 28
