ply
format ascii 1.0
comment Created by Blender 2.82 (sub 7) - www.blender.org, source file: 'person.blend'
element vertex 8
property float x
property float y
property float z
property float nx
property float ny
property float nz
element face 12
property list uchar uint vertex_indices
end_header
-0.184913 -0.130621 0.059997 -0.775140 -0.631397 0.021424
-0.184032 0.034808 0.055063 -0.885128 0.461226 0.061342
0.058835 -0.069762 -0.206790 0.001587 -0.510544 -0.859828
0.077117 0.168726 -0.197399 -0.028596 0.685293 -0.727683
-0.050939 -0.127694 0.182057 0.043672 -0.617786 0.785089
0.195654 -0.067704 -0.060740 0.842189 -0.539140 0.001770
-0.050056 0.037735 0.177122 -0.032533 0.472549 0.880673
0.210481 0.172876 -0.063840 0.742485 0.666555 0.066225
3 0 1 2
3 1 3 2
3 4 0 5
3 0 2 5
3 6 1 0
3 6 0 4
3 7 3 6
3 3 1 6
3 7 6 5
3 6 4 5
3 3 5 2
3 3 7 5
