ply
format ascii 1.0
comment Created by Blender 2.82 (sub 7) - www.blender.org, source file: 'person.blend'
element vertex 58
property float x
property float y
property float z
property float nx
property float ny
property float nz
element face 112
property list uchar uint vertex_indices
end_header
0.509273 -0.219675 0.389618 -0.030732 -0.836543 -0.546983
0.692089 -0.242467 0.612189 0.946623 -0.217658 0.237709
0.588491 -0.345607 0.585426 0.159398 -0.986999 0.020112
0.416371 -0.071913 0.177398 -0.015198 -0.796960 -0.603778
0.630619 -0.098863 0.420966 0.962096 0.115452 -0.246956
0.552556 0.063712 0.212559 0.930174 0.150456 -0.334849
0.230539 0.126595 -0.059301 0.045473 0.166845 -0.984924
0.393624 0.318338 -0.021581 0.412824 0.603504 -0.682150
0.345208 -0.433930 0.388903 -0.024293 -0.848476 -0.528611
0.555301 -0.452906 0.637622 0.950652 -0.204413 0.233253
0.440194 -0.567507 0.607883 0.171392 -0.984802 0.027375
0.236020 -0.276967 0.151666 -0.024751 -0.803522 -0.594714
0.480042 -0.299694 0.423735 0.955290 0.129887 -0.265542
0.386353 -0.127257 0.190479 0.928281 0.150548 -0.339976
0.049002 -0.054732 -0.105871 0.060121 0.200720 -0.977783
0.237662 -0.694884 0.494793 0.176855 -0.983703 0.031953
0.270897 -0.456993 0.328036 0.952025 0.134892 -0.274575
0.341261 -0.591742 0.521557 0.952361 -0.197790 0.232124
0.149549 -0.577806 0.296688 -0.018921 -0.854640 -0.518815
0.183463 -0.303831 0.117253 0.928312 0.138951 -0.344798
0.046980 -0.439754 0.082017 -0.013062 -0.810480 -0.585589
-0.142874 -0.243472 -0.157375 0.092563 0.222510 -0.970519
0.025491 -0.772459 0.330598 0.181738 -0.982604 0.037507
0.061195 -0.574118 0.198857 0.950438 0.137089 -0.278970
0.117577 -0.680776 0.354387 0.952483 -0.195593 0.233467
-0.046670 -0.681507 0.170990 -0.013886 -0.859706 -0.510544
-0.011280 -0.451932 0.029465 0.916623 0.158238 -0.367016
-0.132148 -0.572302 -0.001740 -0.029115 -0.796472 -0.603931
-0.307564 -0.373345 -0.202291 -0.412519 -0.183325 -0.892300
-0.064836 -0.479680 0.311440 0.048616 0.816767 0.574908
-0.135495 -0.360116 0.144974 0.128269 0.754082 0.644093
-0.002453 -0.590837 0.461610 0.215827 0.362316 0.906705
-0.172702 -0.587067 0.283574 -0.920530 -0.186071 0.343425
-0.094539 -0.682519 0.437821 -0.560381 -0.423383 0.711814
0.023519 -0.483369 0.409271 -0.926023 -0.179083 0.332194
0.144865 -0.362555 0.440619 0.048555 0.815363 0.576861
0.059248 -0.212017 0.232762 0.113651 0.748924 0.652821
0.117636 -0.604943 0.602016 -0.566210 -0.423811 0.706931
0.221233 -0.501803 0.628780 0.213446 0.361827 0.907468
0.111807 -0.185153 0.267175 -0.898831 -0.244575 0.363628
0.219177 -0.339493 0.501487 -0.931333 -0.172491 0.320627
0.354009 -0.205258 0.536318 0.051790 0.809992 0.584124
0.262137 -0.035442 0.305988 0.111332 0.766747 0.632160
0.320163 -0.477567 0.715105 -0.571398 -0.425214 0.701895
0.435272 -0.362966 0.744844 0.209815 0.356609 0.910367
0.292155 0.019902 0.292907 -0.892209 -0.246437 0.378430
0.383240 -0.125237 0.502200 -0.939146 -0.160863 0.303446
0.468462 -0.255668 0.692647 -0.580493 -0.429731 0.691580
0.572060 -0.152524 0.719412 0.204138 0.344523 0.916288
0.504590 -0.004426 0.533549 0.058687 0.794824 0.603961
0.428339 0.155529 0.328067 0.128513 0.751457 0.647084
0.291892 0.373479 0.145012 -0.177038 0.953246 0.244881
0.124196 0.187276 0.104143 -0.733268 0.660176 0.162633
-0.057340 0.005949 0.057573 -0.720206 0.675558 0.157628
-0.077234 -0.347939 0.197528 -0.881375 -0.262612 0.392621
-0.256363 -0.480485 0.113769 -0.877651 -0.285226 0.385113
-0.249214 -0.182790 0.006068 -0.691214 0.695517 0.195990
-0.409294 -0.318206 -0.035699 -0.988098 0.143223 0.055605
3 0 1 2
3 3 4 0
3 5 6 7
3 8 9 10
3 11 12 8
3 13 14 6
3 15 16 17
3 18 19 16
3 14 20 21
3 22 23 24
3 25 26 23
3 21 27 28
3 29 26 30
3 31 23 29
3 31 22 24
3 32 27 25
3 33 25 22
3 34 20 18
3 35 19 36
3 37 18 15
3 38 16 35
3 38 15 17
3 39 14 11
3 40 11 8
3 41 13 42
3 43 8 10
3 44 12 41
3 44 10 9
3 45 6 3
3 46 3 0
3 47 0 2
3 48 2 1
3 49 5 50
3 48 4 49
3 50 7 51
3 42 6 52
3 36 14 53
3 54 21 20
3 21 30 26
3 55 28 27
3 46 48 49
3 45 49 50
3 50 52 45
3 40 44 41
3 39 41 42
3 39 52 53
3 35 37 38
3 36 34 35
3 54 53 56
3 29 33 31
3 30 32 29
3 56 55 30
3 0 4 1
3 3 5 4
3 5 3 6
3 8 12 9
3 11 13 12
3 13 11 14
3 15 18 16
3 18 20 19
3 14 19 20
3 22 25 23
3 25 27 26
3 21 26 27
3 29 23 26
3 31 24 23
3 31 33 22
3 32 55 27
3 33 32 25
3 34 54 20
3 35 16 19
3 37 34 18
3 38 17 16
3 38 37 15
3 39 53 14
3 40 39 11
3 41 12 13
3 43 40 8
3 44 9 12
3 44 43 10
3 45 52 6
3 46 45 3
3 47 46 0
3 48 47 2
3 49 4 5
3 48 1 4
3 50 5 7
3 42 13 6
3 36 19 14
3 54 56 21
3 21 56 30
3 55 57 28
3 46 47 48
3 45 46 49
3 50 51 52
3 40 43 44
3 39 40 41
3 39 42 52
3 35 34 37
3 36 54 34
3 54 36 53
3 29 32 33
3 30 55 32
3 56 57 55
3 28 57 56
3 51 7 52
3 7 6 52
3 14 21 53
3 21 28 56
3 6 14 52
3 56 53 21
3 53 52 14
