ply
format ascii 1.0
comment Created by Blender 2.82 (sub 7) - www.blender.org, source file: 'person.blend'
element vertex 58
property float x
property float y
property float z
property float nx
property float ny
property float nz
element face 112
property list uchar uint vertex_indices
end_header
0.320793 0.033787 0.126490 -0.030732 -0.836543 -0.546983
0.503610 0.010995 0.349060 0.946623 -0.217658 0.237709
0.400012 -0.092145 0.322297 0.159398 -0.986999 0.020112
0.227892 0.181549 -0.085730 -0.015198 -0.796960 -0.603778
0.442140 0.154599 0.157838 0.962096 0.115452 -0.246956
0.364077 0.317174 -0.050569 0.930174 0.150456 -0.334849
0.042060 0.380056 -0.322430 0.045473 0.166845 -0.984924
0.205145 0.571799 -0.284709 0.412824 0.603504 -0.682150
0.156729 -0.180468 0.125775 -0.024293 -0.848476 -0.528611
0.366821 -0.199444 0.374493 0.950652 -0.204413 0.233253
0.251715 -0.314045 0.344755 0.171392 -0.984802 0.027375
0.047541 -0.023505 -0.111462 -0.024751 -0.803522 -0.594714
0.291562 -0.046233 0.160607 0.955290 0.129887 -0.265542
0.197874 0.126205 -0.072649 0.928281 0.150548 -0.339976
-0.139478 0.198730 -0.368999 0.060121 0.200720 -0.977783
0.049183 -0.441422 0.231665 0.176855 -0.983703 0.031953
0.082417 -0.203531 0.064908 0.952025 0.134892 -0.274575
0.152781 -0.338281 0.258429 0.952361 -0.197790 0.232124
-0.038931 -0.324344 0.033560 -0.018921 -0.854640 -0.518815
-0.005016 -0.050370 -0.145875 0.928312 0.138951 -0.344798
-0.141500 -0.186292 -0.181111 -0.013062 -0.810480 -0.585589
-0.331353 0.009990 -0.420503 0.092563 0.222510 -0.970519
-0.162989 -0.518997 0.067470 0.181738 -0.982604 0.037507
-0.127284 -0.320656 -0.064272 0.950438 0.137089 -0.278970
-0.070903 -0.427315 0.091258 0.952483 -0.195593 0.233467
-0.235149 -0.428045 -0.092138 -0.013886 -0.859706 -0.510544
-0.199759 -0.198470 -0.233664 0.916623 0.158238 -0.367016
-0.320627 -0.318840 -0.264869 -0.029115 -0.796472 -0.603931
-0.496043 -0.119884 -0.465420 -0.412519 -0.183325 -0.892300
-0.253315 -0.226218 0.048311 0.048616 0.816767 0.574908
-0.323975 -0.106654 -0.118155 0.128269 0.754082 0.644093
-0.190932 -0.337376 0.198481 0.215827 0.362316 0.906705
-0.361181 -0.333605 0.020446 -0.920530 -0.186071 0.343425
-0.283018 -0.429057 0.174692 -0.560381 -0.423383 0.711814
-0.164961 -0.229908 0.146143 -0.926023 -0.179083 0.332194
-0.043614 -0.109094 0.177491 0.048555 0.815363 0.576861
-0.129231 0.041445 -0.030366 0.113651 0.748924 0.652821
-0.070844 -0.351481 0.338887 -0.566210 -0.423811 0.706931
0.032754 -0.248341 0.365652 0.213446 0.361827 0.907468
-0.076673 0.068309 0.004047 -0.898831 -0.244575 0.363628
0.030698 -0.086031 0.238358 -0.931333 -0.172491 0.320627
0.165529 0.048204 0.273190 0.051790 0.809992 0.584124
0.073658 0.218020 0.042860 0.111332 0.766747 0.632160
0.131683 -0.224105 0.451977 -0.571398 -0.425214 0.701895
0.246793 -0.109504 0.481715 0.209815 0.356609 0.910367
0.103676 0.273364 0.029779 -0.892209 -0.246437 0.378430
0.194760 0.128225 0.239072 -0.939146 -0.160863 0.303446
0.279983 -0.002206 0.429519 -0.580493 -0.429731 0.691580
0.383580 0.100937 0.456284 0.204138 0.344523 0.916288
0.316111 0.249036 0.270421 0.058687 0.794824 0.603961
0.239860 0.408991 0.064939 0.128513 0.751457 0.647084
0.103413 0.626941 -0.118116 -0.177038 0.953246 0.244881
-0.064283 0.440738 -0.158985 -0.733268 0.660176 0.162633
-0.245819 0.259411 -0.205555 -0.720206 0.675558 0.157628
-0.265714 -0.094477 -0.065601 -0.881375 -0.262612 0.392621
-0.444842 -0.227023 -0.149360 -0.877651 -0.285226 0.385113
-0.437694 0.070672 -0.257060 -0.691214 0.695517 0.195990
-0.597774 -0.064744 -0.298827 -0.988098 0.143223 0.055605
3 0 1 2
3 3 4 0
3 5 6 7
3 8 9 10
3 11 12 8
3 13 14 6
3 15 16 17
3 18 19 16
3 14 20 21
3 22 23 24
3 25 26 23
3 21 27 28
3 29 26 30
3 31 23 29
3 31 22 24
3 32 27 25
3 33 25 22
3 34 20 18
3 35 19 36
3 37 18 15
3 38 16 35
3 38 15 17
3 39 14 11
3 40 11 8
3 41 13 42
3 43 8 10
3 44 12 41
3 44 10 9
3 45 6 3
3 46 3 0
3 47 0 2
3 48 2 1
3 49 5 50
3 48 4 49
3 50 7 51
3 42 6 52
3 36 14 53
3 54 21 20
3 21 30 26
3 55 28 27
3 46 48 49
3 45 49 50
3 50 52 45
3 40 44 41
3 39 41 42
3 39 52 53
3 35 37 38
3 36 34 35
3 54 53 56
3 29 33 31
3 30 32 29
3 56 55 30
3 0 4 1
3 3 5 4
3 5 3 6
3 8 12 9
3 11 13 12
3 13 11 14
3 15 18 16
3 18 20 19
3 14 19 20
3 22 25 23
3 25 27 26
3 21 26 27
3 29 23 26
3 31 24 23
3 31 33 22
3 32 55 27
3 33 32 25
3 34 54 20
3 35 16 19
3 37 34 18
3 38 17 16
3 38 37 15
3 39 53 14
3 40 39 11
3 41 12 13
3 43 40 8
3 44 9 12
3 44 43 10
3 45 52 6
3 46 45 3
3 47 46 0
3 48 47 2
3 49 4 5
3 48 1 4
3 50 5 7
3 42 13 6
3 36 19 14
3 54 56 21
3 21 56 30
3 55 57 28
3 46 47 48
3 45 46 49
3 50 51 52
3 40 43 44
3 39 40 41
3 39 42 52
3 35 34 37
3 36 54 34
3 54 36 53
3 29 32 33
3 30 55 32
3 56 57 55
3 28 57 56
3 51 7 52
3 7 6 52
3 14 21 53
3 21 28 56
3 6 14 52
3 56 53 21
3 53 52 14
