ply
format ascii 1.0
comment Created by Blender 2.82 (sub 7) - www.blender.org, source file: 'person.blend'
element vertex 8
property float x
property float y
property float z
property float nx
property float ny
property float nz
element face 12
property list uchar uint vertex_indices
end_header
0.045022 0.037607 0.176151 0.013825 0.473891 0.880459
-0.193002 -0.067756 -0.060430 -0.833918 -0.551836 -0.005341
0.051279 -0.127769 0.181982 -0.039827 -0.617206 0.785760
-0.215789 0.172745 -0.064856 -0.753563 0.654866 0.056917
-0.078861 0.168630 -0.197821 0.022950 0.684317 -0.728813
0.182274 0.034713 0.054638 0.876980 0.475600 0.068148
0.188531 -0.130663 0.060467 0.784204 -0.619678 0.031220
-0.052402 -0.069777 -0.205850 0.019654 -0.511093 -0.859279
3 0 1 2
3 3 1 0
3 4 0 5
3 3 0 4
3 0 2 6
3 0 6 5
3 6 1 7
3 2 1 6
3 5 7 4
3 6 7 5
3 1 4 7
3 1 3 4
