ply
format ascii 1.0
comment Created by Blender 2.82 (sub 7) - www.blender.org, source file: 'person.blend'
element vertex 107
property float x
property float y
property float z
property float nx
property float ny
property float nz
element face 209
property list uchar uint vertex_indices
end_header
0.173048 0.177632 0.678502 0.574602 -0.296548 0.762780
-0.170383 -0.163710 0.624371 -0.129276 -0.350658 0.927519
0.202570 -0.117236 0.531434 0.585406 -0.247658 0.771966
-0.170478 0.316954 0.836244 -0.147435 -0.284188 0.947356
0.169002 0.426153 0.766226 0.554765 -0.265419 0.788507
-0.374110 0.265936 -0.826567 -0.193793 0.168126 -0.966521
0.067519 -0.425066 -1.099772 0.401654 0.297464 -0.866115
-0.346045 -0.474047 -1.101806 -0.353648 0.258980 -0.898801
-0.648538 -0.364253 -0.798750 -0.857051 0.111820 -0.502914
-0.668289 0.382657 -0.695848 -0.770989 0.060610 -0.633931
-0.542593 0.194826 0.540363 -0.715415 -0.241615 0.655568
-0.161393 0.189553 0.793660 -0.113651 -0.369396 0.922269
-0.816584 0.003929 -0.076842 -0.982238 -0.151982 0.109836
-0.750845 -0.358350 -0.201734 -0.988952 -0.109714 0.099429
-0.851550 0.377571 0.044485 -0.988495 -0.071963 0.132969
-0.555815 -0.079521 0.424442 -0.735343 -0.233192 0.636280
-0.536794 0.573751 0.663673 -0.726249 -0.161077 0.668264
0.098357 0.265969 -0.776984 0.500992 0.167699 -0.849025
0.695131 -0.377975 -0.250317 0.991577 0.121921 -0.043580
0.682541 0.383662 -0.023498 0.990417 -0.136448 -0.021088
0.664001 0.003075 -0.140471 0.998505 0.034516 -0.041871
-0.273409 -4.691315 0.117548 -0.168462 0.346355 0.922819
0.147364 -5.011611 0.043693 0.810083 0.504715 0.298288
0.073042 -4.694050 -0.020578 0.739677 0.189428 0.645711
-0.512218 -4.789624 -1.215884 -0.493362 0.083285 -0.865810
-0.143051 -5.463580 -1.263778 0.571642 -0.098636 -0.814539
-0.630820 -5.503376 -1.296252 -0.523026 -0.129002 -0.842463
-0.735435 -5.439524 -1.065316 -0.977264 -0.053835 -0.205054
-0.638265 -4.772023 -0.984452 -0.941923 0.081515 -0.325694
-0.564298 -4.705661 -0.232573 -0.843410 0.170141 0.509568
-0.350195 -4.870257 0.204056 -0.358959 0.654805 0.665090
-0.733297 -5.199706 -0.562359 -0.989776 -0.062105 0.128330
-0.727351 -4.715209 -0.567570 -0.992859 0.062929 0.101047
-0.636919 -5.092164 -0.220988 -0.952635 0.074831 0.294656
-0.218708 -4.778677 -1.214615 0.478683 0.002655 -0.877957
0.171950 -5.265445 -0.548890 0.955870 0.015290 -0.293374
0.180967 -4.692400 -0.600583 0.975585 -0.052065 -0.213263
-0.445113 -6.004540 1.178762 -0.623035 -0.782159 0.002441
-0.392417 -5.786808 2.017049 -0.796838 0.271432 0.539720
-0.563573 -5.632800 1.064621 -0.967864 0.209021 0.139744
-0.375997 -5.987774 0.559786 -0.537614 -0.843135 -0.006378
-0.567467 -5.456309 0.642137 -0.956999 0.202216 0.207892
0.772036 -5.827721 1.363167 0.933317 0.304086 0.190832
0.561890 -5.996758 0.891435 0.565233 -0.770898 -0.293558
0.653137 -5.675797 0.871441 0.921781 0.328135 -0.206397
0.304809 -5.985848 0.488649 0.531022 -0.814264 -0.234321
0.403144 -5.429036 0.453024 0.934996 0.336711 -0.111087
-0.255933 -6.027800 2.037526 -0.104129 -0.713492 0.692831
0.444316 -5.808960 1.825528 0.547746 0.455550 0.701712
-0.253809 -5.740916 2.100664 -0.090487 0.482742 0.871059
0.731627 -6.009318 1.355157 0.712180 -0.697470 0.079226
-0.537259 -5.960646 -0.441743 -0.621235 -0.780236 0.072451
0.147094 -5.957814 -0.546364 0.673513 -0.681661 -0.285806
-0.291056 -5.503680 1.313766 -0.240089 0.908567 0.341807
0.335377 -5.558049 1.190096 0.331553 0.891507 0.308664
0.267043 -5.360257 0.778203 0.432356 0.848872 0.304025
-0.266694 -5.248580 0.809462 -0.212714 0.862667 0.458815
-0.428954 -5.942067 -1.127680 -0.079287 -0.781243 -0.619160
-0.585490 -5.944701 -1.030479 -0.593432 -0.757317 -0.272530
-0.581378 -5.953473 -0.706604 -0.631611 -0.773797 0.047426
-0.185593 -5.943203 -1.085768 0.441420 -0.718375 -0.537614
0.210490 4.508112 1.596254 -0.196661 0.323801 0.925443
0.793150 3.721228 1.376213 0.610736 -0.101535 0.785272
0.695383 5.083877 1.442955 0.196966 0.658925 0.725944
-0.098884 5.215896 -1.064200 -0.337138 0.311838 -0.888272
0.621344 3.714959 -0.586877 0.662679 -0.026582 -0.748405
-0.044349 3.714910 -0.788116 -0.075014 -0.044099 -0.996185
-0.661054 4.321371 -0.475776 -0.825068 -0.174993 -0.537187
-0.573738 3.736716 -0.571042 -0.752739 0.030732 -0.657552
-0.590713 4.051840 1.226461 -0.766808 -0.101077 0.633808
-0.013612 3.647581 1.544075 -0.148289 -0.091220 0.984710
-0.756974 3.999201 0.494122 -0.999634 -0.024232 -0.010071
-0.843285 3.638543 0.609496 -0.990844 0.072390 0.113834
-0.831362 4.267826 0.524374 -0.953520 0.267953 0.137791
-0.531020 3.699756 1.265656 -0.704154 -0.064547 0.707053
-0.603700 4.448289 1.380435 -0.582965 0.549303 0.598621
1.087571 5.450561 0.598612 0.561510 0.819025 0.117557
0.529907 5.396039 -0.765907 0.371838 0.768426 -0.520768
1.252026 3.658361 0.537956 0.999695 -0.019898 0.012543
-0.110556 2.389766 1.343201 -0.164068 -0.192724 0.967406
0.685975 2.467365 1.143813 0.615528 -0.236549 0.751732
-0.223101 2.321198 -0.779837 -0.196509 0.020234 -0.980285
0.325800 2.274037 -0.721790 0.489059 -0.043855 -0.871120
-0.560787 2.250047 -0.593617 -0.782128 0.038911 -0.621876
-0.840743 2.189176 0.344270 -0.996521 -0.026185 0.079012
-0.537366 2.246030 1.021534 -0.758232 -0.124699 0.639912
1.078777 2.253967 0.266697 0.979827 -0.185583 -0.074038
-0.170975 -1.728944 0.146646 -0.163091 -0.212470 0.963439
0.555259 -1.734717 -0.042368 0.633931 -0.167821 0.754906
-0.351653 -1.710614 -1.387990 -0.368694 0.084567 -0.925687
-0.615043 -1.748367 -1.172238 -0.839991 0.037599 -0.541246
-0.773551 -1.759455 -0.478372 -0.988311 -0.041444 0.146611
-0.557952 -1.744334 -0.120530 -0.739708 -0.126865 0.660848
0.861737 -1.755381 -0.537879 0.995361 -0.066164 -0.069674
0.168641 -1.740021 -1.442066 0.407208 0.049135 -0.911985
-0.364073 -6.025353 1.947187 -0.634754 -0.718680 0.283792
0.437266 -6.021616 1.809269 0.458571 -0.677206 0.575365
0.173730 -3.610438 -0.209725 0.709983 -0.093478 0.697958
-0.238536 -3.609725 -0.080817 -0.235633 0.010468 0.971770
-0.097580 -3.616237 -1.257528 0.431043 -0.117252 -0.894650
-0.421083 -3.616148 -1.240923 -0.442671 -0.031831 -0.896084
-0.572734 -3.615119 -1.055561 -0.900327 -0.002594 -0.435163
-0.515429 -3.611180 -0.343703 -0.796564 -0.002777 0.604511
-0.670625 -3.612742 -0.626029 -0.992065 -0.003388 0.125431
0.328289 -3.612938 -0.661590 0.970153 -0.186285 -0.155095
-0.770911 4.695425 -0.469036 -0.887478 0.315531 -0.335765
-0.430002 5.332004 -1.025985 -0.281442 -0.542039 -0.791803
3 0 1 2
3 3 0 4
3 5 6 7
3 5 8 9
3 10 1 11
3 3 10 11
3 12 8 13
3 14 9 12
3 12 15 10
3 14 10 16
3 17 18 6
3 17 19 20
3 20 2 18
3 19 0 20
3 21 22 23
3 24 25 26
3 24 27 28
3 29 30 21
3 28 31 32
3 32 33 29
3 34 35 25
3 36 22 35
3 37 38 39
3 40 39 41
3 42 43 44
3 44 45 46
3 47 48 49
3 38 47 49
3 48 50 42
3 51 41 33
3 46 52 35
3 31 51 33
3 53 48 54
3 55 53 54
3 53 38 49
3 56 39 53
3 54 42 44
3 55 44 46
3 25 57 26
3 26 58 27
3 27 59 31
3 35 60 25
3 56 22 30
3 41 30 33
3 22 46 35
3 61 62 63
3 64 65 66
3 67 66 68
3 69 70 61
3 71 68 72
3 73 67 71
3 69 72 74
3 73 69 75
3 76 65 77
3 63 78 76
3 79 4 80
3 70 80 62
3 81 17 5
3 66 82 81
3 81 9 83
3 68 81 83
3 79 16 3
3 74 79 70
3 83 14 84
3 68 84 72
3 84 16 85
3 72 85 74
3 82 19 17
3 65 86 82
3 86 4 19
3 78 80 86
3 2 87 88
3 6 89 7
3 7 90 8
3 15 87 1
3 8 91 13
3 13 92 15
3 6 93 94
3 18 88 93
3 59 57 60
3 59 52 51
3 40 52 45
3 37 45 43
3 37 50 95
3 95 96 47
3 87 97 88
3 98 23 97
3 99 89 94
3 34 100 99
3 100 90 89
3 24 101 100
3 92 98 87
3 29 98 102
3 90 103 91
3 101 32 103
3 91 102 92
3 32 102 103
3 104 94 93
3 36 99 104
3 88 104 93
3 97 36 104
3 75 69 61
3 64 105 106
3 76 77 105
3 0 11 1
3 3 11 0
3 5 17 6
3 5 7 8
3 10 15 1
3 3 16 10
3 12 9 8
3 12 13 15
3 14 12 10
3 17 20 18
3 20 0 2
3 19 4 0
3 21 30 22
3 24 34 25
3 24 26 27
3 29 33 30
3 28 27 31
3 32 31 33
3 34 36 35
3 36 23 22
3 37 95 38
3 40 37 39
3 42 50 43
3 44 43 45
3 47 96 48
3 38 95 47
3 48 96 50
3 51 40 41
3 46 45 52
3 31 59 51
3 53 49 48
3 55 56 53
3 53 39 38
3 56 41 39
3 54 48 42
3 55 54 44
3 25 60 57
3 26 57 58
3 27 58 59
3 35 52 60
3 56 55 22
3 41 56 30
3 22 55 46
3 61 70 62
3 64 77 65
3 67 64 66
3 69 74 70
3 71 67 68
3 73 105 67
3 69 71 72
3 73 71 69
3 76 78 65
3 63 62 78
3 79 3 4
3 70 79 80
3 81 82 17
3 66 65 82
3 81 5 9
3 68 66 81
3 79 85 16
3 74 85 79
3 83 9 14
3 68 83 84
3 84 14 16
3 72 84 85
3 82 86 19
3 65 78 86
3 86 80 4
3 78 62 80
3 2 1 87
3 6 94 89
3 7 89 90
3 15 92 87
3 8 90 91
3 13 91 92
3 6 18 93
3 18 2 88
3 59 58 57
3 59 60 52
3 40 51 52
3 37 40 45
3 37 43 50
3 95 50 96
3 87 98 97
3 98 21 23
3 99 100 89
3 34 24 100
3 100 101 90
3 24 28 101
3 92 102 98
3 29 21 98
3 90 101 103
3 101 28 32
3 91 103 102
3 32 29 102
3 104 99 94
3 36 34 99
3 88 97 104
3 97 23 36
3 64 67 105
3 105 73 76
3 64 105 77
3 73 75 61
3 61 63 73
3 63 76 73
