ply
format ascii 1.0
comment Created by Blender 2.82 (sub 7) - www.blender.org, source file: 'person.blend'
element vertex 107
property float x
property float y
property float z
property float nx
property float ny
property float nz
element face 209
property list uchar uint vertex_indices
end_header
-0.600699 -5.340769 -0.494053 -0.991577 0.121921 -0.043580
-0.460828 -6.697511 -0.286104 -0.633931 -0.167821 0.754906
-0.108139 -5.080029 0.287698 -0.585406 -0.247658 0.771966
0.026912 -5.387860 -1.343508 -0.401654 0.297464 -0.866115
-0.767306 -6.718174 -0.781615 -0.995361 -0.066164 -0.069674
0.652383 -6.707128 -0.364266 0.739708 -0.126865 0.660848
0.845276 -5.321144 -0.445470 0.988952 -0.109714 0.099429
0.650247 -5.042315 0.180706 0.735343 -0.233192 0.636280
0.867982 -6.722249 -0.722108 0.988311 -0.041444 0.146611
0.742969 -5.327046 -1.042486 0.857051 0.111820 -0.502914
0.265407 -6.691738 -0.097090 0.163091 -0.212470 0.963439
0.264815 -5.126503 0.380635 0.129276 -0.350658 0.927519
0.709474 -6.711161 -1.415973 0.839991 0.037599 -0.541246
0.440477 -5.436841 -1.345542 0.353648 0.258980 -0.898801
0.446085 -6.673408 -1.631726 0.368694 0.084567 -0.925687
-1.157594 -1.304434 0.294220 -0.999695 -0.019898 0.012543
-0.591543 -2.495429 0.900077 -0.615528 -0.236549 0.751732
-0.698718 -1.241566 1.132477 -0.610706 -0.101535 0.785272
-0.984345 -2.708827 0.022961 -0.979827 -0.185583 -0.074038
-0.074570 -4.536641 0.522490 -0.554765 -0.265419 0.788507
-0.526912 -1.247835 -0.830613 -0.662679 -0.026582 -0.748405
-0.231369 -2.688756 -0.965526 -0.489059 -0.043855 -0.871120
-0.588109 -4.579132 -0.267234 -0.990417 -0.136448 -0.021119
0.631798 -2.716763 0.777798 0.758232 -0.124699 0.639912
0.937717 -1.324251 0.365760 0.990844 0.072390 0.113834
0.625452 -1.263038 1.021920 0.704154 -0.064547 0.707053
0.631226 -4.389042 0.419937 0.726249 -0.161077 0.668264
0.935175 -2.773618 0.100534 0.996521 -0.026185 0.079012
0.668169 -1.226078 -0.814778 0.752739 0.030732 -0.657552
0.945981 -4.585223 -0.199251 0.988495 -0.071963 0.132969
0.655218 -2.712747 -0.837353 0.782128 0.038911 -0.621876
0.204988 -2.573028 1.099465 0.164068 -0.192724 0.967406
0.108044 -1.315213 1.300339 0.148289 -0.091220 0.984710
0.317533 -2.641596 -1.023573 0.196509 0.020234 -0.980285
0.138781 -1.247884 -1.031852 0.075014 -0.044099 -0.996185
0.762721 -4.580137 -0.939584 0.770989 0.060610 -0.633931
-0.003925 -4.696825 -1.020720 -0.500992 0.167699 -0.849025
-0.600951 0.121083 1.199219 -0.196966 0.658925 0.725944
-0.993138 0.487766 0.354876 -0.561510 0.819025 0.117557
-0.435474 0.433244 -1.009643 -0.371838 0.768426 -0.520768
0.685145 -0.910954 0.982725 0.766808 -0.101077 0.633808
0.925793 -0.694968 0.280638 0.953520 0.267953 0.137791
0.698131 -0.514504 1.136699 0.582965 0.549303 0.598621
0.851406 -0.963593 0.250386 0.999634 -0.024232 -0.010071
0.755486 -0.641424 -0.719512 0.825068 -0.174993 -0.537187
0.865343 -0.267369 -0.712771 0.887478 0.315531 -0.335765
-0.116058 -0.454681 1.352518 0.196661 0.323801 0.925443
0.193316 0.253101 -1.307936 0.337138 0.311838 -0.888272
-0.052933 -9.974404 -0.200043 -0.810083 0.504715 0.298288
-0.308712 -10.391829 0.209288 -0.934996 0.336711 -0.111087
-0.172612 -10.323050 0.534467 -0.432356 0.848872 0.304025
0.444626 -9.833051 -0.039680 0.358959 0.654805 0.665090
0.661898 -10.419103 0.398401 0.956999 0.202216 0.207892
0.731350 -10.054957 -0.464724 0.952635 0.074831 0.294656
0.361125 -10.211373 0.565726 0.212714 0.862667 0.458815
-0.077519 -10.228239 -0.792626 -0.955870 0.015290 -0.293344
0.280024 -10.905997 -1.329504 -0.441450 -0.718375 -0.537614
-0.052662 -10.920608 -0.790100 -0.673513 -0.681661 -0.285806
0.829866 -10.402318 -1.309052 0.977264 -0.053835 -0.205054
0.675809 -10.916266 -0.950340 0.631611 -0.773797 0.047426
0.679921 -10.907495 -1.274215 0.593432 -0.757317 -0.272530
0.725251 -10.466170 -1.539987 0.523026 -0.129002 -0.842463
0.523385 -10.904860 -1.371416 0.079287 -0.781243 -0.619160
0.237482 -10.426373 -1.507514 -0.571642 -0.098636 -0.814539
-0.558705 -10.638591 0.627705 -0.921781 0.328135 -0.206397
-0.677605 -10.790515 1.119432 -0.933317 0.304086 0.190832
-0.240946 -10.520843 0.946360 -0.331553 0.891507 0.308664
0.658004 -10.595593 0.820885 0.967864 0.209021 0.139744
0.385488 -10.466474 1.070030 0.240089 0.908567 0.341807
0.486848 -10.749602 1.773313 0.796838 0.271432 0.539720
-0.349885 -10.771754 1.581792 -0.547746 0.455550 0.701712
0.827728 -10.162499 -0.806095 0.989776 -0.062105 0.128330
0.631690 -10.923440 -0.685479 0.621235 -0.780236 0.072451
-0.210378 -10.948642 0.244913 -0.531022 -0.814264 -0.234321
-0.637196 -10.972112 1.111421 -0.712180 -0.697470 0.079226
-0.342835 -10.984410 1.565533 -0.458571 -0.677206 0.575365
0.350365 -10.990594 1.793790 0.104129 -0.713492 0.692831
0.458504 -10.988147 1.703451 0.634754 -0.718680 0.283792
0.348240 -10.703710 1.856928 0.090487 0.482742 0.871059
-0.467459 -10.959552 0.647699 -0.565233 -0.770898 -0.293558
0.470428 -10.950568 0.316050 0.537614 -0.843135 -0.006378
0.539543 -10.967334 0.935026 0.623035 -0.782159 0.002441
-0.086536 -9.655194 -0.844319 -0.975585 -0.052065 -0.213263
0.021389 -9.656844 -0.264314 -0.739677 0.189428 0.645711
0.313139 -9.741471 -1.458351 -0.478683 0.002655 -0.877957
0.821783 -9.678002 -0.811306 0.992859 0.062929 0.101047
0.658729 -9.668457 -0.476309 0.843410 0.170141 0.509568
0.732696 -9.734817 -1.228188 0.941923 0.081515 -0.325694
0.367840 -9.654109 -0.126188 0.168462 0.346355 0.922819
0.606649 -9.752418 -1.459620 0.493362 0.083285 -0.865810
-0.078617 -4.785161 0.434766 -0.574602 -0.296548 0.762780
-0.569569 -4.959719 -0.384207 -0.998505 0.034516 -0.041871
0.637025 -4.767968 0.296627 0.715415 -0.241615 0.655568
0.911015 -4.958865 -0.320578 0.982238 -0.151982 0.109836
0.264909 -4.645840 0.592508 0.147435 -0.284188 0.947356
0.255825 -4.773241 0.549924 0.113651 -0.369396 0.922269
0.468541 -4.696857 -1.070303 0.193793 0.168126 -0.966521
-0.233858 -8.575732 -0.905326 -0.970153 -0.186285 -0.155095
-0.079299 -8.573232 -0.453461 -0.709983 -0.093478 0.697958
-0.074209 -6.702815 -1.685801 -0.407208 0.049135 -0.911985
0.192011 -8.579031 -1.501264 -0.431043 -0.117252 -0.894650
0.609860 -8.573975 -0.587439 0.796564 -0.002777 0.604511
0.765056 -8.575536 -0.869765 0.992065 -0.003388 0.125431
0.667166 -8.577913 -1.299297 0.900327 -0.002594 -0.435163
0.332967 -8.572518 -0.324553 0.235633 0.010468 0.971770
0.515514 -8.578941 -1.484659 0.442671 -0.031831 -0.896084
0.524435 0.369209 -1.269721 0.281442 -0.542039 -0.791803
3 0 1 2
3 3 4 0
3 5 6 7
3 8 9 6
3 10 7 11
3 12 13 9
3 14 3 13
3 2 10 11
3 15 16 17
3 18 19 16
3 20 18 15
3 21 22 18
3 23 24 25
3 26 27 23
3 27 28 24
3 29 30 27
3 31 25 32
3 31 26 23
3 28 33 34
3 35 33 30
3 34 21 20
3 33 36 21
3 16 32 17
3 19 31 16
3 15 37 38
3 20 38 39
3 40 41 42
3 40 24 43
3 41 44 45
3 43 28 44
3 32 40 46
3 44 34 47
3 47 20 39
3 17 46 37
3 48 49 50
3 51 52 53
3 48 54 51
3 55 56 57
3 58 59 60
3 61 60 62
3 63 62 56
3 64 50 49
3 65 66 64
3 54 67 52
3 68 69 67
3 50 68 54
3 70 68 66
3 71 72 59
3 49 57 73
3 52 72 53
3 70 74 75
3 69 76 77
3 70 76 78
3 64 73 79
3 65 79 74
3 67 80 52
3 69 81 67
3 82 48 83
3 84 55 82
3 53 85 86
3 71 87 85
3 51 86 88
3 58 89 87
3 89 63 84
3 48 88 83
3 22 90 19
3 91 2 90
3 36 91 22
3 36 0 91
3 92 29 26
3 7 93 92
3 29 93 35
3 93 9 35
3 94 92 26
3 11 92 95
3 9 96 35
3 96 3 36
3 90 94 19
3 90 11 95
3 74 81 77
3 77 75 74
3 73 81 79
3 57 80 73
3 57 59 72
3 59 62 60
3 97 1 4
3 82 98 97
3 99 97 4
3 100 82 97
3 101 8 5
3 101 85 102
3 102 12 8
3 85 103 102
3 104 5 10
3 104 86 101
3 12 105 14
3 103 89 105
3 14 100 99
3 105 84 100
3 98 10 1
3 83 104 98
3 46 40 42
3 47 45 44
3 47 39 45
3 0 4 1
3 3 99 4
3 5 8 6
3 8 12 9
3 10 5 7
3 12 14 13
3 14 99 3
3 2 1 10
3 15 18 16
3 18 22 19
3 20 21 18
3 21 36 22
3 23 27 24
3 26 29 27
3 27 30 28
3 29 35 30
3 31 23 25
3 31 94 26
3 28 30 33
3 35 96 33
3 34 33 21
3 33 96 36
3 16 31 32
3 19 94 31
3 15 17 37
3 20 15 38
3 40 43 41
3 40 25 24
3 41 43 44
3 43 24 28
3 32 25 40
3 44 28 34
3 47 34 20
3 17 32 46
3 48 55 49
3 51 54 52
3 48 50 54
3 55 63 56
3 58 71 59
3 61 58 60
3 63 61 62
3 64 66 50
3 65 70 66
3 54 68 67
3 68 78 69
3 50 66 68
3 70 78 68
3 71 53 72
3 49 55 57
3 52 80 72
3 70 65 74
3 69 78 76
3 70 75 76
3 64 49 73
3 65 64 79
3 67 81 80
3 69 77 81
3 82 55 48
3 84 63 55
3 53 71 85
3 71 58 87
3 51 53 86
3 58 61 89
3 89 61 63
3 48 51 88
3 22 91 90
3 91 0 2
3 36 3 0
3 92 93 29
3 7 6 93
3 93 6 9
3 94 95 92
3 11 7 92
3 9 13 96
3 96 13 3
3 90 95 94
3 90 2 11
3 74 79 81
3 77 76 75
3 73 80 81
3 57 72 80
3 57 56 59
3 59 56 62
3 97 98 1
3 82 83 98
3 99 100 97
3 100 84 82
3 101 102 8
3 101 86 85
3 102 103 12
3 85 87 103
3 104 101 5
3 104 88 86
3 12 103 105
3 103 87 89
3 14 105 100
3 105 89 84
3 98 104 10
3 83 88 104
3 47 106 45
3 39 38 45
3 38 37 41
3 45 38 41
3 37 46 41
3 46 42 41
