ply
format ascii 1.0
comment Created by Blender 2.82 (sub 7) - www.blender.org, source file: 'person.blend'
element vertex 107
property float x
property float y
property float z
property float nx
property float ny
property float nz
element face 209
property list uchar uint vertex_indices
end_header
0.092916 -4.830555 0.574283 0.574602 -0.296548 0.762780
-0.250515 -5.171897 0.520152 -0.129276 -0.350658 0.927519
0.122438 -5.125423 0.427215 0.585406 -0.247658 0.771966
-0.250610 -4.691234 0.732025 -0.147435 -0.284188 0.947356
0.088870 -4.582035 0.662007 0.554765 -0.265419 0.788507
-0.454242 -4.742251 -0.930786 -0.193793 0.168126 -0.966521
-0.012613 -5.433254 -1.203991 0.401654 0.297464 -0.866115
-0.426177 -5.482234 -1.206025 -0.353648 0.258980 -0.898801
-0.728670 -5.372440 -0.902969 -0.857051 0.111820 -0.502914
-0.748421 -4.625531 -0.800067 -0.770989 0.060610 -0.633931
-0.622725 -4.813362 0.436144 -0.715415 -0.241615 0.655568
-0.241525 -4.818635 0.689441 -0.113651 -0.369396 0.922269
-0.896716 -5.004259 -0.181061 -0.982238 -0.151982 0.109836
-0.830977 -5.366538 -0.305953 -0.988952 -0.109714 0.099429
-0.931682 -4.630617 -0.059734 -0.988495 -0.071963 0.132969
-0.635947 -5.087708 0.320223 -0.735343 -0.233192 0.636280
-0.616926 -4.434436 0.559454 -0.726249 -0.161077 0.668264
0.018225 -4.742218 -0.881203 0.500992 0.167699 -0.849025
0.614999 -5.386163 -0.354536 0.991577 0.121921 -0.043580
0.602409 -4.624526 -0.127717 0.990417 -0.136448 -0.021119
0.583869 -5.005113 -0.244690 0.998505 0.034516 -0.041871
-0.353541 -9.699503 0.013329 -0.168462 0.346355 0.922819
0.067232 -10.019798 -0.060526 0.810083 0.504715 0.298288
-0.007090 -9.702238 -0.124797 0.739677 0.189428 0.645711
-0.592350 -9.797812 -1.320103 -0.493362 0.083285 -0.865810
-0.223183 -10.471767 -1.367997 0.571642 -0.098636 -0.814539
-0.710952 -10.511564 -1.400470 -0.523026 -0.129002 -0.842463
-0.815567 -10.447712 -1.169535 -0.977264 -0.053835 -0.205054
-0.718397 -9.780210 -1.088670 -0.941923 0.081515 -0.325694
-0.644430 -9.713849 -0.336792 -0.843410 0.170141 0.509568
-0.430327 -9.878445 0.099837 -0.358959 0.654805 0.665090
-0.813429 -10.207893 -0.666578 -0.989776 -0.062105 0.128330
-0.807483 -9.723396 -0.671789 -0.992859 0.062929 0.101047
-0.717051 -10.100351 -0.325207 -0.952635 0.074831 0.294656
-0.298840 -9.786865 -1.318834 0.478683 0.002655 -0.877957
0.091818 -10.273633 -0.653109 0.955870 0.015290 -0.293374
0.100835 -9.700588 -0.704802 0.975585 -0.052065 -0.213263
-0.525245 -11.012728 1.074543 -0.623035 -0.782159 0.002441
-0.472549 -10.794996 1.912830 -0.796838 0.271432 0.539720
-0.643705 -10.640987 0.960402 -0.967864 0.209021 0.139744
-0.456129 -10.995962 0.455567 -0.537614 -0.843135 -0.006378
-0.647599 -10.464497 0.537918 -0.956999 0.202216 0.207892
0.691904 -10.835909 1.258948 0.933317 0.304086 0.190832
0.481758 -11.004946 0.787216 0.565233 -0.770898 -0.293558
0.573005 -10.683985 0.767222 0.921781 0.328135 -0.206397
0.224677 -10.994036 0.384430 0.531022 -0.814264 -0.234321
0.323012 -10.437223 0.348805 0.934996 0.336711 -0.111087
-0.336065 -11.035988 1.933307 -0.104129 -0.713492 0.692831
0.364184 -10.817148 1.721309 0.547746 0.455550 0.701712
-0.333941 -10.749104 1.996445 -0.090487 0.482742 0.871059
0.651495 -11.017506 1.250938 0.712180 -0.697470 0.079226
-0.617391 -10.968834 -0.545962 -0.621235 -0.780236 0.072451
0.066962 -10.966002 -0.650583 0.673513 -0.681661 -0.285806
-0.371188 -10.511868 1.209547 -0.240089 0.908567 0.341807
0.255245 -10.566236 1.085877 0.331553 0.891507 0.308664
0.186911 -10.368444 0.673984 0.432356 0.848872 0.304025
-0.346826 -10.256767 0.705243 -0.212714 0.862667 0.458815
-0.509086 -10.950254 -1.231899 -0.079287 -0.781243 -0.619160
-0.665622 -10.952888 -1.134698 -0.593432 -0.757317 -0.272530
-0.661510 -10.961660 -0.810823 -0.631611 -0.773797 0.047426
-0.265725 -10.951391 -1.189987 0.441420 -0.718375 -0.537614
0.130358 -0.500075 1.492035 -0.196661 0.323801 0.925443
0.713018 -1.286960 1.271994 0.610736 -0.101535 0.785272
0.615251 0.075689 1.338736 0.196966 0.658925 0.725944
-0.179016 0.207708 -1.168419 -0.337138 0.311838 -0.888272
0.541212 -1.293229 -0.691096 0.662679 -0.026582 -0.748405
-0.124481 -1.293278 -0.892335 -0.075014 -0.044099 -0.996185
-0.741186 -0.686817 -0.579995 -0.825068 -0.174993 -0.537187
-0.653870 -1.271472 -0.675261 -0.752739 0.030732 -0.657552
-0.670845 -0.956347 1.122242 -0.766808 -0.101077 0.633808
-0.093744 -1.360607 1.439856 -0.148289 -0.091220 0.984710
-0.837106 -1.008986 0.389903 -0.999634 -0.024232 -0.010071
-0.923417 -1.369645 0.505277 -0.990844 0.072390 0.113834
-0.911494 -0.740362 0.420155 -0.953520 0.267953 0.137791
-0.611152 -1.308432 1.161437 -0.704154 -0.064547 0.707053
-0.683832 -0.559898 1.276216 -0.582995 0.549303 0.598621
1.007439 0.442373 0.494393 0.561510 0.819025 0.117557
0.449775 0.387851 -0.870126 0.371838 0.768426 -0.520768
1.171894 -1.349827 0.433737 0.999695 -0.019898 0.012543
-0.190688 -2.618422 1.238982 -0.164068 -0.192724 0.967406
0.605843 -2.540823 1.039594 0.615528 -0.236549 0.751732
-0.303233 -2.686990 -0.884056 -0.196509 0.020234 -0.980285
0.245668 -2.734150 -0.826009 0.489059 -0.043855 -0.871120
-0.640919 -2.758141 -0.697836 -0.782128 0.038911 -0.621876
-0.920875 -2.819011 0.240051 -0.996521 -0.026185 0.079012
-0.617498 -2.762157 0.917315 -0.758232 -0.124699 0.639912
0.998645 -2.754220 0.162478 0.979827 -0.185583 -0.074038
-0.251107 -6.737132 0.042427 -0.163091 -0.212470 0.963439
0.475127 -6.742905 -0.146587 0.633931 -0.167821 0.754906
-0.431785 -6.718801 -1.492208 -0.368694 0.084567 -0.925687
-0.695175 -6.756555 -1.276457 -0.839991 0.037599 -0.541246
-0.853683 -6.767642 -0.582591 -0.988311 -0.041444 0.146611
-0.638084 -6.752522 -0.224749 -0.739708 -0.126865 0.660848
0.781605 -6.763568 -0.642098 0.995361 -0.066164 -0.069674
0.088509 -6.748209 -1.546285 0.407208 0.049135 -0.911985
-0.444205 -11.033541 1.842968 -0.634754 -0.718680 0.283792
0.357134 -11.029804 1.705050 0.458571 -0.677206 0.575365
0.093598 -8.618626 -0.313944 0.709983 -0.093478 0.697958
-0.318668 -8.617912 -0.185036 -0.235633 0.010468 0.971770
-0.177712 -8.624425 -1.361747 0.431043 -0.117252 -0.894650
-0.501215 -8.624335 -1.345142 -0.442671 -0.031831 -0.896084
-0.652866 -8.623307 -1.159780 -0.900327 -0.002594 -0.435163
-0.595561 -8.619368 -0.447922 -0.796564 -0.002777 0.604511
-0.750757 -8.620930 -0.730248 -0.992065 -0.003388 0.125431
0.248157 -8.621126 -0.765809 0.970153 -0.186285 -0.155095
-0.851043 -0.312763 -0.573255 -0.887478 0.315531 -0.335765
-0.510134 0.323816 -1.130203 -0.281442 -0.542039 -0.791803
3 0 1 2
3 3 0 4
3 5 6 7
3 5 8 9
3 10 1 11
3 3 10 11
3 12 8 13
3 14 9 12
3 12 15 10
3 14 10 16
3 17 18 6
3 17 19 20
3 20 2 18
3 19 0 20
3 21 22 23
3 24 25 26
3 24 27 28
3 29 30 21
3 28 31 32
3 32 33 29
3 34 35 25
3 36 22 35
3 37 38 39
3 40 39 41
3 42 43 44
3 44 45 46
3 47 48 49
3 38 47 49
3 48 50 42
3 51 41 33
3 46 52 35
3 31 51 33
3 53 48 54
3 55 53 54
3 53 38 49
3 56 39 53
3 54 42 44
3 55 44 46
3 25 57 26
3 26 58 27
3 27 59 31
3 35 60 25
3 56 22 30
3 41 30 33
3 22 46 35
3 61 62 63
3 64 65 66
3 67 66 68
3 69 70 61
3 71 68 72
3 73 67 71
3 69 72 74
3 73 69 75
3 76 65 77
3 63 78 76
3 79 4 80
3 70 80 62
3 81 17 5
3 66 82 81
3 81 9 83
3 68 81 83
3 79 16 3
3 74 79 70
3 83 14 84
3 68 84 72
3 84 16 85
3 72 85 74
3 82 19 17
3 65 86 82
3 86 4 19
3 78 80 86
3 2 87 88
3 6 89 7
3 7 90 8
3 15 87 1
3 8 91 13
3 13 92 15
3 6 93 94
3 18 88 93
3 59 57 60
3 59 52 51
3 40 52 45
3 37 45 43
3 37 50 95
3 95 96 47
3 87 97 88
3 98 23 97
3 99 89 94
3 34 100 99
3 100 90 89
3 24 101 100
3 92 98 87
3 29 98 102
3 90 103 91
3 101 32 103
3 91 102 92
3 32 102 103
3 104 94 93
3 36 99 104
3 88 104 93
3 97 36 104
3 75 69 61
3 64 105 106
3 76 77 105
3 0 11 1
3 3 11 0
3 5 17 6
3 5 7 8
3 10 15 1
3 3 16 10
3 12 9 8
3 12 13 15
3 14 12 10
3 17 20 18
3 20 0 2
3 19 4 0
3 21 30 22
3 24 34 25
3 24 26 27
3 29 33 30
3 28 27 31
3 32 31 33
3 34 36 35
3 36 23 22
3 37 95 38
3 40 37 39
3 42 50 43
3 44 43 45
3 47 96 48
3 38 95 47
3 48 96 50
3 51 40 41
3 46 45 52
3 31 59 51
3 53 49 48
3 55 56 53
3 53 39 38
3 56 41 39
3 54 48 42
3 55 54 44
3 25 60 57
3 26 57 58
3 27 58 59
3 35 52 60
3 56 55 22
3 41 56 30
3 22 55 46
3 61 70 62
3 64 77 65
3 67 64 66
3 69 74 70
3 71 67 68
3 73 105 67
3 69 71 72
3 73 71 69
3 76 78 65
3 63 62 78
3 79 3 4
3 70 79 80
3 81 82 17
3 66 65 82
3 81 5 9
3 68 66 81
3 79 85 16
3 74 85 79
3 83 9 14
3 68 83 84
3 84 14 16
3 72 84 85
3 82 86 19
3 65 78 86
3 86 80 4
3 78 62 80
3 2 1 87
3 6 94 89
3 7 89 90
3 15 92 87
3 8 90 91
3 13 91 92
3 6 18 93
3 18 2 88
3 59 58 57
3 59 60 52
3 40 51 52
3 37 40 45
3 37 43 50
3 95 50 96
3 87 98 97
3 98 21 23
3 99 100 89
3 34 24 100
3 100 101 90
3 24 28 101
3 92 102 98
3 29 21 98
3 90 101 103
3 101 28 32
3 91 103 102
3 32 29 102
3 104 99 94
3 36 34 99
3 88 97 104
3 97 23 36
3 64 67 105
3 105 73 76
3 64 105 77
3 73 75 61
3 61 63 73
3 63 76 73
