ply
format ascii 1.0
comment Created by Blender 2.82 (sub 7) - www.blender.org, source file: 'person.blend'
element vertex 107
property float x
property float y
property float z
property float nx
property float ny
property float nz
element face 209
property list uchar uint vertex_indices
end_header
-0.693099 -0.387161 -0.250974 -0.991577 0.121921 -0.043580
-0.553228 -1.743903 -0.043025 -0.633931 -0.167821 0.754906
-0.200539 -0.126422 0.530777 -0.585406 -0.247658 0.771966
-0.065488 -0.434252 -1.100429 -0.401654 0.297464 -0.866115
-0.859706 -1.764567 -0.538536 -0.995361 -0.066164 -0.069674
0.559983 -1.753520 -0.121187 0.739708 -0.126865 0.660848
0.752876 -0.367536 -0.202391 0.988952 -0.109714 0.099429
0.557847 -0.088707 0.423785 0.735343 -0.233192 0.636280
0.775582 -1.768641 -0.479029 0.988311 -0.041444 0.146611
0.650569 -0.373439 -0.799407 0.857051 0.111820 -0.502914
0.173007 -1.738130 0.145989 0.163091 -0.212470 0.963439
0.172415 -0.172896 0.623714 0.129276 -0.350658 0.927519
0.617074 -1.757553 -1.172894 0.839991 0.037599 -0.541246
0.348077 -0.483233 -1.102463 0.353648 0.258980 -0.898801
0.353685 -1.719800 -1.388647 0.368694 0.084567 -0.925687
-1.249994 3.649174 0.537299 -0.999695 -0.019898 0.012543
-0.683943 2.458179 1.143156 -0.615528 -0.236549 0.751732
-0.791118 3.712042 1.375556 -0.610706 -0.101535 0.785272
-1.076745 2.244781 0.266040 -0.979827 -0.185583 -0.074038
-0.166970 0.416967 0.765569 -0.554765 -0.265419 0.788507
-0.619312 3.705773 -0.587534 -0.662679 -0.026582 -0.748405
-0.323769 2.264851 -0.722447 -0.489059 -0.043855 -0.871120
-0.680509 0.374476 -0.024155 -0.990417 -0.136448 -0.021119
0.539398 2.236844 1.020877 0.758232 -0.124699 0.639912
0.845317 3.629357 0.608839 0.990844 0.072390 0.113834
0.533052 3.690570 1.264999 0.704154 -0.064547 0.707053
0.538826 0.564565 0.663016 0.726249 -0.161077 0.668264
0.842775 2.179990 0.343613 0.996521 -0.026185 0.079012
0.575769 3.727530 -0.571699 0.752739 0.030732 -0.657552
0.853581 0.368385 0.043828 0.988495 -0.071963 0.132969
0.562818 2.240861 -0.594274 0.782128 0.038911 -0.621876
0.112588 2.380580 1.342544 0.164068 -0.192724 0.967406
0.015644 3.638395 1.543418 0.148289 -0.091220 0.984710
0.225133 2.312012 -0.780494 0.196509 0.020234 -0.980285
0.046381 3.705724 -0.788773 0.075014 -0.044099 -0.996185
0.670321 0.373471 -0.696505 0.770989 0.060610 -0.633931
-0.096325 0.256783 -0.777641 -0.500992 0.167699 -0.849025
-0.693351 5.074691 1.442298 -0.196966 0.658925 0.725944
-1.085538 5.441374 0.597955 -0.561510 0.819025 0.117557
-0.527874 5.386852 -0.766564 -0.371838 0.768426 -0.520768
0.592745 4.042654 1.225804 0.766808 -0.101077 0.633808
0.833393 4.258640 0.523717 0.953520 0.267953 0.137791
0.605731 4.439103 1.379778 0.582965 0.549303 0.598621
0.759006 3.990014 0.493465 0.999634 -0.024232 -0.010071
0.663086 4.312184 -0.476433 0.825068 -0.174993 -0.537187
0.772943 4.686239 -0.469692 0.887478 0.315531 -0.335765
-0.208458 4.498926 1.595597 0.196661 0.323801 0.925443
0.100916 5.206709 -1.064857 0.337138 0.311838 -0.888272
-0.145333 -5.020797 0.043036 -0.810083 0.504715 0.298288
-0.401112 -5.438222 0.452367 -0.934996 0.336711 -0.111087
-0.265012 -5.369443 0.777546 -0.432356 0.848872 0.304025
0.352226 -4.879443 0.203399 0.358959 0.654805 0.665090
0.569498 -5.465495 0.641480 0.956999 0.202216 0.207892
0.638950 -5.101350 -0.221645 0.952635 0.074831 0.294656
0.268725 -5.257766 0.808805 0.212714 0.862667 0.458815
-0.169919 -5.274632 -0.549547 -0.955870 0.015290 -0.293344
0.187624 -5.952390 -1.086425 -0.441420 -0.718375 -0.537614
-0.145062 -5.967000 -0.547021 -0.673513 -0.681661 -0.285806
0.737466 -5.448710 -1.065973 0.977264 -0.053835 -0.205054
0.583409 -5.962659 -0.707261 0.631611 -0.773797 0.047426
0.587521 -5.953887 -1.031136 0.593432 -0.757317 -0.272530
0.632851 -5.512563 -1.296908 0.523026 -0.129002 -0.842463
0.430985 -5.951253 -1.128337 0.079287 -0.781243 -0.619160
0.145082 -5.472766 -1.264435 -0.571642 -0.098636 -0.814539
-0.651105 -5.684983 0.870784 -0.921781 0.328135 -0.206397
-0.770005 -5.836907 1.362511 -0.933317 0.304086 0.190832
-0.333346 -5.567235 1.189439 -0.331553 0.891507 0.308664
0.565604 -5.641986 1.063964 0.967864 0.209021 0.139744
0.293088 -5.512866 1.313109 0.240089 0.908567 0.341807
0.394448 -5.795995 2.016392 0.796838 0.271432 0.539720
-0.442285 -5.818147 1.824871 -0.547746 0.455550 0.701712
0.735328 -5.208892 -0.563016 0.989776 -0.062105 0.128330
0.539290 -5.969832 -0.442400 0.621235 -0.780236 0.072451
-0.302778 -5.995034 0.487992 -0.531022 -0.814264 -0.234321
-0.729596 -6.018504 1.354500 -0.712180 -0.697470 0.079226
-0.435235 -6.030803 1.808612 -0.458571 -0.677206 0.575365
0.257965 -6.036986 2.036869 0.104129 -0.713492 0.692831
0.366104 -6.034539 1.946530 0.634754 -0.718680 0.283792
0.255840 -5.750102 2.100007 0.090487 0.482742 0.871059
-0.559859 -6.005944 0.890778 -0.565233 -0.770898 -0.293558
0.378028 -5.996961 0.559129 0.537614 -0.843135 -0.006378
0.447143 -6.013726 1.178105 0.623035 -0.782159 0.002441
-0.178936 -4.701587 -0.601240 -0.975585 -0.052065 -0.213263
-0.071011 -4.703237 -0.021235 -0.739677 0.189428 0.645711
0.220739 -4.787864 -1.215272 -0.478683 0.002655 -0.877957
0.729383 -4.724395 -0.568227 0.992859 0.062929 0.101047
0.566329 -4.714849 -0.233230 0.843410 0.170141 0.509568
0.640296 -4.781209 -0.985109 0.941923 0.081515 -0.325694
0.275440 -4.700501 0.116891 0.168462 0.346355 0.922819
0.514249 -4.798810 -1.216541 0.493362 0.083285 -0.865810
-0.171017 0.168446 0.677845 -0.574602 -0.296548 0.762780
-0.661969 -0.006111 -0.141128 -0.998505 0.034516 -0.041871
0.544625 0.185640 0.539706 0.715415 -0.241615 0.655568
0.818615 -0.005257 -0.077499 0.982238 -0.151982 0.109836
0.172509 0.307768 0.835587 0.147435 -0.284188 0.947356
0.163425 0.180367 0.793003 0.113651 -0.369396 0.922269
0.376141 0.256750 -0.827224 0.193793 0.168126 -0.966521
-0.326258 -3.622125 -0.662247 -0.970153 -0.186285 -0.155095
-0.171699 -3.619624 -0.210382 -0.709983 -0.093478 0.697958
-0.166609 -1.749207 -1.442722 -0.407208 0.049135 -0.911985
0.099611 -3.625423 -1.258185 -0.431043 -0.117252 -0.894650
0.517460 -3.620367 -0.344360 0.796564 -0.002777 0.604511
0.672656 -3.621928 -0.626686 0.992065 -0.003388 0.125431
0.574766 -3.624306 -1.056218 0.900327 -0.002594 -0.435163
0.240567 -3.618911 -0.081474 0.235633 0.010468 0.971770
0.423114 -3.625334 -1.241580 0.442671 -0.031831 -0.896084
0.432035 5.322817 -1.026642 0.281442 -0.542039 -0.791803
3 0 1 2
3 3 4 0
3 5 6 7
3 8 9 6
3 10 7 11
3 12 13 9
3 14 3 13
3 2 10 11
3 15 16 17
3 18 19 16
3 20 18 15
3 21 22 18
3 23 24 25
3 26 27 23
3 27 28 24
3 29 30 27
3 31 25 32
3 31 26 23
3 28 33 34
3 35 33 30
3 34 21 20
3 33 36 21
3 16 32 17
3 19 31 16
3 15 37 38
3 20 38 39
3 40 41 42
3 40 24 43
3 41 44 45
3 43 28 44
3 32 40 46
3 44 34 47
3 47 20 39
3 17 46 37
3 48 49 50
3 51 52 53
3 48 54 51
3 55 56 57
3 58 59 60
3 61 60 62
3 63 62 56
3 64 50 49
3 65 66 64
3 54 67 52
3 68 69 67
3 50 68 54
3 70 68 66
3 71 72 59
3 49 57 73
3 52 72 53
3 70 74 75
3 69 76 77
3 70 76 78
3 64 73 79
3 65 79 74
3 67 80 52
3 69 81 67
3 82 48 83
3 84 55 82
3 53 85 86
3 71 87 85
3 51 86 88
3 58 89 87
3 89 63 84
3 48 88 83
3 22 90 19
3 91 2 90
3 36 91 22
3 36 0 91
3 92 29 26
3 7 93 92
3 29 93 35
3 93 9 35
3 94 92 26
3 11 92 95
3 9 96 35
3 96 3 36
3 90 94 19
3 90 11 95
3 74 81 77
3 77 75 74
3 73 81 79
3 57 80 73
3 57 59 72
3 59 62 60
3 97 1 4
3 82 98 97
3 99 97 4
3 100 82 97
3 101 8 5
3 101 85 102
3 102 12 8
3 85 103 102
3 104 5 10
3 104 86 101
3 12 105 14
3 103 89 105
3 14 100 99
3 105 84 100
3 98 10 1
3 83 104 98
3 46 40 42
3 47 45 44
3 47 39 45
3 0 4 1
3 3 99 4
3 5 8 6
3 8 12 9
3 10 5 7
3 12 14 13
3 14 99 3
3 2 1 10
3 15 18 16
3 18 22 19
3 20 21 18
3 21 36 22
3 23 27 24
3 26 29 27
3 27 30 28
3 29 35 30
3 31 23 25
3 31 94 26
3 28 30 33
3 35 96 33
3 34 33 21
3 33 96 36
3 16 31 32
3 19 94 31
3 15 17 37
3 20 15 38
3 40 43 41
3 40 25 24
3 41 43 44
3 43 24 28
3 32 25 40
3 44 28 34
3 47 34 20
3 17 32 46
3 48 55 49
3 51 54 52
3 48 50 54
3 55 63 56
3 58 71 59
3 61 58 60
3 63 61 62
3 64 66 50
3 65 70 66
3 54 68 67
3 68 78 69
3 50 66 68
3 70 78 68
3 71 53 72
3 49 55 57
3 52 80 72
3 70 65 74
3 69 78 76
3 70 75 76
3 64 49 73
3 65 64 79
3 67 81 80
3 69 77 81
3 82 55 48
3 84 63 55
3 53 71 85
3 71 58 87
3 51 53 86
3 58 61 89
3 89 61 63
3 48 51 88
3 22 91 90
3 91 0 2
3 36 3 0
3 92 93 29
3 7 6 93
3 93 6 9
3 94 95 92
3 11 7 92
3 9 13 96
3 96 13 3
3 90 95 94
3 90 2 11
3 74 79 81
3 77 76 75
3 73 80 81
3 57 72 80
3 57 56 59
3 59 56 62
3 97 98 1
3 82 83 98
3 99 100 97
3 100 84 82
3 101 102 8
3 101 86 85
3 102 103 12
3 85 87 103
3 104 101 5
3 104 88 86
3 12 103 105
3 103 87 89
3 14 105 100
3 105 89 84
3 98 104 10
3 83 88 104
3 47 106 45
3 39 38 45
3 38 37 41
3 45 38 41
3 37 46 41
3 46 42 41
