ply
format ascii 1.0
comment Created by Blender 2.82 (sub 7) - www.blender.org, source file: 'person.blend'
element vertex 150
property float x
property float y
property float z
property float nx
property float ny
property float nz
element face 296
property list uchar uint vertex_indices
end_header
-1.353138 3.322525 0.585233 -0.118412 0.689566 0.714438
-1.240328 3.728436 -0.263160 -0.224586 0.969512 0.097659
-1.695182 3.608422 -0.383048 -0.318094 0.946501 -0.053957
-1.050384 3.383501 -1.358763 -0.073519 0.699393 -0.710898
-1.617498 3.156497 -1.476291 -0.231147 0.593829 -0.770653
-1.854829 1.673250 0.712821 -0.865658 -0.003204 0.500595
-1.031466 2.438004 1.098350 -0.412732 0.332163 0.848079
-1.637443 2.485854 0.821551 -0.526078 0.195349 0.827662
-0.951108 3.194162 0.709128 -0.166082 0.658834 0.733696
-1.930579 0.869841 -0.180976 -0.983795 -0.157445 -0.085421
-1.494189 0.910728 1.324628 -0.733390 0.049776 0.677938
-1.933830 1.536634 -0.409908 -0.958251 -0.271706 -0.088900
-1.565501 1.191464 -1.362482 -0.622364 -0.345256 -0.702445
-1.095720 2.473608 -1.734905 -0.050447 0.106296 -0.993042
-1.693304 2.657215 -1.596501 -0.382061 0.069247 -0.921506
-1.872792 1.802794 -1.402983 -0.680471 -0.305826 -0.665883
-1.803250 -0.013727 0.002413 -0.980132 -0.174902 -0.093265
-1.379982 0.048392 1.375848 -0.775048 -0.064608 0.628559
-1.303021 0.211056 -1.004323 -0.611957 -0.334819 -0.716483
-1.643005 -0.846222 0.282807 -0.998321 -0.053682 0.020753
-1.336691 -0.601084 1.364414 -0.768578 -0.085452 0.633992
-1.285171 -0.804046 -0.630590 -0.680502 -0.156133 -0.715873
-0.569999 3.131949 -1.414397 0.114872 0.416608 -0.901761
-0.738086 2.359812 -1.697767 0.156926 0.131108 -0.978851
-0.726226 1.339101 -1.684956 -0.058473 -0.207465 -0.976470
-0.567407 0.175162 -1.258900 -0.116855 -0.345683 -0.931028
-0.668188 -0.845418 -0.838495 -0.149205 -0.170660 -0.973937
-0.617112 0.011535 1.823683 -0.261147 0.000946 0.965270
-0.603838 1.177943 1.678564 -0.292734 0.181829 0.938719
-0.404134 2.858278 1.162653 -0.152348 0.564592 0.811151
-1.375477 -2.010774 1.090925 -0.768090 -0.034608 0.639363
-1.714100 -1.749163 0.073494 -0.983703 0.108615 -0.143040
-0.631946 -1.650819 -0.864135 -0.212226 0.279885 -0.936247
-1.206954 -1.767324 -0.595633 -0.676382 0.176824 -0.714988
-0.600027 -0.802054 1.755145 -0.272591 -0.093295 0.957579
-0.464456 -2.159730 1.685452 -0.274728 -0.165136 0.947203
-0.531259 -3.049841 1.419346 -0.206244 -0.292001 0.933897
-2.000607 -3.144214 0.009784 -0.953581 -0.290231 -0.080081
-1.608419 -3.510897 0.854127 -0.777215 -0.437727 0.452010
0.006681 2.408498 -1.557052 0.000000 0.150700 -0.988556
0.006680 1.351704 -1.553775 0.000000 -0.160314 -0.987060
0.006681 0.125041 -1.214757 0.000000 -0.333476 -0.942747
0.006681 -0.668136 1.770280 0.000000 -0.080874 0.996704
0.006681 0.011641 1.853194 0.000000 -0.009461 0.999939
0.006681 1.213319 1.789820 0.000000 0.171484 0.985168
-0.496941 2.210525 1.421777 -0.218787 0.331553 0.917692
0.006681 2.207658 1.425942 0.000000 0.353069 0.935575
0.006680 -1.629943 -0.843396 0.000000 0.302377 -0.953154
0.006681 -2.184648 1.684744 0.000000 -0.174383 0.984649
0.006680 -4.158750 0.990470 0.001892 -0.709067 0.705100
-0.309337 -4.146485 0.791607 -0.110874 -0.848811 0.516892
-0.081675 -4.326948 -0.064454 -0.204688 -0.967406 -0.148961
0.006681 -3.116324 1.405836 0.000000 -0.394818 0.918729
-0.677039 -2.668869 -1.532019 -0.211127 0.383374 -0.899106
-0.811613 3.411182 0.461249 -0.375622 0.674490 0.635548
-0.621081 4.020409 0.022132 -0.432966 0.879818 0.195959
-0.915283 3.766730 -0.166754 -0.487808 0.849422 0.201178
-0.789879 3.701401 -0.871379 -0.312967 0.846980 -0.429670
-0.620381 4.013977 -0.453988 -0.394330 0.898618 -0.192267
-0.438523 3.608417 -1.083784 -0.029572 0.680502 -0.732139
-0.329079 3.935549 -0.752812 -0.200964 0.784814 -0.586200
-0.410304 3.201055 0.748612 -0.127689 0.596667 0.792230
-0.494957 3.951986 0.385165 -0.448653 0.771661 0.450758
0.006681 3.125840 -1.380270 0.000000 0.395947 -0.918241
0.006681 3.608601 -1.093673 0.000000 0.598834 -0.800867
0.006681 2.838106 1.195060 0.000000 0.557543 0.830134
0.006681 3.345151 0.639227 0.000000 0.234687 0.972045
-0.153086 3.916794 0.751330 -0.286813 0.616504 0.733207
0.166448 3.916794 0.751330 0.286813 0.616504 0.733207
0.006681 3.889818 0.800826 0.000000 0.294748 0.955565
0.423666 3.201055 0.748612 0.127689 0.596667 0.792230
0.342441 3.935549 -0.752812 0.200964 0.784814 -0.586200
0.451884 3.608417 -1.083784 0.029572 0.680502 -0.732139
0.583360 3.131948 -1.414397 -0.114872 0.416608 -0.901761
0.508319 3.951986 0.385165 0.448653 0.771661 0.450758
0.964469 3.194162 0.709128 0.166082 0.658834 0.733696
0.417495 2.858278 1.162653 0.152348 0.564592 0.811151
0.803241 3.701401 -0.871379 0.312967 0.846980 -0.429670
0.633743 4.013978 -0.453988 0.394330 0.898618 -0.192267
1.063746 3.383501 -1.358763 0.073519 0.699393 -0.710898
0.928645 3.766730 -0.166754 0.487808 0.849422 0.201178
0.634442 4.020408 0.022132 0.432966 0.879818 0.195959
1.253689 3.728436 -0.263160 0.224586 0.969512 0.097659
0.824975 3.411182 0.461248 0.375622 0.674490 0.635548
0.322697 -4.146485 0.791607 0.102847 -0.852321 0.512742
0.544621 -3.049841 1.419345 0.206244 -0.292001 0.933897
-0.142125 -3.899349 -1.057863 -0.179876 -0.840236 -0.511490
0.095035 -4.326948 -0.064454 0.204566 -0.968261 -0.143376
0.613388 -0.802054 1.755145 0.272591 -0.093295 0.957579
0.681550 -0.845418 -0.838495 0.149205 -0.170660 -0.973937
0.006680 -0.830703 -0.793421 0.000000 -0.176885 -0.984222
0.510303 2.210525 1.421777 0.218787 0.331553 0.917692
0.617199 1.177943 1.678564 0.292734 0.181829 0.938719
0.630473 0.011535 1.823683 0.261147 0.000946 0.965270
0.580769 0.175163 -1.258900 0.116855 -0.345683 -0.931028
0.739587 1.339101 -1.684956 0.058473 -0.207465 -0.976470
0.751447 2.359812 -1.697767 -0.156926 0.131108 -0.978851
1.621780 -3.510897 0.854127 0.777215 -0.437727 0.452010
1.388838 -2.010773 1.090924 0.768090 -0.034608 0.639363
1.220316 -1.767324 -0.595633 0.676382 0.176824 -0.714988
2.013968 -3.144213 0.009784 0.953581 -0.290231 -0.080081
1.456304 -3.198735 -1.354735 0.734794 -0.267373 -0.623341
1.727462 -1.749163 0.073494 0.983703 0.108615 -0.143040
0.477818 -2.159730 1.685452 0.274728 -0.165136 0.947203
1.350053 -0.601084 1.364414 0.768578 -0.085452 0.633992
1.298533 -0.804046 -0.630590 0.680502 -0.156133 -0.715873
0.645308 -1.650819 -0.864135 0.212226 0.279885 -0.936247
1.656366 -0.846222 0.282807 0.998321 -0.053682 0.020753
1.044827 2.438004 1.098350 0.388440 0.349254 0.852687
1.507551 0.910728 1.324628 0.715659 0.018128 0.698202
1.393343 0.048392 1.375848 0.775048 -0.064608 0.628559
1.316382 0.211056 -1.004323 0.611957 -0.334819 -0.716483
1.578863 1.191464 -1.362482 0.622364 -0.345256 -0.702445
1.109082 2.473608 -1.734905 0.050447 0.106296 -0.993042
1.816611 -0.013727 0.002413 0.980132 -0.174902 -0.093265
1.943940 0.869841 -0.180976 0.979308 -0.174841 -0.101688
-1.123526 -4.086662 1.007426 -0.467177 -0.765130 0.443007
1.136887 -4.086662 1.007426 0.467177 -0.765130 0.443007
-0.483033 -3.262771 -1.614813 0.100009 -0.207587 -0.973083
-0.814152 -3.378879 -1.653028 -0.225593 -0.429701 -0.874325
0.155486 -3.899349 -1.057864 0.179876 -0.840236 -0.511490
0.496395 -3.262770 -1.614813 -0.100009 -0.207587 -0.973083
0.690400 -2.668869 -1.532018 0.211127 0.383374 -0.899106
0.827513 -3.378878 -1.653028 0.225593 -0.429701 -0.874325
-1.442942 -3.198736 -1.354735 -0.734794 -0.267373 -0.623341
-1.997707 3.321877 0.461669 -0.648610 0.498093 0.575488
-2.055783 3.413397 -0.324992 -0.841548 0.540086 0.006684
-2.102003 3.148396 -1.243961 -0.803461 0.421796 -0.420118
-2.049321 1.978996 0.316860 -0.979156 -0.061617 0.193518
-1.959273 2.536901 0.538199 -0.839778 0.042848 0.541185
-2.030016 1.745040 -0.359365 -0.965789 -0.256691 0.036256
-2.072795 2.003288 -1.065366 -0.958556 -0.215003 -0.186773
-2.020486 2.575838 -1.338770 -0.870571 -0.019105 -0.491623
1.951806 2.279585 -0.813839 0.990631 -0.054994 -0.124943
1.886154 1.802794 -1.402983 0.782617 -0.185308 -0.594226
1.706666 2.657215 -1.596501 0.589129 0.073946 -0.804621
2.054599 3.116103 -0.951633 0.894345 0.318735 -0.313822
1.630860 3.156497 -1.476291 0.394482 0.559984 -0.728538
1.944950 1.943657 -0.538228 0.999176 -0.025178 -0.030915
1.947192 1.536634 -0.409908 0.990844 -0.079073 -0.109378
1.946588 1.818648 0.058237 0.999359 -0.032655 -0.012787
1.945100 1.642283 0.860177 0.845058 -0.033845 0.533586
1.979632 3.265841 0.520650 0.613056 0.517502 0.596912
1.650805 2.485854 0.821551 0.371166 0.249428 0.894406
1.953407 2.310696 0.693327 0.848354 0.131413 0.512803
2.023361 1.939287 0.758775 0.901700 0.066622 0.427168
1.708544 3.608422 -0.383047 0.366100 0.926237 -0.089633
2.085044 3.437986 -0.020191 0.777520 0.614673 0.132603
1.366500 3.322525 0.585233 0.081149 0.713767 0.695639
0.006681 4.022859 -0.756919 0.000000 0.882382 -0.470504
3 0 1 2
3 2 3 4
3 5 6 7
3 7 8 0
3 5 9 10
3 11 12 9
3 4 13 14
3 15 13 12
3 10 16 17
3 9 18 16
3 17 19 20
3 16 21 19
3 13 22 23
3 13 24 12
3 18 24 25
3 18 26 21
3 20 27 17
3 27 10 17
3 28 6 10
3 6 29 8
3 19 30 20
3 21 31 19
3 21 32 33
3 34 30 35
3 30 36 35
3 37 30 31
3 33 37 31
3 38 36 30
3 22 39 23
3 23 40 24
3 40 25 24
3 41 26 25
3 42 27 34
3 43 28 27
3 44 45 28
3 46 29 45
3 26 47 32
3 34 48 42
3 49 50 51
3 36 48 35
3 50 52 36
3 53 32 47
3 54 1 8
3 54 55 56
3 1 57 3
3 56 58 57
3 3 59 22
3 57 60 59
3 61 8 29
3 61 62 54
3 59 63 22
3 60 64 59
3 65 61 29
3 66 67 61
3 66 68 69
3 65 70 66
3 64 71 72
3 63 72 73
3 70 74 68
3 75 70 76
3 77 71 78
3 79 72 77
3 80 78 81
3 82 77 80
3 83 81 74
3 82 83 75
3 84 52 49
3 85 48 52
3 86 87 51
3 48 88 42
3 89 47 90
3 76 46 91
3 91 44 92
3 92 43 93
3 93 42 88
3 89 41 94
3 94 40 95
3 96 40 39
3 73 39 63
3 85 97 98
3 99 100 101
3 98 100 102
3 98 103 85
3 88 98 104
3 105 106 89
3 102 105 107
3 98 107 104
3 108 76 91
3 108 92 109
3 109 93 110
3 104 93 88
3 89 111 105
3 111 95 112
3 95 113 112
3 113 73 79
3 114 105 111
3 110 107 114
3 115 111 112
3 109 114 115
3 36 116 50
3 85 84 117
3 53 118 119
3 118 120 86
3 53 121 118
3 121 122 123
3 53 119 124
3 122 101 123
3 53 33 32
3 99 122 106
3 125 2 126
3 2 127 126
3 128 7 129
3 129 0 125
3 11 128 130
3 131 11 130
3 127 14 132
3 132 15 131
3 133 134 135
3 136 135 137
3 138 139 134
3 140 141 139
3 142 143 144
3 145 143 141
3 136 146 147
3 147 148 142
3 134 113 135
3 113 137 135
3 139 112 134
3 141 115 139
3 75 143 148
3 108 141 143
3 79 146 137
3 82 148 146
3 49 51 84
3 51 87 84
3 53 47 122
3 47 106 122
3 144 140 147
3 131 126 132
3 55 81 149
3 116 38 51
3 117 84 87
3 0 8 1
3 2 1 3
3 5 10 6
3 7 6 8
3 5 11 9
3 11 15 12
3 4 3 13
3 15 14 13
3 10 9 16
3 9 12 18
3 17 16 19
3 16 18 21
3 13 3 22
3 13 23 24
3 18 12 24
3 18 25 26
3 20 34 27
3 27 28 10
3 28 45 6
3 6 45 29
3 19 31 30
3 21 33 31
3 21 26 32
3 34 20 30
3 37 38 30
3 33 124 37
3 38 116 36
3 22 63 39
3 23 39 40
3 40 41 25
3 41 90 26
3 42 43 27
3 43 44 28
3 44 46 45
3 46 65 29
3 26 90 47
3 34 35 48
3 36 52 48
3 50 49 52
3 54 56 1
3 54 62 55
3 1 56 57
3 56 55 58
3 3 57 59
3 57 58 60
3 61 54 8
3 61 67 62
3 59 64 63
3 60 149 64
3 65 66 61
3 66 69 67
3 66 70 68
3 65 76 70
3 64 149 71
3 63 64 72
3 70 83 74
3 75 83 70
3 77 72 71
3 79 73 72
3 80 77 78
3 82 79 77
3 83 80 81
3 82 80 83
3 84 85 52
3 85 103 48
3 86 120 87
3 48 103 88
3 89 106 47
3 76 65 46
3 91 46 44
3 92 44 43
3 93 43 42
3 89 90 41
3 94 41 40
3 96 95 40
3 73 96 39
3 85 117 97
3 99 102 100
3 98 97 100
3 88 103 98
3 105 99 106
3 102 99 105
3 98 102 107
3 108 75 76
3 108 91 92
3 109 92 93
3 104 110 93
3 89 94 111
3 111 94 95
3 95 96 113
3 113 96 73
3 114 107 105
3 110 104 107
3 115 114 111
3 109 110 114
3 118 121 120
3 53 122 121
3 53 124 33
3 99 101 122
3 125 0 2
3 2 4 127
3 128 5 7
3 129 7 0
3 11 5 128
3 131 15 11
3 127 4 14
3 132 14 15
3 133 138 134
3 136 133 135
3 138 140 139
3 140 145 141
3 142 148 143
3 145 144 143
3 136 137 146
3 147 146 148
3 134 112 113
3 113 79 137
3 139 115 112
3 141 109 115
3 75 108 143
3 108 109 141
3 79 82 146
3 82 75 148
3 138 133 140
3 133 136 147
3 147 142 144
3 144 145 140
3 147 140 133
3 131 130 126
3 130 128 129
3 126 130 129
3 129 125 126
3 126 127 132
3 55 62 74
3 62 67 68
3 67 69 68
3 68 74 62
3 74 81 55
3 81 78 149
3 78 71 149
3 149 60 58
3 55 149 58
3 38 37 51
3 37 124 86
3 51 37 86
3 124 119 86
3 119 118 86
3 51 50 116
3 87 120 100
3 120 121 123
3 101 120 123
3 101 100 120
3 100 97 87
3 97 117 87
